<mxfile host="app.diagrams.net" agent="Mozilla/5.0 (Windows NT 10.0; Win64; x64) AppleWebKit/537.36 (KHTML, like Gecko) Chrome/138.0.0.0 Safari/537.36" version="28.0.9">
  <diagram name="Page-1" id="z1T8oxUtntGv72wp7X81">
    <mxGraphModel dx="1030" dy="562" grid="1" gridSize="10" guides="1" tooltips="1" connect="1" arrows="1" fold="1" page="1" pageScale="1" pageWidth="850" pageHeight="1100" math="0" shadow="0">
      <root>
        <mxCell id="0" />
        <mxCell id="1" parent="0" />
        <mxCell id="iV92o5-6hD7ks9nK3CDA-68" value="" style="edgeStyle=orthogonalEdgeStyle;rounded=0;orthogonalLoop=1;jettySize=auto;html=1;" edge="1" parent="1" source="iV92o5-6hD7ks9nK3CDA-53" target="iV92o5-6hD7ks9nK3CDA-57">
          <mxGeometry relative="1" as="geometry" />
        </mxCell>
        <mxCell id="iV92o5-6hD7ks9nK3CDA-53" value="" style="shape=image;verticalLabelPosition=bottom;labelBackgroundColor=default;verticalAlign=top;aspect=fixed;imageAspect=0;image=data:image/jpeg,/9j/4AAQSkZJRgABAQACWAJYAAD/4QAC/9sAhAADAgICAgIDAgICAwMDAwQGBAQEBAQIBgYFBgkICgoJCAkJCgwPDAoLDgsJCQ0RDQ4PEBAREAoMEhMSEBMPEBAQAQMDAwQDBAgEBAgQCwkLEBAQEBAQEBAQEBAQEBAQEBAQEBAQEBAQEBAQEBAQEBAQEBAQEBAQEBAQEBAQEBAQEBD/wgARCAeAB4ADAREAAhEBAxEB/8QAMgABAQEAAQUBAQAAAAAAAAAAAAkIBwMEBQYKAQIBAQEBAAAAAAAAAAAAAAAAAAABAv/aAAwDAQACEAMQAAAAqmAAAAAAAAAAAAAAAAAAAAAAAAAAAAAAAAAAAAAAAAAAAAAAAAAAAAAAAAAAAAAAAAAAAAAAAAAAAAAAAAAAAAAAAAAAAAAAAAAAAAAAAAAAAAAAAAAAAAAAAAAAAAAAAAAAAAAAAAAAAAAAAAAAAAAAAAAAAAAAAAAAAAAAAAAAAAAAAAAAAAAAAAAAAAAAAAAAAAAAAAAAAAAAAAAAAAAAAAAAAAAAAAAAAAAAAAAAAAAAAAAAAAAAAAAAAAAAAAAAAAAAAAAAAAAAAAAAAAAAAAAAAAAAAAAAAAAAAAAAAAAAAAAAAAAAAAAAAAAAAAAAAAAAAAAAAAAAAAAAAAAAAAAAAAAAAAAAAAAAAAAAAAAAAAAAAAAAAAAAAAAAAAAAAAAAAAAAAAAAAAAAAAAAAAAAAAAAAAAAAAAAAAAAAAAAAAAAAAAAAAAAAAAAAAAAAAAAAAAAAAAAAAAAAAAAAAAAAAAAAAAAAAAAAAAAAAAAAAAAAAAAAAAAAAAAAAAAAAAAAAAAAAAAAAAAAAAAAAAAAAAAAAAAAAAAAAAAAAAAAAAAAAAAAAAAAAAAAAAAAAAAAAAAAAAAAAAAAAAAAAAAAAAAAAAAAAAAAAAAAAAAAAAAAAAAAAAAAAAAAAAAAAAAAAAAAAAAAAAAAAAAAAAAAAAAAAAAAAAAAAAAAAAAAAAAAAAAAAAAAAAAAAAAAAAAAAAAAAAAAAAAAAAAAAAAAAAAAAAAAAAAAAAAAAAAAAAAAAAAAAAAAAAAAAAAAAAAAAAAAAAAAAAAAAAAAAAAAAAAAAAAAAAAAAAAAAAAAAAAAAAAAAAAAAAAAAAAAAAAAAAAAAAAAAAAAAAAAAAAAAAAAAAAAAAAAAAAAAAAAAAAAAAAAAAAAAAAAAAAAAAAAAAAAAAAAAAAAAAAAAAAAAAAAAAAAAAAAAAAAAAAAAAAAAAAAAAAAAAAAAAAAAAAAAAAAAAAAAAAAAAAAAAAAAAAAAAAAAAAAAAAAAAAAAAAAAAAAAAAAAAAAAAAAAAAAAAAAAAAAAAAAAAAAAAAAAAAAAAAAAAAAAAAAAAAAAAAAAAAAAAAAAAAAAAAAAAAAAAAAAAAAAAAAAAAAAAAAAAAAAAAAAAAAAAAAAAAAAAAAAAAAAAAAAAAAAAAAAAAAAAAAAAAAAAAAAAAAAAAAAAAAAAAAAAAAAAAAAAAAAAAAAAAAAAAAAAAAAAAAAAAAAAAAAAAAAAAAAAAAAAAAAAAAAAAAAAAAAAAAAAAAAAAAAAAAAAAAAAAAAAAAAAAAAAAAAAAAAAAAAAAAAAAAAAAAAAAAAAAAAAAAAAAAAAAAAAAAAAAAAAAAAAAAAAAAAAAAAAAAAAAAAAAAAAAAAAAAAfydsAAAAAfp3J+gAAAAAAAAAAAAAAAAAAAAAAAAAAAAAAAAAAAAAAAAAAAAAAAAAAAAAAAAAAAAAAAAAAAAAAAAAAAAAAAAAAAAAAAAAAAAAAAAAAAAAAAAAAAAAA8cZUTJZn9OK08AfgAAAAP6PYzlddDmtl0+veAAAAAAAAAAAAAAAAAAAAAAAAAAAAAAAAAAAAAAAAAAAAAAAAAAAAAAAAAAAAAAAAAAAAAAAAAAAAAAAAAAAAAAAAAAAAAAAAAAAAAAAAAAAA8KT6SdrPoQAAAAAAAAAOTSjjW9V8gAAAAAAAAAAAAAAAAAAAAAAAAAAAAAAAAAAAAAAAAAAAAAAAAAAAAAAAAAAAAAAAAAAAAAAAAAAAAAAAAAAAAAAAAAAAAAAAAAAAAAAAAAAZuSPTPE4AAAAAAAAAAAOcFsS1zqAAAAAAAAAAAAAAAAAAAAAAAAAAAAAAAAAAAAAAAAAAAAAAAAAAAAAAAAAAAAAAAAAAAAAAAAAAAAAAAAAAAAAAAAAAAAAAAAAAAAAAAAAYKSSbPZAAAAAAAAAAAAA8wWJa2aoAAAAAAAAAAAAAAAAAAAAAAAAAAAAAAAAAAAAAAAAAAAAAAAAAAAAAAAAAAAAAAAAAAAAAAAAAAAAAAAAAAAAAAAAAAAAAAAAAAAAAAAGAkkiz/AAAD9NDrr9eej3le7QAAAAdiehGfjHicEoAB3JZRraKgAAAAAAAAAAAAAAAAAAAAAAAAAAAAAAAAAAAAAAAAAAAAAAAAAAAAAAAAAAAAAAAAAAAAAAAAAAAAAAAAAAAAAAAAAAAAAAAAAAAAAAZYSILPbAA0StW10UoAAAAAAAH8GXklKnB6ADypdlvQAAAAAAAAAAAAAAAAAAAAAAAAAAAAAAAAAAAAAAAAAAAAAAAAAAAAAAAAAAAAAAAAAAAAAAAAAAAAAAAAAAAAAAAAAAAAAAAAAAAAAAB6qfP6xx6AfpRlajtd6AAAAAAAAADxZJVnB6ADmJb7NeWAAAAAAAAAAAAAAAAAAAAAAAAAAAAAAAAAAAAAAAAAAAAAAAAAAAAAAAAAAAAAAAAAAAAAAAAAAAAAAAAAAAAAAAAAAAAAAAAAAAAABKpmcyAClDVRlAHrhkxOHztwAAAAd2c0msV8yAdAkazgpABU1qkKgAAAAAAAAAAAAAAAAAAAAAAAAAAAAAAAAAAAAAAAAAAAAAAAAAAAAAAAAAAAAAAAAAAAAAAAAAAAAAAAAAAAAAAAAAAAAAAAAAAAAennzuMeEANTrb1rugDEySZZ9QAAAAAAByAV5a1qoHjiELPACAe6n0RN+XAAAAAAAAAAAAAAAAAAAAAAAAAAAAAAAAAAAAAAAAAAAAAAAAAAAAAAAAAAAAAAAAAAAAAAAAAAAAAAAAAAAAAAAAAAAAAAAAAAAABPdJMsgd2fQK1y8oGJEjgz0wAAAAAAAd4W0a1coGd0g2z/ACAWYa2soAAAAAAAAAAAAAAAAAAAAAAAAAAAAAAAAAAAAAAAAAAAAAAAAAAAAAAAAAAAAAAAAAAAAAAAAAAAAAAAAAAAAAAAAAAAAAAAAAAAAhwzlhANnrZ9oD1g+eRj1MAAAAAAAAHJZ9CTfkQCFjOZEA20tlGgAAAAAAAAAAAAAAAAAAAAAAAAAAAAAAAAAAAAAAAAAAAAAAAAAAAAAAAAAAAAAAAAAAAAAAAAAAAAAAAAAAAAAAAAAAAAAAAAAAAO0Pm7Y8AAWha2aoGF0jyyB+mnF95AAAABxoZ0QAW6a1ooE/0kiyByUfRG3+gAAAAAAAAAAAAAAAAAAAAAAAAAAAAAAAAAAAAAAAAAAAAAAAAAAAAAAAAAAAAAAAAAAAAAAAAAAAAAAAAAAAAAAAAAAAAAAAAAAA4yPneYAH0Vt8hgEqWZzoBq1bgNfoAAAAO3IKM8CIBUxqkSgcFEBmAOofSY354AAAAAAAAAAAAAAAAAAAAAAAAAAAAAAAAAAAAAAAAAAAAAAAAAAAAAAAAAAAAAAAAAAAAAAAAAAAAAAAAAAAAAAAAAAAAAAAAAAAGfEgoyB5M+lNvuACVTM5kA0ytymu7AAAAB48gazwmgFTmqQKB6sfN0wAPogb5OAAAAAAAAAAAAAAAAAAAAAAAAAAAAAAAAAAAAAAAAAAAAAAAAAAAAAAAAAAAAAAAAAAAAAAAAAAAAAAAAAAAAAAAAAAAAAAAAAAABm1IRsgexH0mNgDECRwZAHLi+3AAAAA9FTi8AFw2tVqB4o+apjpgH0JN8uAAAAAAAAAAAAAAAAAAAAAAAAAAAAAAAAAAAAAAAAAAAAAAAAAAAAAAAAAAAAAAAAAAAAAAAAAAAAAAAAAAAAAAAAAAAAAAAAAAAAzakI2QPYj6TGwB4A+elj0YAAAAAAAAHLa/QM13oB4k+atjpgH0JN8uAAAAAAAAAAAAAAAAAAAAAAAAAAAAAAAAAAAAAAAAAAAAAAAAAAAAAAAAAAAAAAAAAAAAAAAAAAAAAAAAAAAAAAAAAAAHHpnpOOzoAAAAAAA4uSeiAexH0mNgAZHSKrPZgAAAAAAA8uXHa0goA8SfNWx0wClLXuYAAAAAAOuciGhV5CAAAAAAAAAAAAAAAAAAAAAAAAAAAAAAAAAAAAAAAAAAAAAAAAAAAAAAAAAAAAAAAAAAAAAAAAAAAAAAAAABl1JopmVOmAAAAAAAAAD2I+kxsAAZYSR6cUIAAAAAAObVruuilAA8SfNWx0wAAAAAAAAAdQ00tLl1EoAAAAAAAAAAAAAAAAAAAAAAAAAAAAAAAAAAAAAAAAAAAAAAAAAAAAAAAAAAAAAAAAAAAAAAAAAAAAAAA8cSfZwIn8gAAAAAAAAAA9jPpLbAAA7MzunEB24AAAAO8OaDn9e4AAB4o+atjpAAAAAAAAAAA/o32tYGvIgAAAAAAAAAAAAAAAAAAAAAAAAAAAAAAAAAAAAAAAAAAAAAAAAAAAAAAAAAAAAAAAAAAAAAAAAAAAAAHZEX2cfIAAAAAAAAAAANRrctoAAAAAAAAAAAAAD+CArPByAAAAAAAAAAADYK2ga70AAAAAAAAAAAAAAAAAAAAAAAAAAAAAAAAAAAAAAAAAAAAAAAAAAAAAAAAAAAAAAAAAAAAAAAAAAAAAEwkmcyAB7Ic3L5YAAAAAAAA5JKdtchAAAAAAAAAAAAAAA4nJms+hgAAAAAAAHiDg9PXgACmLVPVAAAAAAAAAAAAAAAAAAAAAAAAAAAAAAAAAAAAAAAAAAAAAAAAAAAAAAAAAAAAAAAAAH4eunrx+gAAAAAAAAA47ITMdiAecKmtbwXyoAAAAAAAAAAAAAAAAAAAAAAAAAAAAAAAAAAPDmA0l2z4kA74uy3yIAAAAAAAAAD8PYT2I/QAAAAAAAAAAAAAAAAAAAAAAAAAAAAAAAAAAAAAAAAAAAAAAAAAAAAeiE8kxizxUdMAAAAAAAAAA/QAd+XHa0woAAAAAAAAAAAAAAAAAAAAAAAAAAAAAAAAAAAAyykQme0AB+AAAAAAAAAAHUOVTZzVDV97AAAAAAAAAAAAAAAAAAAAAAAAAAAAAAAAAAAAAAAAAAAAAAAAAAAMXpIhn1gAAAAAAAAAAAAAFGmqqKAAAAAAAAAAAAAAAAAAAAAAAAAAAAAAAAAAAAAJQMzwQAAAAAAAAAAAAAezld2toKAAAAAAAAAAAAAAAAAAAAAAAAAAAAAAAAAAAAAAAAAAAAAAAAABhlI+M9IAAAAAAAAAAAAAA+ghrmZQAAAAAAAAAAAAAAAAAAAAAAAAAAAAAAAAAAAABwsfP0wAAAAAAAAAAAAAB1SwbW5lAAAAAAAAAAAAAAAAAAAAAAAAAAAAAAAAAAAAAAAAAAAAAAAAA4aSBbPigAAAAAAAAAAAAADyB9KjfdAAAAAAAAAAAAAAAAAAAAAAAAAAAAAAAAAAAAAA7Y+atjxwAAAAAAAAAAAAAB5Uvo1zKoAAAAAAAAAAAAAAAAAAAAAAAAAAAAAAAAAAAAAAAAAAAAAAAAi2zjVABttaItcrnUAAAAAAAAAOBUhkyB5s+lJv9AAAAAAAAAAAAAAAAAAAAAAAAAAAAAAAAAAAAAB+HzWseEALmt89AAAAAAAAAHTOJknMmLkAGyVtK0AAAAAAAAAAAAAAAAAAAAAAAAAAAAAAAAAAAAAAAAAAAAAAAB6gfOYx2YBQtqsS/oAAAAAAAAABn0gmwB5s+lJv9AAAAAAAAAAAAAAAAAAAAAAAAAAAAAAAAAAAAAB+HzWseEAL2N6CAAAAAAAAAAP4JJM4BQDvD6M2/bwAAAAAAAAAAAAAAAAAAAAAAAAAAAAAAAAAAAAAAAAAAAAAAAZMSIjIHlz6MW/ZgAAAAAAAAAAZ9IJsAebPpSb/AEAAAAAAAAAAAAAAAAAAAAAAAAAAAAAAAAAAAAAH4fNax4QAvY3oIAAAAAAAAAAHqp86DHigC3TWtFAAAAAAAAAAAAAAAAAAAAAAAAAAAAAAAAAAAAAAAAAAAAAAAGDUkGyBz0t9GgAAAAAAAAAAM+kE2APNn0pN/oAAAAAAAAAAAAAAAAAAAAAAAAAAAAAAAAAAAAAPw+a1jwgBexvQQAAAAAAAAAABApngZAK+NbyUAAAAAAAAAAAAAAAAAAAAAAAAAAAAAAAAAAAAAAAAAAAAAAAYFSRbIGh1vO0AAAAAAAAAABn0gmwB5s+lJv8AQAAAAAAAAAAAAAAAAAAAAAAAAAAAAAAAAAAAAAfh81rHhAC9jeggAAAAAAAAAACDDOeEAro1vpQAAAAAAAAAAAAAAAAAAAAAAAAAAAAAAAAAAAAAAAAAAAAAABgVJFsgaHW87QAAAAAAAAAAGfSCbAHmz6Um/wBAAAAAAAAAAAAAAAAAAAAAAAAAAAAAAAAAAAAAB+HzWseEAL2N6CAAAAAAAAAAAIMM54QCujW+lAAAAAAAAAAAAAAAAAAAAAAAAAAAAAAAAAAAAAAAAAAAAAAAGBUkWyBodbztAADjkzGnQAAAAAAAOLiZbIHmz6Um/wBAAAAAAAAAAAAAAAAAAAAAAAAAAAAAAAAAAAAAB+HzWseEAKaNcogAAAAAAHeGp192AABBhnPCAV0a30oAAAAAAAAAAAAAAAAAAAAAAAAAAAAAAAAAAAAAAAAAAAAAAAwKki2QNDredoADiEgqx6yAAAAAAAAADrn0nt+YAAAAAAAAAAAAAAAAAAAAAAAAAAAAAAAAAAAAAB4Q+bNjoAAAAAAAAAA97L6t+/AAEGGc8IBXRrfSgAAAAAAAAAAAAAAAAAAAAAAAAAAAAAAAAAAAAAAAAAAAAAADAqSLZA0Ot52gAJqpLtkAAAAAAAAAAXJa1KoAAAAAAAAAAAAAAAAAAAAAAAAAAAAAAAAAAAAAykkPmQAAAAAAAAABXdre6gAQYZzwgFdGt9KAAAAAAAAAAAAAAAAAAAAAAAAAAAAAAAAAAAAAAAAAAAAAAAMCpItkDQ63naAAmGkzWQAAAAAAAAABqhbfNdwAAAAAAAAAAAAAAAAAAAAAAAAAAAAAAAAAAAADtSGjOZkAAAAAAAAAAFaGqDKABBhnPCAV0a30oAAAAAAAAAAAAAAAAAAAAAAAAAAAAAAAAAAAAAAAAAAAAAAAwKki2QNDredoACYaTNZA9oOUQAAAAAAeuHFIAKLLUxrvAAAAAAAAAAAAAAAAAAAAAAAAAAAAAAAAAAAAdiSbTAbIA5YPYQAAAAAAcSngACtDVBlAAgwznhAK6Nb6UAAAAAAAAAAAAAAAAAAAAAAAAAAAAAAAAAAAAAAAAAAAAAAAYFSRbIGh1vO0ABMNJmsgbLW0bQAAAAAA9YPnyY9FABz8tA10Cvl0AAAAAAAAAAAAAAAAAAAAAAAAAAAAAAAAAHh1zyk9U4OQAckH0DN+wAAAAAAAhYzmRAK0NUGUACDDOeEAro1vpQAAAAAAAAAAAAAAAAAAAAAAAAAAAAAAAAAAAAAAAAAAAAAABgVJFsgaHW87QAEw0mayBstbRtAAAAAAAZRSI7PbgAAAAAAAAAAAAAAAAAAAAAAAAAAAAAAAAAAAAAAA7wuE1qBQAAAAAAIWM5kQCtDVBlAAgwznhAK6Nb6UAAAAAAAAAAAAAAAAAAAAAAAAAAAAAAAAAAAAAAAAAAAAAAAYFSRbIGh1vO0ABMNJmsgbLW0bQAAAAAAAwukhWezAAAAAAAAAAAAAAAAAAAAAAAAAAAAAAAAAAAAAAB5AsQ1tZQAAAAAABCxnMiAVoaoMoAEGGc8IBXRrfSgAAAAAAAAAAAAAAAAAAAAAAAAAAAAAAAAAAAAAAAAAAAAAADAqSLZA0Ot52gAJhpM1kDZa2jaAAAAAAAAzWkhk4eQAAAAAAAAAAAAAAAAAAAAAAAAAAAAAAAAAAAAAcyrX9dFKAAAAAAABCxnMiAVoaoMoAEGGc8IBXRrfSgAAAAAAAAAAAAAAAAAAAAAAAAAAAAAAAAAAAAAAAAAAAAAADAqSLZA0Ot52gAJhpM1kDZa2jaAAAAAAAAHYGO0xamck9IOmAAAAAAAAAAAAAAAAAAAAAAAAAAAAAAAAADqHvBo1dorsVe+AAAAAAAABCxnMiAVoaoMoAEGGc8IBXRrfSgAAAAAAAAAAAAAAAAAAAAAAAAAAAAAAAAAAAAAAAAAAAAAADAqSLZA0Ot52gAJhpM1kDZa2jaAAAAAAAAAA/DxR24AAAAAAAAAAAAAAAAAAAAAAAAAAAAAAAAAO5PKH6AAAAAAAAAAQsZzIgFaGqDKABBhnPCAV0a30oAAAAAAAAAAAAAAAAAAAAAAAAAAAAAAAAAAAAAAAAAAAAAAAwKki2QNDredoACYaTNZA2Wto2gAAAAAAAAAAAAAAAAAAAAAAAAAAAAAAAAAAAAAAAAAAAAAAAAAAAAAAABCxnMiAVoaoMoAEGGc8IBXRrfSgAAAAAAAAAAAAAAAAAAAAAAAAAAAAAAAAAAAAAAAAAAAAAADAqSLZA0Ot52gAJhpM1kDZa2jaAAAAAAAAAAAAAAAAAAAAAAAAAAAAAAAAAAAAAAAAAAAAAAAAAAAAAAAAELGcyIBWhqgygAQYZzwgFdGt9KAAAAAAAAAAAAAAAAAAAAAAAAAAAAAAAAAAAAAAAAAAAAAAAMCpItkDQ63naAAmGkzWQNlraNoAAAAAAAAAAAAAAAAAAAAAAAAAAAAAAAAAAAAAAAAAAAAAAAAAAAAAAAAQsZzIgFaGqDKABBhnPCAV0a30oAAAAAAAAAAAAAAAAAAAAAAAAAAAAAAAAAAAAAAAAAAAAAAAwKki2QNDredoACYaTNZA2Wto2gAAAAAAAAAAAAAAAAAAAAAAAAAAAAAAAAAAAAAAAAAAAAAAAAAAAAAAABCxnMiAVoaoMoAEGGc8IBXRrfSgAAAAAAAAAAAAAAAAAAAAAAAAAAAAAAAAAAAAAAAAAAAAAADAqSLZA0Ot52gAJhpM1kDZa2jaAAAAAAAAAAAAAAAAAAAAAAAAAAAAAAAAAAAAAAAAAAAAAAAAAAAAAAAAELGcyIBWhqgygAQYZzwgFdGt9KAAAAAAAAAAAAAAAAAAAAAAAAAAAAAAAAAAAAAAAAAAAAAAAMCpItkDQ63naAAmGkzWQNlraNoAAAAAAAAAAAAAAAAAAAAAAAAAAAAAAAAAAAAAAAAAAAAAAAAAAAAAAAAQsZzIgFaGqDKABBhnPCAV0a30oAAAAAAAAAAAAAAAAAAAAAAAAAAAAAAAAAAAAAAAAAAAAAAAwKki2QNDredoACYaTNZA2Wto2gAAAAAAAAAAAAAAAAAAAAAAAAAAAAAAAAAAAAAAAAAAAAAAAAAAAAAAABCxnMiAVoaoMoAEGGc8IBXRrfSgAAAAAAAAAAAAAAAAAAAAAAAAAAAAAAAAAAAAAAAAAAAAAADAqSLZA0Ot52gAJhpM1kDZa2jaAAAAAAAAAAAAAAAAAAAAAAAAAAAAAAAAAAAAAAAAAAAAAAAAAAAAAAAAELGcyIBWhqgygAQYZzwgFdGt9KAAAAAAAAAAAAAAAAAAAAAAAAAAAAAAAAAAAAAAAAAAAAAAAMCpItkDQ63naAAmGkzWQNlraNoAAAAAAAAAAAAAAAAAAAAAAAAAAAAAAAAAAAAAAAAAAAAAAAAAAAAAAAAQsZzIgFaGqDKABBhnPCAV0a30oAAAAAAAAAAAAAAAAAAAAAAAAAAAAAAAAAAAAAAAAAAAAAAAwKki2QNDredoACYaTNZA2Wto2gAAAAB2x4A8seSAAAAAAAAAAAAAAAAAAAAAAAAAAAAAAAAAAAAAAAAAAAAAAAAAIWM5kQCtDVBlAAgwznhAK6Nb6UAAAAAAAAAAAAAAAAAAAAAAAAAAAAAAAAAAAAAAAAAAAAAAAYFSRbIGh1vO0ABMNJmsgbLW0bQAAAAz6kzkzCngjuznNaGLt9eqDjMlwyBtpdcqBKRn0cHuBWNoZOTDqAUia5xAABwkk2UA3KurlGI0yQgFUmuQQAAcBJOlAN5LqFQB48kCz0geXK7tdUAGY0wQgAHsC88Gzl9tAJZs8cA5JKlNAeNJBs9IGm13woAAAhYzmRAK0NUGUACDDOeEAro1vpQAAAAAAAAAAAAAAAAAAAAAAAAAAAAAAAAAAAAAAAAAAAAAABgVJFsgaHW87QAEw0mayBstbRtAAAAZGSLLPYAAAou1VdRwckAmQKrNUYUD562eJUHJq/RC0J5pJ1kDeK19aAAEi2cCoBWZqhCiWCTgZApy1TVQABG5nESAV7a3moAz2kFWQB9CjfLQAMJpH1kAAD2ssM1r1RKhJ0Mjuz6Nm/bQZiSFzIFm2tpqAAAIWM5kQCtDVBlAAgwznhAK6Nb6UAAAAAAAAAAAAAAAAAAAAAAAAAAAAAAAAAAAAAAAAAAAAAAAYFSRbIGh1vO0ABMNJmsgbLW0bQAAA8WfPGx6CAAAf0Xga0YvByQCZAqs1RhQPnrZ4lQcmr9ELQnmknWQPNH0UN+2AA9dPnVY9dAKzNUIUSwScDIHIh9DjffAA9HPnbY8aAV7a3moAnQkqGQBYFrdqgDCaR9ZAAAHki9bfOJnVINsgWXa2uolsk2mR5k+jVv2AAAAELGcyIBWhqgygAQYZzwgFdGt9KAAAAAAAAAAAAAAAAAAAAAAAAAAAAAAAAAAAAAAAAAAAAAAAMCpItkDQ63naAAmGkzWQNlraNoAAAZbSGrIGj13cuYkw+gFBlrQ1wckAmQKrNUYUD562eJUHJq/RC0J5pJ1kAVdaoioAwMkimQBWZqhCiWCTgZAFpGtlKAJsJLhkAV7a3moAiszjpABvBa/NADCaR9ZA1avfnAqcegG01s210D54mONQbjWxbQgWzwKg2StpWgAAAIWM5kQCtDVBlAAgwznhAK6Nb6UAAAAAAAAAAAAAAAAAAAAAAAAAAAAAAAAAAAAAAAAAAAAAAAYFSRbIGh1vO0ABMNJmsgbLW0bQAAAwqke2QLzNaIXsz5w2PWAakW5bXByQCZAqs1RhQPnrZ4lQcmr9ELQnmknWQBzAv0DNdwD+SCTPACACszVCFEsEnAyANRrctoDtT562OLwAV7a3moHQPnOY9JOsf0ducur9CLQAwmkfWR/J9Gbfvp6yQEY4yB7OfR+33BKNmdqD3c+i1v04+dFjpAso1tpQAAAIWM5kQCtDVBlAAgwznhAK6Nb6UAAAAAAAAAAAAAAAAAAAAAAAAAAAAAAAAAAAAAAAAAAAAAAAYFSRbIGh1vO0ABMNJmsgbLW0bQAAAyCkT2QKstUVUegHRB3h7ycHJAJkCqzVGFA+etniVByav0QtCeaSdZAAuO1qdRwAkEWfwAFZmqEKJYJOBkAdQ+gdvmMGREiYyABXtreagcNnz6sDks7g4sP7Povb98AMJpH1kfyfRm376CSLM/0A+jxv3IzgkIGQL0NcJEhGR5Y+jRv2QAAAAhYzmRAK0NUGUACDDOeEAro1vpQAAAAAAAAAAAAAAAAAAAAAAAAAAAAAAAAAAAAAAAAAAAAAABgVJFsgaHW87QAEw0mayBstbRtAAAD1A+dVjxQO8KlNUNXuwADg5IBMgVWaowoHz1s8SoOTV+iFoTzSTrIAGyFtM0JDs4JQACszVCFEsEnAyABQ9avtCIrOS0AAr21vNQMEJIhkaiXqmWEFomtmKBhNI+sj+T6M2/fQSfZnig/k+jdv3k7c+d5jjoFNWuAkyOg2EtrGgAAABCxnMiAVoaoMoAEGGc8IBXRrfSgAAAAAAAAAAAAAAAAAAAAAAAAAAAAAAAAAAAAAAAAAAAAAADAqSLZA0Ot52gAJhpM1kDZa2jaAAAAl6k02QBoBa1LoRQBwckAmQKrNUYUD562eJUHJq/RC0J5pJ1kaCXhxPAHeH0SN9+fO0x4U80c0Ln1BWZqhCiWCTgZHNy8LJ0j2s+ihv0w+eZjoHtR5443BXtreagR2Zw0goCv8mAEFDlrA0BhNI+sj+T6M2/fTtCCjPA6Dyp9Jjfegk4zPRBoVeGE8CCxzW4FAAAAELGcyIBWhqgygAQYZzwgFdGt9KAAAAAAAAAAAAAAAAAAAAAAAAAAAAAAAAAAAAAAAAAAAAAAAMCpItkDQ63naAAmGkzWQNlraNoAAADsSPDOJkAHcFJmqar3YODkgEyBVZqjCgfPWzxKg5NX6IWhPNJOsjRK8nmJ0FUWvIEnmRslfQTOiCszVCFEsEnAyNQL2Jm1BYZrjYmEyN2rlVOPAV7a3mo/D55WeLEFaWuwJSsjn1b4tAYTSPrIFG184uaUy8gGo1uW0BmlITsgAeTPo0b9nAAAABCxnMiAVoaoMoAEGGc8IBXRrfSgAAAAAAAAAAAAAAAAAAAAAAAAAAAAAAAAAAAAAAAAAAAAAADAqSLZA0Ot52gAJhpM1kDZa2jaAAAAHbE6kmGz4sAG7lr411Dg5IBMgVWaowoHz1s8SoOTV+iFoTzSTrI5yWnaxSZHMx5leAEFkWpxJwWgrM1QhRLBJwMjQ67dWTbI0svHycVAuA1Gpn1QFe2t5qOOj52GP5Bdtr1kiUyO7Po/b9kBhNI+sgAAD9LYta8UDtT522OPwAa9W2LQAAAAELGcyIBWhqgygAQYZzwgFdGt9KAAAAAAAAAAAAAAAAAAAAAAAAAAAAAAAAAAAAAAAAAAAAAAAMCpItkDQ63naAAmGkzWQNlraNoAAAAAcNEi2c1IALLtbXXg5IBMgVWaowoHz1s8SoOTV+iFoTzSTrI5bW/zXzmsesAA8kfRq3BRniNBWZqhCiWCTgZHOC3Ba+dZjtwAe6n0UN/Nwx4kFe2t5qMUJGhkd0fSM366fOkx+AuE1qxRhNI+sgAAfpRxqqKgASYZnwgAsQ1uZQAAAAIWM5kQCtDVBlAAgwznhAK6Nb6UAAAAAAAAAAAAAAAAAAAAAAAAAAAAAAAAAAAAAAAAAAAAAAAYFSRbIGh1vO0ABMNJmsgbLW0bQAAAAAHZkuknEyBpBbvNcHJAJkCqzVGFA+etniVByav0QtCeaSdZHIR9Fjce2cKoANdLbRr51GOPAVmaoQolgk4GRywv0LNQzZy6gA38tYWvmoY7cFe2t5qJLMz6QezlDWvwm8z40FMWqeqMJpH1kD2U8QdiDkNfoea70AAzGkLWQPIn0ZN+1gAAAAELGcyIBWhqgygAQYZzwgFdGt9KAAAAAAAAAAAAAAAAAAAAAAAAAAAAAAAAAAAAAAAAAAAAAAAMCpItkDQ63naAAmGkzWQNlraNoAAAZaT1cHnDWKjokHGc9IPLn0oN8MJ8/wCyBUdqk6gfPCxxeDlZfoYaE80k6yPaj6RG8qJDxkAWga2cvzeMeqArM1QhRLBJwMjkA+i5vDiR0ZAF1mueF+bJj8BXtreaiAjPBiAAADTy3QaGE0j6yP5Pozbx6kkGQLFNbkUADtD5xmPVQalW5LQAAAAAhYzmRAK0NUGUACDDOeEAro1vpQAAAAAAAAAAAAAAAAAAAAAAAAAAAAAAAAAAAAAAAAAAAAAABgVJFsgaHW87QAEw0mayBstbRtAAACF7OYUHsp9GrflARSZx8g7s+lZv1g+cZj8BrtbZtD0Q+ddjtAaTW7bQnmknWR5c+lRvtj53WPRQe6H0RN+RPmrY8MCszVCFEsEnAyPal+kRrwp87DHrAOSV+hdr1Q+cNj9BXtrea+qnzhMdAAAAHmj6Qm/JGE0j6yP5Pozb9nPnoY4+BzGv0Atd0AAfOqzx2g2Otp2gAAAABCxnMiAVoaoMoAEGGc8IBXRrfSgAAAAAAAAAAAAAAAAAAAAAAAAAAAAAAAAAAAAAAAAAAAAAADAqSLZA0Ot52gAJhpM1kDZa2jaAAAEn2Z4oBr9dorwqThZ7cHMB9Bzf8nz5s8PoP03MvOK4iTgRAKRNVMUTzSTrI8ov0rNdQ7E/kH9HfH4fNSz4hBWZqhCiWCTgZHsy/SQ0OwPwH9HfHpJ84zH6CvbW81ySkR2QOUjvQeLONAC8bWi1wmkfWR/J9GbfvpOhJUMgWXa2uoAHzqs8doNjradoAAAAAQsZzIgFaGqDKABBhnPCAV0a30oAAAAAAAAAAAAAAAAAAAAAAAAAAAAAAAAAAAAAAAAAAAAAAAwKki2QNDredoACYaTNZA2Wto2gAABwAkFGemAAACo7VJ1E9Uk2yAAAPIn0CN8sgnmknWR5RfpWa6gAAPw+alnxCCszVCFEsEnAyPZl+khoAAD0k+cZj9BXtreay4SbDI7k+kdvzwOPj502PwFUWqOrhNI+sj+T6M2/fT18+eNj00HNy34a7gAHzqs8doNjradoAAAAAQsZzIgFaGqDKABBhnPCAV0a30oAAAAAAAAAAAAAAAAAAAAAAAAAAAAAAAAAAAAAAAAAAAAAAAwKki2QNDredoACYaTNZA2Wto2gAAAJgJNBkAADUq22a8mDsiLzOP0AAHVK4Nb5UCeaSdZHlF+lZrqAAA/D5qWfEIKzNUIUSwScDI9mX6SGgAAPST5xmP0Fe2t5rCVnNaDmhfoGaA/g+dJj0EGvltg1hNI+sj+T6M2/fQTRSX7IFpWtkqAPnVZ47QbHW07QAAAAAhYzmRAK0NUGUACDDOeEAro1vpQAAAAAAAAAAAAAAAAAAAAAAAAAAAAAAAAAAAAAAAAAAAAAABgVJFsgaHW87QAEw0mayBstbRtAAAAfhi5J1pwEnZnWOYzeDVBl8gADsifqYGTh1OkeTNJrShdQqAMYJPRB5AuM11AAAfhDZnx4KHrstRP5MTIPOlvWgAAPUiKLP6Cj66wWIjPiwahWnKgCUqZ/Qe3lqWslpNtALUNe5A9VItM9oDnYrI0AIss+lg0stRFAAAAAELGcyIBWhqgygAQYZzwgFdGt9KAAAAAAAAAAAAAAAAAAAAAAAAAAAAAAAAAAAAAAAAAAAAAAAMCpItkDQ63naAAmGkzWQNlraNoAAAAAeLPXDzh5sAAAAHgjwx7Od+AAAAAAAAAAAAAAAAAAAAAAAAAAAAAAAAAAAAAAAAAACFjOZEArQ1QZQAIMM54QCujW+lAAAAAAAAAAAAAAAAAAAAAAAAAAAAAAAAAAAAAAAAAAAAAAAGBUkWyBodbztAATDSZrIGy1tG0AAAAAAAAAAAAAAAAAAAAAAAAAAAAAAAAAAAAAAAAAAAAAAAAAAAAAAAAIWM5kQCtDVBlAAgwznhAK6Nb6UAAAAAAAAAAAAAAAAAAAAAAAAAAAAAAAAAAAAAAAAAAAAAAAYFSRbIGh1vO0ABMNJmsgbLW0bQAAAAAAAAAAAAAAAAAAAAAAAAAAAAAAAAAAAAAAAAAAAAAAAAAAAAAAAAhYzmRAK0NUGUACDDOeEAro1vpQAAAAAAAAAAAAAAAAAAAAAAAAAAAAAAAAAAAAAAAAAAAAAABgVJFsgaHW87QAEw0mayBstbRtAAAAAAAAAAAAAAAAAAAAAAAAAAAAAAAAAAAAAAAAAAAAAAAAAAAAAAAACFjOZEArQ1QZQAIMM54QCujW+lAAAAAAAAAAAAAAAAAAAAAAAAAAAAAAAAAAAAAAAAAAAAAAAGBUkWyBodbztAATDSZrIGy1tG0AAAAAAAAAAAAAAAAAAAAAAAAAAAAAAAAAAAAAAAAAAAAAAAAAAAAAAAAIWM5kQCtDVBlAAgwznhAK6Nb6UAAAAAAAAAAAAAAAAAAAAAAAAAAAAAAAAAAAAAAAAAAAAAAAYFSRbIGh1vO0ABMNJmsgbLW0bQAAAAAAAAAAAAAAAAAAAAAAAAAAAAAAAAAAAAAAAAAAAAAAAAAAAAAAAAhYzmRAK0NUGUACDDOeEAro1vpQAAAAAAAAAAAAAAAAAAAAAAAAAAAAAAAAAAAAAAAAAAAAAABgVJFsgaHW87QAEw0mayBstbRtAAAAAAAAAAAAAAAAAAAAAAAAAAAAAAAAAAAAAAAAAAAAAAAAAAAAAAAACFjOZEArQ1QZQAIMM54QCujW+lAAAAAAAAAAAAAAAAAAAAAAAAAAAAAAAAAAAAAAAAAAAAAAAGBUkWyBodbztAATDSZrIGy1tG0AAAAAAAAAAAAAAAAAAAAAAAAAAAAAAAAAAAAAAAAAAAAAAAAAAAAAAAAIWM5kQCtDVBlAAgwznhAK6Nb6UAAAAAAAAAAAAAAAAAAAAAAAAAAAAAAAAAAAAAAAAAAAAAAAYFSRbIGh1vO0ABMNJmsgbLW0bQAAAAAAAAAAAAAAAAAAAAAAAAAAAAAAAAAAAAAAAAAAAAAAAAAAAAAAAAhYzmRAK0NUGUACDDOeEAro1vpQAAAAAAAAAAAAAAAAAAAAAAAAAAAAAAAAAAAAAAAAAAAAAABgVJFsgaHW87QAEw0mayBstbRtAAAAAAAAAAAAAAAAAAAAAAAAAAAAAAAAAAAAAAAAAAAAAAAAAAAAAAAACFjOZEArQ1QZQAIMM54QCujW+lAAAAAAAAAAAAAAAAAAAAAAAAAAAAAAAAAAAAAAAAAAAAAAAGBUkWyBodbztAATDSZrIGy1tG0AAAAAAAAAAAAAAAAAAAAAAAAAAAAAAAAAAAAAAAAAAAAAAAAAAAAAAAAIWM5kQCtDVBlAAgwznhAK6Nb6UAAAAAAAAAAAAAAAAAAAAAAAAAAAAAAAAAAAAAAAAAAAAAAAYFSRbIGh1vO0ABMNJmsgbLW0bQAAAA4YTgk/AAAcgGl164AAO0Mvp6YAAAAAAAAAAAAAAAAAAAAAAAAAAAAAAAAAAAADqGg15XAAAABCxnMiAVoaoMoAEGGc8IBXRrfSgAAAAAAAAAAAAAAAAAAAAAAAAAAAAAAAAAAAAAAAAAAAAAADAqSLZA0Ot52gAJhpM1kDZa2jaAAAAxykX2e3AAABQVa0tAACNLOJ0AAAAAAAAAAAAAAAAAAAAAAAAAAAAAAAAAAAAAHkS4TWm1AAAAhYzmRAK0NUGUACDDOeEAro1vpQAAAAAAAAAAAAAAAAAAAAAAAAAAAAAAAAAAAAAAAAAAAAAABgVJFsgaHW87QAEw0mayBstbRtAAAAREZyYgAAAHkD6UW+9AB6ofN8x/IAAAAAAAAAAAAAAAAAAAAAAAAAAAAAAAAAAAAABudbDtAAAAQsZzIgFaGqDKABBhnPCAV0a30oAAAAAAAAAAAAAAAAAAAAAAAAAAAAAAAAAAAAAAAAAAAAAAAwKki2QNDredoACYaTNZA2Wto2gAAAJMMz4QAAADlxfoOa6gAOxPnXY9HAAAAAAAAAAAAAAAAAAAAAAAAAAAAAAAAAAAAAAKdNU0UAAACFjOZEArQ1QZQAIMM54QCujW+lAAAAAAAAAAAAAAAAAAAAAAAAAAAAAAAAAAAAAAAAAAAAAAAGBUkWyBodbztAATDSZrIGy1tG0AAAB6sSkZ4EP5AAB76VNa53AABnBJfJ6cAAAAAAAAAAAAAAAAAAAAAAAAAAAAAAAAAAAAD+zSZVBrzYAAABCxnMiAVoaoMoAEGGc8IBXRrfSgAAAAAAAAAAAAAAAAAAAAAAAAAAAAAAAAAAAAAAAAAAAAAADAqSLZA0Ot52gAJhpM1kDZa2jaAAAAAAAAAAAAAAAAAAAAAAAAAAAAAAAAAAAAAAAAAAAAAAAAAAAAAAAAELGcyIBWhqgygAQYZzwgFdGt9KAAAAAAAAAAAAAAAAAAAAAAAAAAAAAAAAAAAAAAAAAAAAAAAMCpItkDQ63naAAmGkzWQNlraNoAAAAAAAAAAAAAAAAAAAAAAAAAAAAAAAAAAAAAAAAAAAAAAAAAAAAAAAAQsZzIgFaGqDKABBhnPCAV0a30oAAAAAAAAAAAAAAAAAAAAAAAAAAAAAAAAAAAAAAAAAAAAAAAwKki2QNDredoACYaTNZA2Wto2gAAAAAAAAAAAAAAAAAAAAAAAAAAAAAAAAAAAAAAAAAAAAAAAAAAAAAAABCxnMiAVoaoMoAEGGc8IBXRrfSgAAAAAAAAAAAAAAAAAAAAAAAAAAAAAAAAAAAAAAAAAAAAAADAqSLZA0Ot52gAJhpM1kDZa2jaAAAAAAAAAAAAAAAAAAAAAAAAAAAAAAAAAAAAAAAAAAAAAAAAAAAAAAAAELGcyIBWhqgygAQYZzwgFdGt9KAAAAAAAAAAAAAAAAAAAAAAAAAAAAAAAAAAAAAAAAAAAAAAAMCpItkDQ63naAAmGkzWQNlraNoAAAD14lyzwEfyAAD34qG1zKAADgNJkJ6YAAAAAAAAAAAAAAAAAAAAAAAAAAAAAAAAAAAADqGk1p6vkgAAACFjOZEArQ1QZQAIMM54QCujW+lAAAAAAAAAAAAAAAAAAAAAAAAAAAAAAAAAAAAAAAAAAAAAAAGBUkWyBodbztAATDSZrIGy1tG0AAABKRmdiAAAAczr9AjX9gA7M+d9jj0AAAAAAAAAAAAAAAAAAAAAAAAAAAAAAAAAAAAAAqM1ShQAAAIWM5kQCtDVBlAAgwznhAK6Nb6UAAAAAAAAAAAAAAAAAAAAAAAAAAAAAAAAAAAAAAAAAAAAAAAYFSRbIGh1vO0ABMNJmsgbLW0bQAAAEQmcnIAAAB3x9KbfegA9SPm/Y/AAAAAAAAAAAAAAAAAAAAAAAAAAAAAAAAAAAAAADcq2JaAAAAhYzmRAK0NUGUACDDOeEAro1vpQAAAAAAAAAAAAAAAAAAAAAAAAAAAAAAAAAAAAAAAAAAAAAABgVJFsgaHW87QAEw0mayBstbRtAAAAYoSNjPTAAABu9a/tAACKbOPUAAAAAAAAAAAAAAAAAAAAAAAAAAAAAAAAAAAAAHdluGtVqAAABCxnMiAVoaoMoAEGGc8IBXRrfSgAAAAAAAAAAAAAAAAAAAAAAAAAAAAAAAAAAAAAAAAAAAAAADAqSLZA0Ot52gAJhpM1kDZa2jaAAAAHACcDH4AAD341gvdgAA7AyMnpwAAAAAAAAAAAAAAAAAAAAAAAAAAAAAAAAAAAAP7NFLzYAAAACFjOZEArQ1QZQAIMM54QCujW+lAAAAAAAAAAAAAAAAAAAAAAAAAAAAAAAAAAAAAAAAAAAAAAAGBUkWyBodbztAATDSZrIGy1tG0AAAAAAAAAAAAAAAAAAAAAAAAAAAAAAAAAAAAAAAAAAAAAAAAAAAAAAAAIWM5kQCtDVBlAAgwznhAK6Nb6UAAAAAAAAAAAAAAAAAAAAAAAAAAAAAAAAAAAAAAAAAAAAAAAYFSRbIGh1vO0ABMNJmsgbLW0bQAAAAAAAAAAAAAAAAAAAAAAAAAAAAAAAAAAAAAAAAAAAAAAAAAAAAAAAAhYzmRAK0NUGUACDDOeEAro1vpQAAAAAAAAAAAAAAAAAAAAAAAAAAAAAAAAAAAAAAAAAAAAAABgVJFsgaHW87QAEw0mayBstbRtAAAAAAAAAAAAAAAAAAAAAAAAAAAAAAAAAAAAAAAAAAAAAAAAAAAAAAAACFjOZEArQ1QZQAIMM54QCujW+lAAAAAAAAAAAAAAAAAAAAAAAAAAAAAAAAAAAAAAAAAAAAAAAGBUkWyBodbztAATDSZrIGy1tG0AAAAPHnoB/IAAPbz2IAAAHq56qfoAAAAAAAAAAAAAAAAAAAAAAAAAAAAAAAAAAAB1DkE7wAAAAELGcyIBWhqgygAQYZzwgFdGt9KAAAAAAAAAAAAAAAAAAAAAAAAAAAAAAAAAAAAAAAAAAAAAAAMCpItkDQ63naAAmGkzWQNlraNoAAADgkiOxx+AAAeSKzNb2UAATiSXLPaAAAAAAAAAAAAAAAAAAAAAAAAAAAAAAAAAAAAAHKhcFvlkAAAAhYzmRAK0NUGUACDDOeEAro1vpQAAAAAAAAAAAAAAAAAAAAAAAAAAAAAAAAAAAAAAAAAAAAAABgVJFsgaHW87QAEw0mayBstbRtAAAARdZxmgAAAHsx9H7fcgA8CfN8x2AAAAAAAAAAAAAAAAAAAAAAAAAAAAAAAAAAAAAABQBa3NAAAAQsZzIgFaGqDKABBhnPCAV0a30oAAAAAAAAAAAAAAAAAAAAAAAAAAAAAAAAAAAAAAAAAAAAAAAwKki2QNDredoACYaTNZA2Wto2gAAAI0M4oQAAAD28+jdvuAAeFPnAY8UAAAAAAAAAAAAAAAAAAAAAAAAAAAAAAAAAAAAAAUKWsjQAAAELGcyIBWhqgygAQYZzwgFdGt9KAAAAAAAAAAAAAAAAAAAAAAAAAAAAAAAAAAAAAAAAAAAAAAAMCpItkDQ63naAAmGkzWQNlraNoAAADh0imzw+gAAHs5XJraqgADA6SmZ8EAAAAAAAAAAAAAAAAAAAAAAAAAAAAAAAAAAAAD9Od1ti1yKAAAAQsZzIgFaGqDKABBhnPCAV0a30oAAAAAAAAAAAAAAAAAAAAAAAAAAAAAAAAAAAAAAAAAAAAAAAwKki2QNDredoACYaTNZA2Wto2gAAAB0TwYAAB5U70AAAHYHjAAAAAAAAAAAAAAAAAAAAAAAAAAAAAAAAAAAAAfp54/sAAAAELGcyIBWhqgygAQYZzwgFdGt9KAAAAAAAAAAAAAAAAAAAAAAAAAAAAAAAAAAAAAAAAAAAAAAAMCpItkDQ63naAAmGkzWQNlraNoAAAAAAAAAAAAAAAAAAAAAAAAAAAAAAAAAAAAAAAAAAAAAAAAAAAAAAAAQsZzIgFaGqDKABBhnPCAV0a30oAAAAAAAAAAAAAAAAAAAAAAAAAAAAAAAAAAAAAAAAAAAAAAAwKki2QNDredoACYaTNZA2Wto2gAAAAAAAAAAAAAAAAAAAAAAAAAAAAAAAAAAAAAAAAAAAAAAAAAAAAAAABCxnMiAVoaoMoAEGGc8IBXRrfSgAAAAAAAAAAAAAAAAAAAAAAAAAAAAAAAAAAAAAAAAAAAAAADAqSLZA0Ot52gAJhpM1kDZa2jaAAAAAAAAAAAAAAAAAAAAAAAAAAAAAAAAAAAAAAAAAAAAAAAAAAAAAAAAELGcyIBWhqgygAQYZzwgFdGt9KAAAAAAAAAAAAAAAAAAAAAAAAAAAAAAAAAAAAAAAAAAAAAAAMCpItkDQ63naAAmGkzWQNlraNoAAAAZYTgYAAA96NqL5IAAHgjFSeogAAAAAAAAAAAAAAAAAAAAAAAAAAAAAAAAAAAA/TR5pBQAAABCxnMiAVoaoMoAEGGc8IBXRrfSgAAAAAAAAAAAAAAAAAAAAAAAAAAAAAAAAAAAAAAAAAAAAAADAqSLZA0Ot52gAJhpM1kDZa2jaAAAAwYkhWfwAAAG0Vs60AB/BDhnLaAAAAAAAAAAAAAAAAAAAAAAAAAAAAAAAAAAAAADqFqGthKAAABCxnMiAVoaoMoAEGGc8IBXRrfSgAAAAAAAAAAAAAAAAAAAAAAAAAAAAAAAAAAAAAAAAAAAAAADAqSLZA0Ot52gAJhpM1kDZa2jaAAAAh8zlJAAAAO7PpWb70AHqB84DAAAAAAAAAAAAAAAAAAAAAAAAAAAAAAAAAAAAAAA3EtjGgAAAIWM5kQCtDVBlAAgwznhAK6Nb6UAAAAAAAAAAAAAAAAAAAAAAAAAAAAAAAAAAAAAAAAAAAAAAAYFSRbIGh1vO0ABMNJmsgbLW0bQAAAEtUm2yAAABz2t8Wv6AB2p897HFYAAAAAAAAAAAAAAAAAAAAAAAAAAAAAAAAAAAAABVpqiigAAAQsZzIgFaGqDKABBhnPCAV0a30oAAAAAAAAAAAAAAAAAAAAAAAAAAAAAAAAAAAAAAAAAAAAAAAwKki2QNDredoACYaTNZA2Wto2gAAAPFE2E4FQAAD3kpc1yeAADhwm0z6iAAAAAAAAAAAAAAAAAAAAAAAAAAAAAAAAAAAAD+zRy0YXvQAAACFjOZEArQ1QZQAIMM54QCujW+lAAAAAAAAAAAAAAAAAAAAAAAAAAAAAAAAAAAAAAAAAAAAAAAGBUkWyBodbztAATDSZrIGy1tG0AAAAAAAAAAAAAAAAAAAAAAAAAAAAAAAAAAAAAAAAAAAAAAAAAAAAAAAAIWM5kQCtDVBlAAgwznhAK6Nb6UAAAAAAAAAAAAAAAAAAAAAAAAAAAAAAAAAAAAAAAAAAAAAAAYFSRbIGh1vO0ABMNJmsgbLW0bQAAAAAAAAAAAAAAAAAAAAAAAAAAAAAAAAAAAAAAAAAAAAAAAAAAAAAAAAhYzmRAK0NUGUACDDOeEAro1vpQAAAAAAAAAAAAAAAAAAAAAAAAAAAAAAAAAAAAAAAAAAAAAABgVJFsgaHW87QAEw0mayBstbRtAAAAAAAAAAAAAAAAAAAAAAAAAAAAAAAAAAAAAAAAAAAAAAAAAAAAAAAACFjOZEArQ1QZQAIMM54QCujW+lAAAAAAAAAAAAAAAAAAAAAAAAAAAAAAAAAAAAAAAAAAAAAAAGBUkWyBodbztAATDSZrIGy1tG0AAAAAAAAAAAAAAAAAAAAAAAAAAAAAAAAAAAAAAAAAAAAAAAAAAAAAAAAIWM5kQCtDVBlAAgwznhAK6Nb6UAAAAAAAAAAAAAAAAAAAAAAAAAAAAAAAAAAAAAAAAAAAAAAAYFSRbIGh1vO0ABMNJmsgbLW0bQAAAHrJKtngM/hAAC8gFSGucQAAZ3SYKemIAAAAAAAAAAAAAAAAAAAAAAAAAAAAAAAAAAAAOqukypDXmQAAACFjOZEArQ1QZQAIMM54QCujW+lAAAAAAAAAAAAAAAAAAAAAAAAAAAAAAAAAAAAAAAAAAAAAAAGBUkWyBodbztAATDSZrIGy1tG0AAABJxJ6MgAAAcwL9BTXUAB2R87THoYAAAAAAAAAAAAAAAAAAAAAAAAAAAAAAAAAAAAABT5qmCgAAAQsZzIgFaGqDKABBhnPCAV0a30oAAAAAAAAAAAAAAAAAAAAAAAAAAAAAAAAAAAAAAAAAAAAAAAwKki2QNDredoACYaTNZA2Wto2gAAAIiM5MQAAADvz6Um+9AB6mfN+x/IAAAAAAAAAAAAAAAAAAAAAAAAAAAAAAAAAAAAABudbDtAAAAQsZzIgFaGqDKABBhnPCAV0a30oAAAAAAAAAAAAAAAAAAAAAAAAAAAAAAAAAAAAAAAAAAAAAAAwKki2QNDredoACYaTNZA2Wto2gAAAMZpGRnoAAAA36tcWgABGJnFyAAAAAAAAAAAAAAAAAAAAAAAAAAAAAAAAAAAAADvy37WoFAAAAhYzmRAK0NUGUACDDOeEAro1vpQAAAAAAAAAAAAAAAAAAAAAAAAAAAAAAAAAAAAAAAAAAAAAABgVJFsgaHW87QAEw0mayBstbRtAAAADhA4KT8AAB76afXuQAAdkZYT04AAAAAAAAAAAAAAAAAAAAAAAAAAAAAAAAAAAAHUNBry8AAAACFjOZEArQ1QZQAIMM54QCujW+lAAAAAAAAAAAAAAAAAAAAAAAAAAAAAAAAAAAAAAAAAAAAAAAGBUkWyBodbztAATDSZrIGy1tG0AAAAAAAAAAAAAAAAAAAAAAAAAAAAAAAAAAAAAAAAAAAAAAAAAAAAAAAAIWM5kQCtDVBlAAgwznhAK6Nb6UAAAAAAAAAAAAAAAAAAAAAAAAAAAAAAAAAAAAAAAAAAAAAAAYFSRbIGh1vO0ABMNJmsgbLW0bQAAAAAAAAAAAAAAAAAAAAAAAAAAAAAAAAAAAAAAAAAAAAAAAAAAAAAAAAhYzmRAK0NUGUACDDOeEAro1vpQAAAAAAAAAAAAAAAAAAAAAAAAAAAAAAAAAAAAAAAAAAAAAABgVJFsgaHW87QAEw0mayBstbRtAAAAAAAAAAAAAAAAAAAAAAAAAAAAAAAAAAAAAAAAAAAAAAAAAAAAAAAACFjOZEArQ1QZQAIMM54QCujW+lAAAAAAAAAAAAAAAAAAAAAAAAAAAAAAAAAAAAAAAAAAAAAAAGBUkWyBodbztAATDSZrIGy1tG0AAAAPTDh8/AAD8PfDlkAAAHDZ6cfoAAAAAAAAAAAAAAAAAAAAAAAAAAAAAAAAAAAB/RzSe0gAAAAhYzmRAK0NUGUACDDOeEAro1vpQAAAAAAAAAAAAAAAAAAAAAAAAAAAAAAAAAAAAAAAAAAAAAABgVJFsgaHW87QAEw0mayBstbRtAAAAZkSJDPgwAAD+ynrVLlAAEpmZ1p+AAAAAAAAAAAAAAAAAAAAAAAAAAAAAAAAAAAAAHtZcxrndQAAAIWM5kQCtDVBlAAgwznhAK6Nb6UAAAAAAAAAAAAAAAAAAAAAAAAAAAAAAAAAAAAAAAAAAAAAAAYFSRbIGh1vO0ABMNJmsgbLW0bQAAAET2cgoAAAB5k+kpvuwAetHzeMdEAAAAAAAAAAAAAAAAAAAAAAAAAAAAAAAAAAAAAA3ktfGgAAAIWM5kQCtDVBlAAgwznhAK6Nb6UAAAAAAAAAAAAAAAAAAAAAAAAAAAAAAAAAAAAAAAAAAAAAAAYFSRbIGh1vO0ABMNJmsgbLW0bQAAAEfWcJoAAAByGfRK31gAeLPnJY9bAAAAAAAAAAAAAAAAAAAAAAAAAAAAAAAAAAAAAAKPtVPUAAACFjOZEArQ1QZQAIMM54QCujW+lAAAAAAAAAAAAAAAAAAAAAAAAAAAAAAAAAAAAAAAAAAAAAAAGBUkWyBodbztAATDSZrIGy1tG0AAABx2R4Z4CT+QAAe/LWldRqAAMfJKln0wAAAAAAAAAAAAAAAAAAAAAAAAAAAAAAAAAAAAHUNKLYRr24AAAAhYzmRAK0NUGUACDDOeEAro1vpQAAAAAAAAAAAAAAAAAAAAAAAAAAAAAAAAAAAAAAAAAAAAAABgVJFsgaHW87QAEw0mayBstbRtAAAAAAAAAAAAAAAAAAAAAAAAAAAAAAAAAAAAAAAAAAAAAAAAAAAAAAAACFjOZEArQ1QZQAIMM54QCujW+lAAAAAAAAAAAAAAAAAAAAAAAAAAAAAAAAAAAAAAAAAAAAAAAGBUkWyBodbztAATDSZrIGy1tG0AAAAAAAAAAAAAAAAAAAAAAAAAAAAAAAAAAAAAAAAAAAAAAAAAAAAAAAAIWM5kQCtDVBlAAgwznhAK6Nb6UAAAAAAAAAAAAAAAAAAAAAAAAAAAAAAAAAAAAAAAAAAAAAAAYFSRbIGh1vO0ABMNJmsgbLW0bQAAAAAAAAAAAAAAAAAAAAAAAAAAAAAAAAAAAAAAAAAAAAAAAAAAAAAAAAhYzmRAK0NUGUACDDOeEAro1vpQAAAAAAAAAAAAAAAAAAAAAAAAAAAAAAAAAAAAAAAAAAAAAABgVJFsgaHW87QAEw0mayBstbRtAAAAAAAAAAAAAAAAAAAAAAAAAAAAAAAAAAAAAAAAAAAAAAAAAAAAAAAACFjOZEArQ1QZQAIMM54QCujW+lAAAAAAAAAAAAAAAAAAAAAAAAAAAAAAAAAAAAAAAAAAAAAAAGBUkWyBodbztAATDSZrIGy1tG0AAAB2xhxOBU/QAAe9LQBfawAAejk/wBPUkAAAAAAAAAAAAAAAAAAAAAAAAAAAAAAAAAAAAH9GkF2iv8AQAAABCxnMiAVoaoMoAEGGc8IBXRrfSgAAAAAAAAAAAAAAAAAAAAAAAAAAAAAAAAAAAAAAAAAAAAAADAqSLZA0Ot52gAJhpM1kDZa2jaAAAAnEkrmQAAANSrcloADokEWeBUAAAAAAAAAAAAAAAAAAAAAAAAAAAAAAAAAAAAAAsI1upQAAAIWM5kQCtDVBlAAgwznhAK6Nb6UAAAAAAAAAAAAAAAAAAAAAAAAAAAAAAAAAAAAAAAAAAAAAAAYFSRbIGh1vO0ABMNJmsgbLW0bQAAAEPGcqIAAAB3J9K7ffAA9OPnCYAAAAAAAAAAAAAAAAAAAAAAAAAAAAAAAAAAAAAAG4Fsc0AAABCxnMiAVoaoMoAEGGc8IBXRrfSgAAAAAAAAAAAAAAAAAAAAAAAAAAAAAAAAAAAAAAAAAAAAAADAqSLZA0Ot52gAJhpM1kDZa2jaAAAAm2ktWQAAANPLdBoADokC2eC0AAAAAAAAAAAAAAAAAAAAAAAAAAAAAAAAAAAAAAr81vBQAAAIWM5kQCtDVBlAAgwznhAK6Nb6UAAAAAAAAAAAAAAAAAAAAAAAAAAAAAAAAAAAAAAAAAAAAAAAYFSRbIGh1vO0ABMNJmsgbLW0bQAAAHamEU4GQAAD3laEr7eAAD0InynqKAAAAAAAAAAAAAAAAAAAAAAAAAAAAAAAAAAAAD+jSK7bX+wAAACFjOZEArQ1QZQAIMM54QCujW+lAAAAAAAAAAAAAAAAAAAAAAAAAAAAAAAAAAAAAAAAAAAAAAAGBUkWyBodbztAATDSZrIGy1tG0AAAAAAAAAAAAAAAAAAAAAAAAAAAAAAAAAAAAAAAAAAAAAAAAAAAAAAAAIWM5kQCtDVBlAAgwznhAK6Nb6UAAAAAAAAAAAAAAAAAAAAAAAAAAAAAAAAAAAAAAAAAAAAAAAYFSRbIGh1vO0ABMNJmsgbLW0bQAAAAAAAAAAAAAAAAAAAAAAAAAAAAAAAAAAAAAAAAAAAAAAAAAAAAAAAAhYzmRAK0NUGUACDDOeEAro1vpQAAAAAAAAAAAAAAAAAAAAAAAAAAAAAAAAAAAAAAAAAAAAAABgVJFsgaHW87QAEw0mayBstbRtAAAAAAAAAAAAAAAAAAAAAAAAAAAAAAAAAAAAAAAAAAAAAAAAAAAAAAAACFjOZEArQ1QZQAIMM54QCujW+lAAAAAAAAAAAAAAAAAAAAAAAAAAAAAAAAAAAAAAAAAAAAAAAGBUkWyBodbztAATDSZrIGy1tG0AAAAAAAAAAAAAAAAAAAAAAAAAAAAAAAAAAAAAAAAAAAAAAAAAAAAAAAAIWM5kQCtDVBlAAgwznhAK6Nb6UAAAAAAAAAAAAAAAAAAAAAAAAAAAAAAAAAAAAAAAAAAAAAAAYFSRbIGh1vO0ABMNJmsgbLW0bQAAAHoJH5ngJP5AAB78tZV02oAAyOkq09NQAAAAAAAAAAAAAAAAAAAAAAAAAAAAAAAAAAAAdRdKFfWvaQAAACFjOZEArQ1QZQAIMM54QCujW+lAAAAAAAAAAAAAAAAAAAAAAAAAAAAAAAAAAAAAAAAAAAAAAAGBUkWyBodbztAATDSZrIGy1tG0AAABIJnByAAAAcjL9ETXWAB4w+ctj1gAAAAAAAAAAAAAAAAAAAAAAAAAAAAAAAAAAAAAApG1UtQAAAIWM5kQCtDVBlAAgwznhAK6Nb6UAAAAAAAAAAAAAAAAAAAAAAAAAAAAAAAAAAAAAAAAAAAAAAAYFSRbIGh1vO0ABMNJmsgbLW0bQAAAETWchoAAAB5c+kxvuwAetHzeMdEAAAAAAAAAAAAAAAAAAAAAAAAAAAAAAAAAAAAAA3gtfmgAAAIWM5kQCtDVBlAAgwznhAK6Nb6UAAAAAAAAAAAAAAAAAAAAAAAAAAAAAAAAAAAAAAAAAAAAAAAYFSRbIGh1vO0ABMNJmsgbLW0bQAAAGXUiWz4cAAA/opo1ThQABJtmeqAAAAAAAAAAAAAAAAAAAAAAAAAAAAAAAAAAAAAD2YuW1z6oAAAELGcyIBWhqgygAQYZzwgFdGt9KAAAAAAAAAAAAAAAAAAAAAAAAAAAAAAAAAAAAAAAAAAAAAAAMCpItkDQ63naAAmGkzWQNlraNoAAAAeinDCfwAADkFeYwAAD+ThE9LQAAAAAAAAAAAAAAAAAAAAAAAAAAAAAAAAAAAAdY5vX28AAAAELGcyIBWhqgygAQYZzwgFdGt9KAAAAAAAAAAAAAAAAAAAAAAAAAAAAAAAAAAAAAAAAAAAAAAAMCpItkDQ63naAAmGkzWQNlraNoAAAAAAAAAAAAAAAAAAAAAAAAAAAAAAAAAAAAAAAAAAAAAAAAAAAAAAAAQsZzIgFaGqDKABBhnPCAV0a30oAAAAAAAAAAAAAAAAAAAAAAAAAAAAAAAAAAAAAAAAAAAAAAAwKki2QNDredoACYaTNZA2Wto2gAAAAAAAAAAAAAAAAAAAAAAAAAAAAAAAAAAAAAAAAAAAAAAAAAAAAAAABCxnMiAVoaoMoAEGGc8IBXRrfSgAAAAAAAAAAAAAAAAAAAAAAAAAAAAAAAAAAAAAAAAAAAAAADAqSLZA0Ot52gAJhpM1kDZa2jaAAAAAAAAAAAAAAAAAAAAAAAAAAAAAAAAAAAAAAAAAAAAAAAAAAAAAAAAELGcyIBWhqgygAQYZzwgFdGt9KAAAAAAAAAAAAAAAAAAAAAAAAAAAAAAAAAAAAAAAAAAAAAAAMCpItkDQ63naAAmGkzWQNlraNoAAAAcNJwYfgAAPfTSq9cAAHaGYU9PAAAAAAAAAAAAAAAAAAAAAAAAAAAAAAAAAAAAB/ZoFeVQAAAAQsZzIgFaGqDKABBhnPCAV0a30oAAAAAAAAAAAAAAAAAAAAAAAAAAAAAAAAAAAAAAAAAAAAAAAwKki2QNDredoACYaTNZA2Wto2gAAAMdpF5ntgAAAUFWtLQAAjUziZAAAAAAAAAAAAAAAAAAAAAAAAAAAAAAAAAAAAAB5IuE1ppQAAAIWM5kQCtDVBlAAgwznhAK6Nb6UAAAAAAAAAAAAAAAAAAAAAAAAAAAAAAAAAAAAAAAAAAAAAAAYFSRbIGh1vO0ABMNJmsgbLW0bQAAAERWcloAAAB5A+lFvvQAeqHzfMfyAAAAAAAAAAAAAAAAAAAAAAAAAAAAAAAAAAAAAAbpWwrQAAAELGcyIBWhqgygAQYZzwgFdGt9KAAAAAAAAAAAAAAAAAAAAAAAAAAAAAAAAAAAAAAAAAAAAAAAMCpItkDQ63naAAmGkzWQNlraNoAAACS6T5ZAAAA5bPoPb6gAOwPnYY9HAAAAAAAAAAAAAAAAAAAAAAAAAAAAAAAAAAAAAAKctU1UAAACFjOZEArQ1QZQAIMM54QCujW+lAAAAAAAAAAAAAAAAAAAAAAAAAAAAAAAAAAAAAAAAAAAAAAAGBUkWyBodbztAATDSZrIGy1tG0AAAB6qSiZ4CP4QAAvIJVBrnYAAGb0l6npQQAAAAAAAAAAAAAAAAAAAAAAAAAAAAAAAAAAADqrpUqk15sAAAAhYzmRAK0NUGUACDDOeEAro1vpQAAAAAAAAAAAAAAAAAAAAAAAAAAAAAAAAAAAAAAAAAAAAAABgVJFsgaHW87QAEw0mayBstbRtAAAAAAAAAAAAAAAAAAAAAAAAAAAAAAAAAAAAAAAAAAAAAAAAAAAAAAAACFjOZEArQ1QZQAIMM54QCujW+lAAAAAAAAAAAAAAAAAAAAAAAAAAAAAAAAAAAAAAAAAAAAAAAGBUkWyBodbztAATDSZrIGy1tG0AAAAAAAAAAAAAAAAAAAAAAAAAAAAAAAAAAAAAAAAAAAAAAAAAAAAAAAAIWM5kQCtDVBlAAgwznhAK6Nb6UAAAAAAAAAAAAAAAAAAAAAAAAAAAAAAAAAAAAAAAAAAAAAAAYFSRbIGh1vO0ABMNJmsgbLW0bQAAAAAAAAAAAAAAAAAAAAAAAAAAAAAAAAAAAAAAAAAAAAAAAAAAAAAAAAhYzmRAK0NUGUACDDOeEAro1vpQAAAAAAAAAAAAAAAAAAAAAAAAAAAAAAAAAAAAAAAAAAAAAABgVJFsgaHW87QAEw0mayBstbRtAAAAAAAAAAAAAAAAAAAAAAAAAAAAAAAAAAAAAAAAAAAAAAAAAAAAAAAACFjOZEArQ1QZQAIMM54QCujW+lAAAAAAAAAAAAAAAAAAAAAAAAAAAAAAAAAAAAAAAAAAAAAAAGBUkWyBodbztAATDSZrIGy1tG0AAAB40nAnASfyAADkApO1ySAADiMm8z6YAAAAAAAAAAAAAAAAAAAAAAAAAAAAAAAAAAAADqmk1oavdgAAAELGcyIBWhqgygAQYZzwgFdGt9KAAAAAAAAAAAAAAAAAAAAAAAAAAAAAAAAAAAAAAAAAAAAAAAMCpItkDQ63naAAmGkzWQNlraNoAAACXqTTZAAAA0At7Wv0AHbHz5M8ToAAAAAAAAAAAAAAAAAAAAAAAAAAAAAAAAAAAAABV5qiCgAAAQsZzIgFaGqDKABBhnPCAV0a30oAAAAAAAAAAAAAAAAAAAAAAAAAAAAAAAAAAAAAAAAAAAAAAAwKki2QNDredoACYaTNZA2Wto2gAAAIfM5SQAAADuj6Vm++AB6efOCwAAAAAAAAAAAAAAAAAAAAAAAAAAAAAAAAAAAAAANwrY1oAAACFjOZEArQ1QZQAIMM54QCujW+lAAAAAAAAAAAAAAAAAAAAAAAAAAAAAAAAAAAAAAAAAAAAAAAGBUkWyBodbztAATDSZrIGy1tG0AAABgZJFs/gAAANkLaZoAD+CF7OZEAAAAAAAAAAAAAAAAAAAAAAAAAAAAAAAAAAAAAH9lo2tkKAAABCxnMiAVoaoMoAEGGc8IBXRrfSgAAAAAAAAAAAAAAAAAAAAAAAAAAAAAAAAAAAAAAAAAAAAAADAqSLZA0Ot52gAJhpM1kDZa2jaAAAA/DJqcCH8gAA9/Ntr5YAAHrxiJPTQAAAAAAAAAAAAAAAAAAAAAAAAAAAAAAAAAAAAf2aSNNqAAAAIWM5kQCtDVBlAAgwznhAK6Nb6UAAAAAAAAAAAAAAAAAAAAAAAAAAAAAAAAAAAAAAAAAAAAAAAYFSRbIGh1vO0ABMNJmsgbLW0bQAAAAAAAAAAAAAAAAAAAAAAAAAAAAAAAAAAAAAAAAAAAAAAAAAAAAAAAAhYzmRAK0NUGUACDDOeEAro1vpQAAAAAAAAAAAAAAAAAAAAAAAAAAAAAAAAAAAAAAAAAAAAAABgVJFsgaHW87QAEw0mayBstbRtAAAAAAAAAAAAAAAAAAAAAAAAAAAAAAAAAAAAAAAAAAAAAAAAAAAAAAAACFjOZEArQ1QZQAIMM54QCujW+lAAAAAAAAAAAAAAAAAAAAAAAAAAAAAAAAAAAAAAAAAAAAAAAGBUkWyBodbztAATDSZrIGy1tG0AAAAAAAAAAAAAAAAAAAAAAAAAAAAAAAAAAAAAAAAAAAAAAAAAAAAAAAAIWM5kQCtDVBlAAgwznhAK6Nb6UAAAAAAAAAAAAAAAAAAAAAAAAAAAAAAAAAAAAAAAAAAAAAAAYFSRbIGh1vO0ABMNJmsgbLW0bQAAAA/g8WAAAd8dyAAADtDswAAAAAAAAAAAAAAAAAAAAAAAAAAAAAAAAAAAAfp5Q/oAAAAELGcyIBWhqgygAQYZzwgFdGt9KAAAAAAAAAAAAAAAAAAAAAAAAAAAAAAAAAAAAAAAAAAAAAAAMCpItkDQ63naAAmGkzWQNlraNoAAADiIiyzwwn4AAD2wrm1sxQABhBJSs+ugAAAAAAAAAAAAAAAAAAAAAAAAAAAAAAAAAAAA/Tn9bVNcggAAAELGcyIBWhqgygAQYZzwgFdGt9KAAAAAAAAAAAAAAAAAAAAAAAAAAAAAAAAAAAAAAAAAAAAAAAMCpItkDQ63naAAmGkzWQNlraNoAAACNbOJUAAAA9yPo1b64APCnzhMeIAAAAAAAAAAAAAAAAAAAAAAAAAAAAAAAAAAAAAAKGtVhUAAACFjOZEArQ1QZQAIMM54QCujW+lAAAAAAAAAAAAAAAAAAAAAAAAAAAAAAAAAAAAAAAAAAAAAAAGBUkWyBodbztAATDSZrIGy1tG0AAABFpnGyAAAAexn0hN9yAD18+b5jsgAAAAAAAAAAAAAAAAAAAAAAAAAAAAAAAAAAAAADfy1waAAAAhYzmRAK0NUGUACDDOeEAro1vpQAAAAAAAAAAAAAAAAAAAAAAAAAAAAAAAAAAAAAAAAAAAAAABgVJFsgaHW87QAEw0mayBstbRtAAAAcBkRWPRwAADvisDVAFAAE2Ul+z24AAAAAAAAAAAAAAAAAAAAAAAAAAAAAAAAAAAAByYXFb5dAAAAIWM5kQCtDVBlAAgwznhAK6Nb6UAAAAAAAAAAAAAAAAAAAAAAAAAAAAAAAAAAAAAAAAAAAAAAAYFSRbIGh1vO0ABMNJmsgbLW0bQAAAA8WcegAAHtZ7WAAAD049aAAAAAAAAAAAAAAAAAAAAAAAAAAAAAAAAAAAAB/RyKd+AAAACFjOZEArQ1QZQAIMM54QCujW+lAAAAAAAAAAAAAAAAAAAAAAAAAAAAAAAAAAAAAAAAAAAAAAAGBUkWyBodbztAATDSZrIGy1tG0AAAAAAAAAAAAAAAAAAAAAAAAAAAAAAAAAAAAAAAAAAAAAAAAAAAAAAAAIWM5kQCtDVBlAAgwznhAK6Nb6UAAAAAAAAAAAAAAAAAAAAAAAAAAAAAAAAAAAAAAAAAAAAAAAYFSRbIGh1vO0ABMNJmsgbLW0bQAAAAAAAAAAAAAAAAAAAAAAAAAAAAAAAAAAAAAAAAAAAAAAAAAAAAAAAAhYzmRAK0NUGUACDDOeEAro1vpQAAAAAAAAAAAAAAAAAAAAAAAAAAAAAAAAAAAAAAAAAAAAAABgVJFsgaHW87QAEw0mayBstbRtAAAAAAAAAAAAAAAAAAAAAAAAAAAAAAAAAAAAAAAAAAAAAAAAAAAAAAAACFjOZEArQ1QZQAIMM54QCujW+lAAAAAAAAAAAAAAAAAAAAAAAAAAAAAAAAAAAAAAAAAAAAAAAGBUkWyBodbztAATDSZrIGy1tG0AAAAMspwIfyAAD382kvkgAAeCMWJ6YAAAAAAAAAAAAAAAAAAAAAAAAAAAAAAAAAAAADqGkDR6gAAACFjOZEArQ1QZQAIMM54QCujW+lAAAAAAAAAAAAAAAAAAAAAAAAAAAAAAAAAAAAAAAAAAAAAAAGBUkWyBodbztAATDSZrIGy1tG0AAABg5JBs/gAAANpLZxoAD+CHLOWkAAAAAAAAAAAAAAAAAAAAAAAAAAAAAAAAAAAAAHULUtbBUAAACFjOZEArQ1QZQAIMM54QCujW+lAAAAAAAAAAAAAAAAAAAAAAAAAAAAAAAAAAAAAAAAAAAAAAAGBUkWyBodbztAATDSZrIGy1tG0AAABD9nKKAAAAd2fSs33oAPTz5wWAAAAAAAAAAAAAAAAAAAAAAAAAAAAAAAAAAAAAABuJbGNAAAAQsZzIgFaGqDKABBhnPCAV0a30oAAAAAAAAAAAAAAAAAAAAAAAAAAAAAAAAAAAAAAAAAAAAAAAwKki2QNDredoACYaTNZA2Wto2gAAAJapNtkAAADnlb5tf0ADtT57WOLQAAAAAAAAAAAAAAAAAAAAAAAAAAAAAAAAAAAAACrLVFVAAAAhYzmRAK0NUGUACDDOeEAro1vpQAAAAAAAAAAAAAAAAAAAAAAAAAAAAAAAAAAAAAAAAAAAAAABgVJFsgaHW87QAEw0mayBstbRtAAAAeKJrJwGn8gAA9+KXtcngAA4cJrs+nAAAAAAAAAAAAAAAAAAAAAAAAAAAAAAAAAAAAA6hpJaMr3oAAABCxnMiAVoaoMoAEGGc8IBXRrfSgAAAAAAAAAAAAAAAAAAAAAAAAAAAAAAAAAAAAAAAAAAAAAADAqSLZA0Ot52gAJhpM1kDZa2jaAAAAAAAAAAAAAAAAAAAAAAAAAAAAAAAAAAAAAAAAAAAAAAAAAAAAAAAAELGcyIBWhqgygAQYZzwgFdGt9KAAAAAAAAAAAAAAAAAAAAAAAAAAAAAAAAAAAAAAAAAAAAAAAMCpItkDQ63naAAmGkzWQNlraNoAAAAAAAAAAAAAAAAAAAAAAAAAAAAAAAAAAAAAAAAAAAAAAAAAAAAAAAAQsZzIgFaGqDKABBhnPCAV0a30oAAAAAAAAAAAAAAAAAAAAAAAAAAAAAAAAAAAAAAAAAAAAAAAwKki2QNDredoACYaTNZA2Wto2gAAAAAAAAAAAAAAAAAAAAAAAAAAAAAAAAAAAAAAAAAAAAAAAAAAAAAAABCxnMiAVoaoMoAEGGc8IBXRrfSgAAAAAAAAAAAAAAAAAAAAAAAAAAAAAAAAAAAAAAAAAAAAAADAqSLZA0Ot52gAJhpM1kDZa2jaAAAAAAAAAAAAAAAAAAAAAAAAAAAAAAAAAAAAAAAAAAAAAAAAAAAAAAAAELGcyIBWhqgygAQYZzwgFdGt9KAAAAAAAAAAAAAAAAAAAAAAAAAAAAAAAAAAAAAAAAAAAAAAAMCpItkDQ63naAAmGkzWQNlraNoAAAD1olazwKn8gAA99Wo683qAAM9JMFPT0AAAAAAAAAAAAAAAAAAAAAAAAAAAAAAAAAAAAH9rpJajr5cAAAAhYzmRAK0NUGUACDDOeEAro1vpQAAAAAAAAAAAAAAAAAAAAAAAAAAAAAAAAAAAAAAAAAAAAAABgVJFsgaHW87QAEw0mayBstbRtAAAASeZnkgAAAHMK/QS11AAdkfO2x6EAAAAAAAAAAAAAAAAAAAAAAAAAAAAAAAAAAAAAAVBapaoAAAELGcyIBWhqgygAQYZzwgFdGt9KAAAAAAAAAAAAAAAAAAAAAAAAAAAAAAAAAAAAAAAAAAAAAAAMCpItkDQ63naAAmGkzWQNlraNoAAACIbOTUAAAA78+lJvvQAepnzfsfyAAAAAAAAAAAAAAAAAAAAAAAAAAAAAAAAAAAAAAbnWw7QAAAELGcyIBWhqgygAQYZzwgFdGt9KAAAAAAAAAAAAAAAAAAAAAAAAAAAAAAAAAAAAAAAAAAAAAAAMCpItkDQ63naAAmGkzWQNlraNoAAADGSRkZ6IAAAN9LXRoAARfZxigAAAAAAAAAAAAAAAAAAAAAAAAAAAAAAAAAAAAA74t81qJQAAAIWM5kQCtDVBlAAgwznhAK6Nb6UAAAAAAAAAAAAAAAAAAAAAAAAAAAAAAAAAAAAAAAAAAAAAAAYFSRbIGh1vO0ABMNJmsgbLW0bQAAAA4OOBk/AAAcgGol7kAAHZGVE9MAAAAAAAAAAAAAAAAAAAAAAAAAAAAAAAAAAAAB1DQy8wgAAAAhYzmRAK0NUGUACDDOeEAro1vpQAAAAAAAAAAAAAAAAAAAAAAAAAAAAAAAAAAAAAAAAAAAAAABgVJFsgaHW87QAEw0mayBstbRtAAAAAAAAAAAAAAAAAAAAAAAAAAAAAAAAAAAAAAAAAAAAAAAAAAAAAAAACFjOZEArQ1QZQAIMM54QCujW+lAAAAAAAAAAAAAAAAAAAAAAAAAAAAAAAAAAAAAAAAAAAAAAAGBUkWyBodbztAATDSZrIGy1tG0AAAAAAAAAAAAAAAAAAAAAAAAAAAAAAAAAAAAAAAAAAAAAAAAAAAAAAAAIWM5kQCtDVBlAAgwznhAK6Nb6UAAAAAAAAAAAAAAAAAAAAAAAAAAAAAAAAAAAAAAAAAAAAAAAYFSRbIGh1vO0ABMNJmsgbLW0bQAAAAAAAAAAAAAAAAAAAAAAAAAAAAAAAAAAAAAAAAAAAAAAAAAAAAAAAAhYzmRAK0NUGUACDDOeEAro1vpQAAAAAAAAAAAAAAAAAAAAAAAAAAAAAAAAAAAAAAAAAAAAAABgVJFsgaHW87QAEw0mayBstbRtAAAAAAAAAAAAAAAAAAAAAAAAAAAAAAAAAAAAAAAAAAAAAAAAAAAAAAAACFjOZEArQ1QZQAIMM54QCujW+lAAAAAAAAAAAAAAAAAAAAAAAAAAAAAAAAAAAAAAAAAAAAAAAGBUkWyBodbztAATDSZrIGy1tG0AAAAAAAAAAAAAAAAAAAAAAAAAAAAAAAAAAAAAAAAAAAAAAAAAAAAAAAAIWM5kQCtDVBlAAgwznhAK6Nb6UAAAAAAAAAAAAAAAAAAAAAAAAAAAAAAAAAAAAAAAAAAAAAAAYFSRbIGh1vO0ABMNJmsgbLW0bQAAAAAAAAAAAAAAAAAAAAAAAAAAAAAAAAAAAAAAAAAAAAAAAAAAAAAAAAhYzmRAK0NUGUACDDOeEAro1vpQAAAAAAAAAAAAAAAAAAAAAAAAAAAAAAAAAAAAAAAAAAAAAABgVJFsgaHW87QAEw0mayBstbRtAAAAAAAAAAAAAAAAAAAAAAAAAAAAAAAAAAAAAAAAAAAAAAAAAAAAAAAACFjOZEArQ1QZQAIMM54QCujW+lAAAAAAAAAAAAAAAAAAAAAAAAAAAAAAAAAAAAAAAAAAAAAAAGBUkWyBodbztAATDSZrIGy1tG0AAAAAAAAAAAAAAAAAAAAAAAAAAAAAAAAAAAAAAAAAAAAAAAAAAAAAAAAIWM5kQCtDVBlAAgwznhAK6Nb6UAAAAAAAAAAAAAAAAAAAAAAAAAAAAAAAAAAAAAAAAAAAAAAAYFSRbIGh1vO0ABMNJmsgbLW0bQAAAAAAAAAAAAAAAAAAAAAAAAAAAAAAAAAAAAAAAAAAAAAAAAAAAAAAAAhYzmRAK0NUGUACDDOeEAro1vpQAAAAAAAAAAAAAAAAAAAAAAAAAAAAAAAAAAAAAAAAAAAAAABgVJFsgaHW87QAEw0mayBstbRtAAAAAAAAAAAAAAAAAAAAAAAAAAAAAAAAAAAAAAAAAAAAAAAAAAAAAAAACFjOZEArQ1QZQAIMM54QCujW+lAAAAAAAAAAAAAAAAAAAAAAAAAAAAAAAAAAAAAAAAAAAAAAAGBUkWyBodbztAATDSZrIHshyUoAAAAAAAAAAAAAAAAAAAAAAAAAAAAAAAAAAAAAAAAAAAAAAAAAAAAAAAA4tTwYBWhqgygAQYZzwgFdGt9KAAAAAAAAAAAAAAAAAAAAAAAAAAAAAAAAAAAAAAAAAAAAAAAMCpItkDQ63naAAmGkzWQAAAAAAAAAAAAAAAAAAAAAAAAAAAAAAAAAAAAAAAAAAAAAAAAAAAAAAAAAAABWhqgygAQYZzwgFdGt9KAAAAAAAAAAAAAAAAAAAAAAAAAAAAAAAAAAAAAAAAAAAAAAAMCpItkDQ63naAAmskumQAAAAAAAAAAAAAAAAAAAAAAAAAAAAAAAAAAAAAAAAAAAAAAAAAAAAAAAAAAABXhreygAQYZzwgFdGt9KAAAAAAAAAAAAAAAAAAAAAAAAAAAAAAAAAAAAAAAAAAAAAAAMCpItkDQ63naAA4nIKsepgAAAAAAAAAAAAAAAAAAAAAAAAAAAAAAAAAAAAAAAAAAAAAAAAAAAAAAAAAAA5CL4t+9gAEGGc8IBXRrfSgAAAAAAAAAAAAAAAAAAAAAAAAAAAAAAAAAAAAAAAAAAAAAADAqSLZA0Ot52gAB6GZmTtwAAAAAAAAAAAAAAAAAAAAAAAAAAAAAAAAAAAAAAAAAAAAAAAAAAAAAAAAAAd6ahX28AAEGGc8IBXRrfSgAAAAAAAAAAAAAAAAAAAAAAAAAAAAAAAAAAAAAAAAAAAAAADAqSLZA0Ot52gAAAAAAAAAAAAAAAAAAAAAAAAAAAAAAAAAAAAAAAAAAAAAAAAAAAAAAAAAAAAAAAAABBhnPCAV0a30oAAAAAAAAAAAAAAAAAAAAAAAAAAAAAAAAAAAAAAAAAAAAAAAwKki2QNDredoAAAAAAAAAAAAAAAAAAAAAAAAAAAAAAAAAAAAAAAAAAAAAAAAAAAAAAAAAAAAAAAAAAQYZzwgFdGt9KAAAAAAAAAAAAAAAAAAAAAAAAAAAAAAAAAAAAAAAAAAAAAAAMIJIBkDnNb9tAAAAAAAAAAAAAAAAAAAAAAAAAAAAAAAAAAAAAAAAAAAAAAAAAAAAAAAAAAAAAAAAAACAbPBqAWAa3coAAAAAAAAAAAAAAAAAAAAAAAAAAAAAAAAAAAAAAAAAAAAAAAyukOWQO/Poob93AAAAAAAAAAAAAAAAAAAAAAAAAAAAAAAAAAAAAAAAAAAAAAAAAAAAAAAAAAAAAAAAAB6GfO0x2QBcZrVCgAAAAAAAAAAAAAAAAAAAAAAAAAAAAAAAAAAAAAAAAAAAAAAD1w+cljxQBtpbFNd0AAAAAAAAAAAAAAAAAAAAAAAAAAAAAAAAAAAAAAAAAAAAAAAAAAAAAAAAAAAAAAAADsiNbOMkA8qfRs37GAAAAAAAAAAAAAAAAAAAAAAAAAAAAAAAAAAAAAAAAAAAAAAAAR6ZwsgA0+tC15WOqAAAAAAAAAAAAAAAAAAAAAAAAAAAAAAAAAAAAAAAAAAAAAAAAAAAAAAAAAAAAAADonE5O5M0oAN0rYVoAAAAAAAAAAAAAAAAAAAAAAAAAAAAAAAAAAAAAAAAAAAAAAAAcaEAmPWQAAAAAAAAAAAAAAAAAAAAAAAAAAAAAAAAAAAAAAAAAAAAAAAAAAAAAAAAAAAAAAAAAAAAezF/W+SwAAAAAAAAAAAAAAAAAAAAAAAAAAAAAAAAAAAAAAAAAAAAAAAADJSRXZ8cAAAAAAAAAAAAAAAAAAAAAAAAAAAAAAAAAAAAAAAAAAAAAAAAAAAAAAAAAAAAAAAAAAADyJahrWqgAAAAAAAAAAAAAAAAAAAAAAAAAAAAAAAAAAAAAAAAAAAAAAAAAZlSOzPGgAAAAAAAAAAAAAAAAAAAAAAAAAAAAAAAAAAAAAAAAAAAAAAAAAAAAAAAAAAAAAAAAAAOSyxLWmlAAAAAAAAAAAAAAAAAAAAAAAAAAAAAAAAAAAAAAAAAAAAAAAAAAA8CYYTGKcFJ4MAAAAAAAAAAAAAAAAAAAAAAAAAAAAAAAAAAAAAAAAAAAAAAAAAAAAAAAAAAAAAAAHnDnVdnLudfPAAAAAAAAAAAAAAAAAAAAAAAAAAAAAAAAAAAAAAAAAAAAAAAAAAAAAH8HbH6AAAAAAAAAAAAAAAAAAAAAAAAAAAAAAAAAAAAAAAAAAAAAAAAAAAAAAAAAAAAAAD8O5P7AAAAAAAAAAAAAAAAAAAAAAAAAAAAAAAAAAAAAAAAAAAAAAAAAAAAAAAAAAAAAAAAAAAAAAAAAAAAAAAAAAAAAAAAAAAAAAAAAAAAAAAAAAAAAAAAAAAAAAAAAAAAAAAAAAAAAAAAAAAAAAAAAAAAAAAAAAAAAAAAAAAAAAAAAAAAAAAAAAAAAAAAAAAAAAAAAAAAAAAAAAAAAAAAAAAAAAAAAAAAAAAAAAAAAAAAAAAAAAAAAAAAAAAAAAAAAAAAAAAAAAAAAAAAAAAAAAAAAAAAAAAAAAAAAAAAAAAAAAAAAAAAAAAAAAAAAAAAAAAAAAAAAAAAAAAAAAAAAAAAAAAAAAAAAAAAAAAAAAAAAAAAAAAAAAAAAAAAAAAAAAAAAAAAAAAAAAAAAAAAAAAAAAAAAAAAAAAAAAAAAAAAAAAAAAAAAAAAAAAAAAAAAAAAAAAAAAAAAAAAAAAAAAAAAAAAAAAAAAAAAAAAAAAAAAAAAAAAAAAAAAAAAAAAAAAAAAAAAAAAAAAAAAAAAAAAAAAAAAAAAAAAAAAAAAAAAAAAAAAAAAAAAAAAAAAAAAAAAAAAAAAAAAAAAAAAAAAAAAAAAAAAAAAAAAAAAAAAAAAAAAAAAAAAAAAAAAAAAAAAAAAAAAAAAAAAAAAAAAAAAAAAAAAAAAAAAAAAAAAAAAAAAAAAAAAAAAAAAAAAAAAAAAAAAAAAAAAAAAAAAAAAAAAAAAAAAAAAAAAAAAAAAAAAAAAAAAAAAAAAAAAAAAAAAAAAAAAAAAAAAAAAAAAAAAAAAAAAAAAAAAAAAAAAAAAAAAAAAAAAAAAAAAAAAAAAAAAAAAAAAAAAAAAAAAAAAAAAAAAAAAAAAAAAAAAAAAAAAAAAAAAAAAAAAAAAAAAAAAAAAAAAAAAAAAAAAAAAAAAAAAAAAAAAAAAAAAAAAAAAAAAAAAAAAAAAAAAAAAAAAAAAAAAAAAAAAAAAAAAAAAAAAAAAAAAAAAAAAAAAAAAAAAAAAAAAAAAAAAAAAAAAAAAAAAAAAAAAAAAAAAAAAAAAAAAAAAAAAAAAAAAAAAAAAAAAAAAAAAAAAAAAAAAAAAAAAAAAAAAAAAAAAAAAAAAAAAAAAAAAAAAAAAAAAAAAAAAAAAAAAAAAAAAAAAAAAAAAAAAAAAAAAAAAAAAAAAAAAAAAAAAAAAAAAAAAAAAAAAAAAAAAAAAAAAAAAAAAAAAAAAAAAAAAAAAAAAAAAAAAAAAAAAAAAAAAAAAAAAAAAAAAAAAAAAAAAAAAAAAAAAAAAAAAAAAAAAAAAAAAAAAAAAAAAAAAAAAAAAAAAAAAAAAAAAAAAAAAAAAAAAAAAAAP/8QAOxAAAAQEBAQFAwQDAQEAAQUBAAYHCAQFCRkBAxggAhE3OBAVFzBgExY0EiI2QBQxcCEyMyQmNWGwQf/aAAgBAQABCAD/APywceLDhw58XHMpdl8X6c3zaWDzaWDzaWDzaWDzaWDzaWDzaWDzaWDzaWDzaWDgmMBmY/pysMcMcOeH/XpzPJKXJdmzcwKxU+bCnGObAyFQqwauzjjzYdODc/J2xz4uPzGcKuqRhzOLOn3HN5tmcWPHmeZzMeZzMeZzMeZzMeZzMeZzMeZzMeZzMeZzMeZzMZc5nGTxYceTJFhVot5nDml8n1AHdEzi4MIJO6xSkSzMyodUEmqTNcVLjyYCLl8xgJrCZUwlf/WDOaS2S5JFGQ2uGq2yCTcUSW27qquyurbNeKbqf/UR1yi2IPMOCNTNulWIhnHjhS0vMonEpn0th5zIf+qure8ljYZbxyyMX5z6vOQMGM4UX+w294KxNmm3Bxk5szvUoc/IcIgpf9TfTURgEhxjUlRedTqcGObRc+MH9oonA0EIxwJtJrIH+SBw8LDp4on/AFGoe+/0phYtD0gzc3Nz83jz8/Zw8PFx8XDwcCOsGc2s/BkR8nTyjeXsjgyolVCzTIaEXeDgwiYRjzSoHhw4cjRe1EaL2ojRe1EaL2ojRe1EaL2ojRe1EaL2ojRe1EaL2oiOY00mYcPFwZ5opetEMfBx/wCEotG2Fxy82KSlY2SOSQ/gzo02/wD9bZbMphJ5hDTaUsDfHCuDkuWmqif9Pfm7mDbMnXlZdmUymE4mETNprsbIxxYnMRGVNZS35iiCt+yMiNk/9Hi4eHi4ceHicRT2QNeMmJm0M5BnyxNlmuPActhWNJgJJjlxtKrNnRSR0CWZJh/6cpahFpKSLO1EN69LSaV+VKdKaa/HDDHHHDDBj9NbjNORL1ccLLpdASeAhpXKv6hhLkiNskiy6ZnxU55kkPBHKqiexqbh582pX5WfpcWTJJjiXZaay5/0yrU4zMm5hlzcyzspvsVyZrly9xCx7DmfSSnUlzDCfFEqxNrKOfnQRTj6zuV9fHyq87HC87HC87HC87HC87HC87HC87HC87HC87HC87HCWVnITHPwwnSb1UmwnfOyoEyFg2Fg6SjJnxQ8c7KyonK48jPqLMYy0pjIhb0m2UlXGZs5kczboZ/+lqwocnSVNjKpM9OxvnSgG+cngx+NP1qXE49U8JsZoaGyIKHyoWE8XlVFysg2bFJ4lymq4o6yGLNNCle8jy8qugxh4DGmDOn+ElymTklAy+M7kkoMknjS/PXotjmDY1gii7DeKLqhOUXVMtKbIisZJUcS1KjZIv8ApVXxXeKQJoWUdlnjKJTMZ9NYORyhrKEyluqMSFOoHxqMPPzkJLHClic5+fnROdmRMT/QlE3mkgmkJO5Iwd3uQ5hP+OSGnxfI3aGcQhM2kUDmZeZk5nHk53jSoVzjPreOMizH/pVStR+NQXXmWDyvGleiuWpDguI+TbxUc9SVMiFP1BMSrKUY1gUSfKSbP6TclqnbflhLymyeRTuWGSSQBik3jUSRbLRpy894ZZ40m1H4im4+KJOf/wBJmEbkS2AiZjEn8zRJ0PRiN8Z40qU14CW2TKNuf41cFJzysgEpIcF4/wC//MEspzOiVaQQ5mgLSTpBaSdILSTpBaSdILSTpBaSdILSTpBaSdILSTpBaSdIFkYE5hEpDnmoybKYqk56gNUksujvGsAmuXO0hK6nw3i2o58afOAT04cP+/8A3D/pDljDiVG9KOYMMMOWGGHjyxx/84W/FLKIiHkIoZXjWWm+bmnxN5Dh401EbkavOThOMz4YYYYcsPazsjKisrjyM98yQydE3LmsoFvxozTfNzCopsj4/F7xR4Ds1NSZLjh/7hz8YeI44SIyorLI06wMJJL8/wAP+kP6juOAaCpudl+JZg8JiZZRL8YOH4YaFyIbg8azEmzss7psYdlPZepGgbh4GbG2FioaNhsqLhPanE4lRelUXO528laZevzhzOoUj8aM0mzsonqWYOPxU+XcE4TQ2ynM5Y8P7cfDHDnhjgGxzDimjdEzj+P/AKRUV7OVE2J11CK22rMmWecG7wJ4l+xOXauPSaTcBdINwt4ouFvFFwt4ouFvFFwt4ouFvFFwt4ouFvFFwt4ouFvFCnueX5ZYDhlClbKaaZZ6cNUL8TH+JqwwxK84wxiP/IjN5+GP+g0jthS3/pNRbs4UTYnXUIrbTwT5IoJOnRHMa2pIY0NVGfpgaP6TWUHm7i1pkSdwErlsDJZZCSaWeJq/jE4ET+Rm+OP+g0jthS3/AJwoK+IslGXx8aiGuqs1EvZnFkymNrIpLlZmPDAXlk0F5ZNBeWTQXlk0F5ZNBeWTQXlk0F5ZNBeWTQXlk0F5ZNBeWTQXlk0F5ZNA5qpsRF4RAzJTKfFOuoRW3P6ZtkOUJuWaSfN5RNS/NIuRzz+gUikZD2ZJeUCgyhpcpa2nX+JH7DV/GJwIn8jN2I1VaT9MEmKCdR95ZNBeWTQXlk0F5ZNBeWTQXlk0F5ZNBeWTQXlk0F5ZNBeWTQXlk0F5ZNBeWTQQVZFJc3Mw4Y8qVVmpGHM4cmbJ8viLKvl8HGnf/JHJ1A0QbzxxEgwW2om5RZczPgsiJiYiMiOOLjP6iddQitvdywxOXNw+YZZauDXVrb3NcyCUf3f9f7QJni6OKj8nAlNUZambW5T/AJMo2mr+MTgRP5Gb/VhomIg4jgi4NEqiblEazMiCz22VA0QcNxw8gx/5BO55Jy1KIyfT95FTIxH7Pjk5b/x8fHm8fFmZn9ZNsrMzlGKmVlb5hLoCawebLpoolPJpyjZ+bGxkyo+N/iM/HMl9nRDRZ0Q0WdENFnRDRZ0Q0WdENFnRDRZ0Q0WdENFnRDRK6Pze4XPwzJmnLB2qJjn5UdJoaGh4TIy4aE3Gfh4sS3NuHgicMcInOwx/rcHHx5XHw5mWzepkYiDnwKcuAkk8k5llEHPpB/x2Yx8FJ4CJms0fg+ObOFMGeQCD/Yp1oLNVmcRJJzmf3eLh4eLhx4eJ5SDzdv68GIrxX9hh745s3owZBAP0uj4KcQENNZX/AMcqmO3zuGIzGzp/tJibKEosZ5eQpJTqeHPcrhzsq2O8cWx3ji2O8cWx3ji2O8cWx3ji2O8cWx3ji2O8cWx3ji2O8cWx3ji2O8cWx3ji2O8cWx3ji2O8cJRSNWwwzPIzlYRZEE8QMkQpCTn+84NuSauXJ2JRUFS6Sjgi1Mc7FOrY7xxbHeOLY7xxbHeOLY7xxbHeOLY7xxbHeOLY7xxbHeOLY7xxbHeOLY7xxbHeOLY7xxbHeOLY7xxPKdjw5DlcWfmnFOz6nkd5afNtLN2+dxRGW2dQP+CY44YYc8Z0oiflvHHhMGLiUCwx5Y6iUCGolAhqJQIaiUCGolAhqJQIaiUCGolAhqJQIaiUCGolAhqJQIaiUCGolAhqJQIaiUCGolAhqJQIaiUCGolAgvbyEcS9JTGcyzPZ3NjNOo8xT7xJZJNaimeAJpIbNSpIxQhYU1OEL5ZLpTleTJCv8GMpULBzlOdIja56lMVDFCxhtboaymZCMYY4pm/xkU7mxZnUAYpCgjyEcVBJS4czNqJQIaiUCGolAhqJQIaiUCGolAhqJQIaiUCGolAhqJQIaiUCGolAhqJQIaiUCGolAhqJQIaiUCGolAhqJQIaiUCGDiUCxx5YSVRE/MmOHCX8McMcOeHypV1pTBES9xGZT1tq/TiIzc+ToKojrnFqrm5nEdc7OzYnMxzYn9PCP08I/Twj9PCP08I/Twj9PCP08I/Twj9PCP08I/Twj9PCP08I/Twj9PCP08I/Twj9PCP08I/TwjDhww/14yCQzg0TuALZfZWzwsNfI+VER/wp8DMi85om508kE3lMzkM1jJHOfHHhwx/3+nhH6eEfp4R+nhH6eEfp4R+nhH6eEfp4R+nhH6eEfp4R+nhH6eEfp4R+nhH6eEfp4R+nhH6eEfp4Rk52bDZmGbDJ265xaVZuXxEpEqv04h83Ik69JQtKYLcXuEzJh8nefUNKzf8ACKT1OFFU0+K0Z4k4qL/cpIN4hp7PJw4YyfDKtDdocrmmVuCLP9xOlNPiSmeGOKdMwqGlZwGEKnqj/Jah74/RCVZqQJdExUTGxObGRn9zH/zDmGgJvDpU20hFHK+GPETPJVptZ7KXHh/7hz/uw0VEwUTlRkHTwfH63yrKSBUfkbrnCSdtqNzhQYw0mifHUyTI3GjZzww/3zwx/wBc8BzwHPAc8BzwHPAc8BzwHPAc8BzwHPAc8BzwHPAc8BzwHPAc8Bzw2F6CwmZglct4oCEyoGBhoHK+GR0LlxkFEQWcY4PCXGGay7h8eeA54DngOeA54DngOeA54DngOeA54DngOeA54DngOeA54DngOeA54Dnhh/vnhj/rYVjRPiUZJabiu1FwkockjcnUGD+RVQl4zlQXrNT6VeP+/wDzBrFMdQVjgYM7KsnDE2rpnDZWVKclK0whsvDKh/TFNx6YpuPTFNx6YpuPTFNx6YpuPTFNx6YpuPTFNx6YpuPTFNx6YpuPTFNx6YpuPTFNx6YpuPTFNx6YpuPTFNw+ohEaVNKUqYSvxI/81Low/wBYfDcf9Yg8fzUxbGKkIjTVpSazCaemKbj0xTcemKbj0xTcemKbj0xTcemKbj0xTcemKbj0xTcemKbj0xTcemKbj0xTcemKbj0xTcemKbj0xTcemKbjOSxMInLxyohSmGNYU+FzeCZuopoqOiMDGHdONlL1d85Ll7yk+mvyFWj3CJimRpUGNnE2j5/N46ezTxpjs0lx9ieFwanYYYYYcsP6r/Oz1TthH/mpdGH+sPhuP+sQeP5qYtjA+z1Mf63Fw8GZw48HHUyZjLkwj/XlMPGTzaPkE3gZ7K0lPcIpyZFZQYL5BU9NmaWGiGKEyPEoFmYHQ2SUnypOSNJU0IkhT8u/1n+dnqnbCP8AzUujD/WHw3H/AFiDx/NTFsYH2epj/XU0gyRVE+MCdmE1lyYE40TgpTbxphGzNM7RC7CZ/wAgrBxnFkt8LEHw+LEZVDzh3SYwsT/Xf52eqdsI/wDNS6MP9YfDcf8AWIPH81MWxgfZ6mP9h9sph5M7lTYSF8aPkbxZzfTPBcXyCsX0KJ2yn13hpv8A2H+dnqnbCP8AzUujD/WHw3H/AFiDx/NTFsYH2epj/YqC94akbKOnQo4/IaxfQonbKfXeGm/9h/nZ6p2wj/zUujD/AFh8Nx/1iDx/NTFsYH2epj/YqC94akbKOnQo4/IaxfQonbKfXeGm+9XF+SJCpTwTdUZjV1bLCRXHkQd4Bt4vANvF4Bt4vANvF4Bt4vANvF4Bt4vANvF4Bt4vANvF4Bt4vANvF4Bt4vANvF4Bt4c5UvQ1aEGOSYFjxJGOGB1L2OOH+sPhuP8ArEHfHDE6mHHDxbHUvQ1F0GJqYGe8A28XgG3i8A28XgG3i8A28XgG3i8A28XgG3i8A28XgG3i8A28XgG3i8A28XgG3i8A28Seri2GYxvBDTBMFjTFZ5DgZUw3VBe8NSNlHToUcfkNYvoUTtlPrvDTfc6NepS3BGp0pMeo6knVWjhHno//ANSAi+KAjoaP4ClOcgxlWTmCG+GHCeQ5YKU7MkVHRfFHxsRHcf8AURZaj8gh7gT+nqHqzIFxSwvKiXNtQXvDUjZR06FHH5DWL6FE7ZT67w033Vmp9HZclTIsZf8AWpxq3Dqo18uQmd8MqUq5kJe2CeyuH/rUfZ7Hx6CmqR5+2oL3hqRso6dCjj8hrF9Cidsp9d4ab7qz35KWf16ebnslu6ycMAZ8nPyorK4M/I+FRcVDy+Gzo2Mf053Bx6y53FIP61G3o+fN1QXvDUjZR06FHH5DWL6FE7ZT67w033VnvyUs2J0mJ9VsxYFJN9CTuxoSd2NCTuxoSd2NCTuxoSd2NCTuxoSd2NCTuxoSd2NCTuxoSd2NCTuxoSd2D+1ZwyWFrOOKgbGEVEYcmQUuRNd4KOg5nB5MfAfCJnNZZJJdETedP1qGeqeRHI0iOwhtRcUpxZhjkQtCTuxoSd2NCTuxoSd2NCTuxoSd2NCTuxoSd2NCTuxoSd2NCTuxoSd2NCTuxoSd2DyQzemhniyYe/Gjb0fPm6oL3hqRso6dCjj8hrF9Cidsp9d4ab7qz35KWbKTndjl++oxDLyokadp6aluSEzIUp89TE17G8PbXRt3Hly4qpZVvQc0ZWTCqVI3ntVMOVhnS3VW2kaq20jVW2kaq20jVW2kaq20jVW2kaq20jVW2kaq20jVW2kaq20jVW2kaq20jVW2kaq20jVW2kaq20jVW2kaq20jVW2kaq20jVW2kaq20jVW2kaq20jVW2kaq20jVW2kaq20jVW2kaq20jVW2kaq20jVW2kaq20jVW2kaq20jVW2kaq20jVW2kaq20jVW2kaq20jVW2kaq20jVW2kaq20jVW2kaq20jVW2kaq20jVW2kaq20jVW2kaq20jVW2kaq20jVW2kaq20jVW2kaq20jVW2kaq20jVW2kaq20jVW2kaq20ievRaoXcjHOmSrVcUTLOTnQiWuFeSuTkojihzvsb2iJlcKq8lTEtEYmyBPCfJyMVveqS95B72Ubej583VBe8NSNlHToUcfkNYvoUTtlPrvDTfdWe/JSzZSc7scv8AoP1aBAuWIHFPivMZdHyiPiZVNN3LAcsBywHLAcsBywHLAcsBywHLAcsBywHLAcsBywHLAcsBywHLAcsBywHLAcsBywHLAcsBywHLAcsBywHLAcsBywHLAcsBywHLAcsBywHLAcsBywHLAcsBywHLAcsBywHLAcsBywHLAcsBywHLAcsBywHLAcsBywHLAcsBywHLAcsBywHLAcsN8mk81MM2g5DImKtGgGwp1wxc/wDfqS95B72Ubej583VBe8NSNlHToUcfkNYvoUTtlPrvDTfdWe/JSzZSc7scv+i/Wn/CLZkRSspHOJPNi9NYqRz34cXy9PDXO4ItlpiTCJa3+Eh1JU3+hUl7yD3so29Hz5uqC94akbKOnQo4/IaxfQonbKfXeGm+6s9+Slmyk53Y5f8ASdUxtLHOwPHNYpfWoLS3Ga8cKf8A4Y31pa0uSmvDDkFqrK0va7K+GJln9GpL3kHvZRt6PnzdUF7w1I2UdOhRx+Q1i+hRO2U+u8NN91Z78lLNlJzuxy/6c0lMrncvzpTOlrpYN/UnMz5sRFNpWObJHHmRBTNiDLYRc3jyjfnQ0TDcX6IjliOWI5YjliOWI5YjliOWI5YjliOWI5YjliOWI5YjliOWI5YjliOWI5YjliOWI5YjliOWI5YjliOWI5YjliOWI5YjliOWI5YjliOWI5YjliOWI5YjliOWI5YjliOWI5YjliOWI5YjliOWI5YjliOWI5YjliOWI5YjliOWI5YjliOWI5YjliOWIyYaJieL9EOUkDW495vBlFBM6VTmztx5UQbUZpXN8TnNh5sepXKpbJIDIlMm/pVJe8g97KNvR8+bqgveGpGyjp0KOPyGsX0KJ2yn13hpvurPfkpZspOd2OX/AFscMMcOWMYVy1MOeMd9gkUfYJFH2CRR9gkUfYJFH2CRR9gkUfYJFH2CRR9gkUfYJFH2CRR9gkUfYJFH2CRR9gkUfYJFH2CRR9gkUfYJFH2CRR9gkUfYJFH2CRR9gkUfYJFH2CRR9gkUfYJFH2CRR9gkUfYJFH2CRR9gkUfYJFH2CRR9gkUfYJFH2CRR9gkUfYJFH2CRR9gkUfYJFH2CRR9gkUfYJFH2CRR9gkUfYJFH2CRR9gkUfYJFH2CRR9gkUfYJFH2CRR9gkUfYJFH2CRR9gkUfYJFH2CRR9gkUfYJFH2CRR9gkUfYJFEGVy1L+X+Bhhhhhyw/q1Je8g97KNvR8+bqgveGpGyjp0KOPyGsX0KJ2yn13hpvurPfkpZspOd2OX8zqS95B72Ubej583VBe8NSNlHToUcfkNYvoUTtlPrvDTfdWe/JSzZSc7scv5nUl7yD3so29Hz5uqC94akbKOnQo4/IaxfQonbKfXeGm+6s9+Slmyk53Y5fzOpL3kHvZRt6PnzdUF7w1I2UdOhRx+Q1i+hRO2U+u8NN91Z78lLNlJzuxy/mdSXvIPeyjb0fPm6oL3hqRso6dCjj8hrF9Cidsp9d4ab7qz35KWbKTndjl/M6kveQe9lG3o+fN1QXvDUjZR06FHH5DWL6FE7ZT67w033VnvyUs2UnO7HL+Z1Je8g97KNvR8+bqgveGpGyjp0KOPyGsX0KJ2yn13hpvurPfkpZspOd2OX8zqS95B72Ubej583VBe8NSNlHToUcfkNYvoUTtlPrvDTfdWe/JSzZSc7scv5nUl7yD3so29Hz5uqC94akbKOnQo4/IaxfQonbKfXeGm+6s9+Slmyk53Y5fzOpL3kHvZRt6PnzdUF7w1I2UdOhRx+Q1i+hRO2U+u8NN91Z78lLNlJzuxy/djI2DgMrHOjM1Tk2yOL6WdLTDIJzw4cUn+R1Je8g97KNvR8+bqgveGpGyjp0KOPyGsX0KJ2yn13hpvurPfkpZspOd2OX7bmXqI22SExgzMsVTtyyl5+fClUxns7nCK4402csMf/cYCbTWU53DEypLn1uiSjPysJM2aqImatRkIT1Y4MzLzeDhzMvwcgoc9SlDDqo5au4ueF3Fzwu4ueFPd0ikOjK5xnai+K7VO3EJss53IEgu4ueF3FzwRmqE4o/q4TCRO/CoK5xRGvEcqmJOruLnhdxc8LuLngz5wWpJDpQocdud8vuLbkMnSiwV3Fzwu4ueF3Fzwp+ObUN0BDNBlUXwqEPFVVrk+JssTm7i54XcXPC7i54IOqksW1IisqEs3PScXmtkROMPEou4ueF3Fzwu4ueDA3Hn1zSXTs4qHsnU1hJDJ4+ezCOq5OT4o2I45fdxc8LuLngTatLgIw3ySENOXm8Gdl8OblbH8OMPbZkllR2T27i54XcXPC7i54XcXPC7i54SCsSt8Hx8OBiTSr4jJiz8qCUpPFTTtWJJwGNN/Fx1RR0aGLabUu4ruLnhdxc8G21P1jURcSgRFJ8Z9OYEuSOYmGZR1XJyXFHRPFLruLnhdxc8GEPIcE6NS5xKjl7FSXvIPeyjb0fPm6oL3hqRso6dCjj8hrF9Cidsp9d4ab7qz35KWbKTndjl+0/l5uQ2kn5RWJk+n06NE5jDCY91ON9U0ks5lrfVg8Hv9papbKMv8AUvY7buhVTxbF3HJf41lelSfbKSy3fZqvTRHpvuq4LV91KlJEalPjRt6Rn7xrN/zBMdlH9bcePJNCBTfdVaW3FQFzhkxlfjR56AGna/Y/8Ap01A/TPJ/wBeP/v/APxqZ+wU5uSfHPi2Vgu3Mu+wmqpqCkBmyDcm7J36Fty0JwEk4+FYZJ/LTgT1ngPCUzSNkk0g51LkpPUEpqaFdQZf4VGFJ9N2oGzGH8aVCTfYjcsTvHexUl7yD3so29Hz5uqC94akbKOnQo4/IaxfQonbKfXeGm+6s9+Slmyk53Y5fsmOfywql+ZmacLsrs+XRVzEp5g38HHx5XHw5uUxBfM1wTe5NPZwHv8AaWqWyjL/AABS9jtu6FVPFsXccl/jWV6VJ9sJRunBBN8lOxfS0/SZVU6LqjSDYfznJ08JM9PZgUQ8ThSz3P1An/jRt6Rn7xrN/wAwTHY3pWY9DlmKinwMpmkBPJVBzqV7FpU2VI2lZnU2cmUwzU2mKZmme+NHnoAadtY0/wD+CQyKmcPspEn77gQCdkbP2Vgu3Mu+yWjJPSfP5eaSw0BxcvcyjUtPGAfyk+KuNeOEohMP/cOfjShUv7zbdmkqL8Kxylf5E8IaSQngTSrMzybpKTJKRCjLSCSpESJN7FSXvIPeyjb0fPm6oL3hqRso6dCjj8hrF9Cidsp9d4ab7qz35KWbKTndjl+zUpPEQSWjGzCE8WjsjUF1cdFTKCltH9vkPL8MiZuzplmdCyrGKSmvjR4ULOlaonJM88Pf7S1S2UZf4Apex23dCqni2LuOS/xrK9Kk+20hVt89IxhQyb7Kti1/aKSShHZVso29Iz941m/5gmO2l2t2Cnt7ySTNNlX5bv8ACkhbQOT7KPPQA07aqh/+8HTRReyNlIU/eQruYCHn7KwXbmXfHHHlhzBZpluoNxclRqk0RSvd3k5PFm8Cst/WRDY3LglT8aVSyZ5BcHinkcIiHyYvJzIWJckmGcjS6HROuPwpJqb9qL/M0/i/B9Cleqbpj3P8nwpYJR9/OVyjfG+zUl7yD3so29Hz5uqC94akbKOnQo4/IaxfQonbKfXeGm+6s9+Slmyk53Y5fs1fs3P4G4yDLy/FgUglJfaGnOXKBMpdBTeXRUomSolfLIylmsl8H6uEfq4RTOnPHKnik7gyw9/tLVLZRl/gCl7Hbd0KqeLYu45L/Gsr0qT7a0pZ85BV+Kig8WREZEVkZcVDeGOOGGGOOL51oxXJyJoMUHso29Iz941m/wCYJjtpxrd6OOUk8HMvGOjoOVwMRMo9zKwRa7LibFLz9lHnoAadkREZMNkZkVnLYeM5SlfOZ9zhBwcTMIzIl8FMICLlcfEyyYBpB+9M3Jp4b8zZWC7cy748X/ziED6GJ94H0glJTijMSMeXJIvMG/rQZUujfBMDbEkNSCsdYOEicqMhcmMyBWDSfCVHkorJAeCIqDEpSrxPUSGgoyGmEHDzCDXBQIdK0gOChxEVFREdFZ0bF+FKJKMCQ3fOPsb7NSXvIPeyjb0fPm6oL3hqRso6dCjj8hrF9Cidsp9d4ab7qz35KWbKTndjl+zVOKmcY2lTWYw/jSlc5JpsS8W5GnwmKDopOJhETacadEAGnRABIUWSArzbInxZD3+0tUtlGX+AKXsdt3Qqp4ti7jkv8ayvSpPtv+xTkW7FZG2yeEmXg+NauFDG4mgzQmOOOOOOPFso29Iz941m/wCYJjtyM/Phc/LioZpiz5K9ICVFB4vCpstvpO3ONLcs20eegBp2O+P/AKZNpUI25eH/AJhy8G0FzE2uFTgu4unLn2k5FS5BgMrNzcjN4M/IQs85Klo2TD5leNYLtzLvjxf/ADiED6GJ941ii3DQCyEoz5Hhjjjw4Y44I9MeKcpKSptmioCk3q4102y6Ew/9w5+H+/8AwMIU7FVGrkmbxFXJWuIqotJktl/gUizMzoaZOUJMnhNlidkYvkSS+zUl7yD3so29Hz5uqC94akbKOnQo4/IaxfQonbKfXeGm+6s9+Slmyk53Y5fsqyQJeqiZmdOpoaixOCUZpqUDD4SecTUvzWEnkjaLVFkRjyIEgOPgY2CmcHkzCXbXv9papbKMv8AUvY7buhVTxbF3HJf41lelSfeP+v8AfhS5W70xcLlkiaeFW5asDarEmRyU+H+/9eFG3pGfvGs3/MEx3Uhlt8jPBhQub+FS9bvVtx8wkEs20eegBp2VfT/jI0OLhAhvCmqWPuZ4JO4+KpmWftx4BszuDwpTn/A2tdyS3n+NYLtzLvjxf/OIQPoYn3jWUmsPnKansl4PDi/+cQh8HmQCLkOBzRFQ+RHQ2dBxLiExiEbW45JvneFHBSsf/wB+pFF1QFO4j+6SaSGG8KWqU+oTmIU1RvtVJe8g97KNvR8+bqgveGpGyjp0KOPyGsX0KJ2yn13hpvurPfkpZspOd2OX7VVJpsXlx/E5Yh7G3PaWttcVlQRdbW9pGHLQeXBF7Y9/tLVLZRl/gCl7Hbd0KqeLYu45L/Gsr0qT7xYeTi0oTlpARjafidNE8PE/Ik6Enm0wkE3gZ7KUKU+XrMkRUU2XquoUnSZNzIpM+OpunR/N05O5jBJKkzPZxkZKkz7SaXU8clPCKVfCjb0jP3jWb/mCY+LQ0ygVkVKZJpFxUNEQUTnQUWEpUKbpOpJbUiRk80yg7laUHCQOOViERBETcpkRHRsXMo2ImMeEqIUxVJSiynUqcjJZOWl9P5bL3hR56AGnZVzP33E4WUEjI8KOhV8wWI6nDMrFljCAWUlGvg8KOh+8vUM8prEeNYLtzLvjxf8AziED6GJ94RkXCy6Ezo+Oe0uMI4BxBiOkm8CpI4kzmiTlqClEvypRKoKU5HhWCSrydRCosEB4MMVmBR1zJaMs5PpqjT0eDAdJj4UnEoxJbfYtQY72qkveQe9lG3o+fN1QXvDUjZR06FHH5DWL6FE7ZT67w033VnvyUs2UnO7HL9qZS2BnMviZTNH0U/56iEwjVPSnZL5jHymOyJpKmc1QonLzoFN3LQcXCzKFyYyC8Hv9papbKMv8AUvY7buhVTxbF3HJf41lelSfeNPWKxhHhpxx4VXkk+x3Bwx/gPCj8svmRUNSHTSr4smMhT4tIpK/ClclP385bKN8ZUMi/wDMeKo/H40bekZ+8azf8wTHxppxf+K8gk4Y1CUkxSN0ZphITwpPLTieUPjktmlYRZfpQZSQmV+FJBJMTWts3VKPcTF4xy+qPF4+FHnoAafHHHDDDni6U/Yqc4hQDrw+FHUoeXJCdTnmVlCzhFJ0npv4PBiB/wDTl1yfzjN8awXbmXfHHDnhjgCBV1hSQRi6TcYis9hjk8WEI42oYujhpTnlLO8abqT5yoOkLkZneNQpKPVhrhrhoX/e0sF6ZG4ySoqydNyXLE4IJdIMm9qpL3kHvZRt6PnzdUF7w1I2UdOhRx+Q1i+hRO2U+u8NN91Z78lLNlJzuxy/biIbIi4fMhYp3lLiXmTMjVDbaZSwYyZPIssmzZTzfbHpTOYBFVY4OPgzOHDj4A9/tLVLZRl/gCl7Hbd0KqeLYu45L/Gsr0qT7xY7Ff4bt0tzRVDST1GbNGmeC8GfrJxIU4YonzPfWr2WszmDbP5f4Un0p+ym9RB+jXyxX+W7hUs3xo29Iz941m/5gmPjT6i/8R4Sb8Qq/pJ56mhYWGX+FPVaIdFnKSONnLo1fiF0Xg3KPxeFNZJPS9r8kmEarEV/nKoco3xo89ADT4uFPmUmSHnk98fHx8eZx8WZm+FPAlYkho5Fh82qMUs0zNHncfkeEpmcVJJrBTmBTw1wp7IZcOsD4Vgu3Mu+zhhjxY4cPDTebVEIQjGBkM/jGwcLMYPPgI1f0ziUdWg4ptEbKXyU4KK52BMcb7dSXvIPeyjb0fPm6oL3hqRso6dCjj8hrF9Cidsp9d4ab7qz35KWbKTndjl+64NqyPORkmMuUF0jEVcbVEZ85zNlMBycWsKTZ6bmsPf7S1S2UZf4Apex23dCqni2LuOS/wAayvSpPvFo0X/gugSyJxMpflpsLs0K84U8iTJMFFMieTfYWi/MTYY5WVpOmxLlqckAukGUO6isIx0Kp5+HhRt6Rn7xrN/zBMfFkMVjBu1S3NC5prBrCkBuTWMmMvjJTMIqVTHYiycxyuKwVE2l8slsAX5NCyaWm6IxizZO4vHwo89ADT41Yj/9rNm4CnkeEqlsTOZpByeDIpahyaSpAUYRfSXwKIiR5JHFxcHHl8WPBmeFM4//AHy0wtQed4Vgu3Mu+xhhjjjhhhT7p+zSYzSWLoue2r+k/kamldX4DZSYSf7OQWPUeO9upL3kHvZRt6PnzdUF7w1I2UdOhRx+Q1i+hRO2U+u8NN91Z78lLNlJzuxy/ejoGDmcJnS+YPyp0QZUgJitKA+NPZUIhL3VE/PxD3+0tUtlGX+AKXsdt3Qqp4ti7jkv8ayvSpPvFu8V/hL4nEV4Va0kxKC4ypT4DZTASbjUZzsuMcWHFRX+avqjxXjRt6Rn7xrN/wAwTHxabGf4DnEti/Co+kXElLoJ/FQmykMkn3Gq5iV2YTrO+hJo/PEwzfrx8Vn+NHnoAafGsOf/ADRVianEP4JgboIgKMWjzMbzuYMaznHxYY8PEZpnBzsyTWcy/wAKNh//AERahpfEeFYLtzLuyHTNSIvIy4qEnEinZei/8Cf+De1ElCTrSUVAMErmUBOpZCTmV7aiaU4qs1s0cEF/vxLshmJpMEsLMnS8iy5ME6LafSn26kveQe9lG3o+fN1QXvDUjZR06FHH5DWL6FE7ZT67w033VnvyUs2UnO7HL9lUqjLc0gP86TU4XZGni7I08EOpa2pRzrJCEW/DNysvNy+LKzX4IvLUNcoYyzIPAnzbOkJukc8hoWI4YqFyYnhevD5kU09U8rK8aMc0yeIuqhJMfF0cwyJq5FT5hDeDUYPij3MpdDcHhWV6VJ94pRE4wSpE2LwFSdIvVRsM8jYLZSzRj03bzwHaZBWon/NVU5xmPhRt6Rn7xrN/zBMfFvkX/gLwnUZ4VXUY++0IhVLlnj/r/wBFPNIfSJsBYh40/wAR/iEQyROHFj+rHHi8aPPQA0+L3z/6kOoUIwZfsU3T/wDYbtijw53hWC7cy748X/ziEExxxQ1PscasyA4nFNZauUh8aVjgsFHR3OSSfbZhAwk0gYmWRyqleFJCnG0mwPhTUJMsOrtyv5t7lSXvIPeyjb0fPm6oL3hqRso6dCjj8hrF9Cidsp9d4ab7qz35KWbKTndjl+zUnkeZJHiHbHj8EzN+Yn6ilg85Rdn8qNUhlxmkfhVPPUoOLp4mWSfwlELmRs2gYLJlENjBSmCg8VmLPEc0iOpT4OLg48rixy8zwpkLfLEhcLwSIw+C2qlIkWS0xqWYJtM4udzWNnUw8KdZXzjU74h8GX4VlelSfeJPzeLJN0izuDL4sePL4ePGZy6CnEti5RMV0Sqao+r5tTaJ/wAOLH+HFhGErnSvqqV01l0gkktLMklxck2P/mGIOeZx5xyn+bmeFG3pGfvGs3/MEx8UpzuKHVEnZ/ADcVpSditNyfPVQTefJcohjTycf4cWP8OLDbkjj1mXInJyIWHh4GGyoOFWbO4odIDzEcHB/wDPD40eegBp8FRN8Knybmg8xcfHRMzjomZxnsEozRZLOMjOEBIJzBmORS0wS8Vgu3Mu+PF/84hA+hifA0FyUG8uzMqz5fUjm6FK8ZkvnHg0hdItvS7F1QcIGNhJnBQ8xgNrjOvykeNKHuzhfdqS95B72Ubej583VBe8NSNlHToUcfkNYvoUTtlPrvDTfdWe/JSzZSc7scv2axKc58uUclqlD+LSaix6bpJskgGuAq4tiiILDPjV1q7xM4kkVIEFmEwjptHxM1mng0NPM9UHKJ8UssY4YcWGOGLuUsz0ccWeCTxeHDxcXBxYcfA36qwqCYyKEKKoTKsqneXA8XHKHPvLVV0kwyMk1eNHVK82KMZ1WWO8KyvSpPvEqfymTDJ//Bl+GdJ5TFZuOfFfb0gH29IBkSeUwubhnwox/wBYg3/y2eeNG3pGfvGs3/MEx8Ux6lFHxzpLJ4nN4s+J+3pAPt6QCHlEphM3DOhAtvRk9jg/+eHxo89ADT4VPT9gS2nTyWZPjI2tOPMsngjCX9H7pxo/dODO2dwZKkMYaDd40/j/AOobTSJMM0Vgu3Mu+PF/84hA+hifeFXBAPPilJ3BSDxpcuCxVNEsU1nu1xnX5SPGlD3Zwvu1Je8g97KNvR8+bqgveGpGyjp0KOPyGsX0KJ2yn13hpvurPfkpZspOd2OX7L3EE4nCoBPClLoiHz4TPzIWK9iki3eJlUsm7iTL4VYW3xJxJ8uX0q+wXS9OjbP5cVy42BEZe3tEy4mUL4VlelSfeJU/lMmGT/8Agy9+P+sQb/5bPPGjb0jP3jWb/mCY+KY9Sij7C29GT2OD/wCeHxo89ADT4VlD99eep6mEP4SyXRE3mUJKYQiluHJpKkBRhfBfiZwKGiR6JXFjw8XBjjwcfhRvP/8AmE4+pjECsF25l3x4v/nEIH0MT7wPBOkahE+dEYyLEmM8RpTjGmRi8Gbrznt4XsvnfOhojIjofKi4XY4zr8pHjSh7s4X3akveQe9lG3o+fN1QXvDUjZR06FHH5DWL6FE7ZT67w033VnvyUs2UnO7HL9qo6xKZZ00mLhUZ3sqZEbHMGaHMJgkEhk5WkkAWy/4TGXwU2gImVzN9TFp+3swxR+IO6FhYqOicqCgqdzEohIcrJWtXvGsr0qT7xKn8pkwyf/wZe/H/AFiDf/LZ540bekZ+8azf8wTHxTHqUUfYW3oyexwf/PD40eegBp8KiR++/wB2x1zsrwZkSvUB0abl3j8eLh4ePhx4OJfiZxJ4t57JWPhS1P8A9nOpl8jzxWC7cy748X/ziED6GJ941dkA/wAmBkbiJB4f7FMdwPq6heWRZ5scZ1+UjxpQ92cL7tSXvIPeyjb0fPm6oL3hqRso6dCjj8hrF9Cidsp9d4ab7qz35KWbKTndjl+1jhhjhjhi5umclK2RMUb08VZgjo0lz8/jmEylE2k2fxQs4/VwiFhIqOzOHJgk1Zs5hV87L4Sm3ikqWC3FQplcBJpLKS9K4aRyHZMpdL5xARErmri6ThRN0VFGlAlMZ05VJc/N4DdEQ8RB5mOVF/q4RJSyZDLFcECXUgpvOfVWIh4iYNiYIjzb+PIMPDsqZIMq69p+TZIlVuR5ItyPJBfp3PDgp/LIyJyuHHDK4OHHdj/oGSne8GOMc2joW3I8kW5Hkimeg6qoKnJvkareFTds62L6ZCJHpNbkeSLcjyQRKezvJOeC7NpjvVKTzEwpkbS/KeGnI8rDhwwxtyPJFuR5IpsIkpqFI8YCwqcdm5+RBRGdCmpgj1TWZ5uaJhbkeSLcjyRTtZct6QL1mqGrux9bGl9UlyBgUBKLcjyRbkeSEfY689NFVKKgZOGPPDDEVIkVUxdUVkxVS23I8kW5HkjipyPJx4ccMEhkk0LKUk0uTrwU5P5CqpAn6dmabU2nfwE0jIGCtyPJFuR5IZa2Z5Lc12kxwmGxa2BuxNSwnczyG3I8kW5Hkinu0Fw6KOIhzupfuVJe8g97KNvR8+bqgveGpGyjp0KOPyGsX0KJ2yn13hpvurPfkpZspOd2OX7s0LZdnvDjwTvjRBGOPO/yOOUkwoSDlhIvanBIJRg//nshEkahs368PLZJJpNl4ZMn+LVJe8g97KNvR8+bqgveGpGyjp0KOPyGsX0KJ2yn13hpvurPfkpZspOd2OX8zqS95B72Ubej583VBe8NSNlHToUcfkNYvoUTtlPrvDTfdWe/JSzZSc7scv5nUl7yD3so29Hz5uqC94akbKOnQo4/IaxfQonbKfXeGm+6s9+Slmyk53Y5fzOpL3kHvZRt6PnzdUF7w1I2UdOhRx+Q1i+hRO2U+u8NN91Z78lLNlJzuxy/mdSXvIPeyjb0fPm6oL3hqRso6dCjj8hrF9Cidsp9d4ab7qz35KWbKTndjl/M6kveQe9lG3o+fN1QXvDUjZR06FHH5DWL6FE7ZT67w033VnvyUs2UnO7HL+Z1Je8g97KNvR8+bqgveGpGyjp0KOPyGsX0KJ2yn13hpvurPfkpZspOd2OX8zqS95B72Ubej583VBe8NSNlHToUcfkNYvoUTtlPrvDTfdWe/JSzZSc7scv5nUl7yD3so29Hz5uqC94akbKOnQo4/IaxfQonbKfXeGm+6s9+Slmyk53Y5fzOpL3kHvZRt6PnzdUF7w1I2UdOhRx+Q1i+hRO2U+u8NN91Z78lLNlJzuxy/mdSXvIPeyjb0fPm6oL3hqRso6dCjj8hrF9Cidsp9d4ab7qz35KWbKTndjl+2sjvG+oPm/4KiZ1XBr+XncXBlXdWxC7q2IXdWxC7q2IXdWxC7q2IJnUaakpsyyZJC5GblRGVwZ8Pujo6DlsJnR8wUCpc08gzDNlPBd1bELurYhd1bELurYhd1bELurYhd1bELurYhd1bELurYhd1bELurYhd1bELurYhd1bELurYhd1bELurYhd1bELurYhd1bELurYhd1bELurYhd1bELurYhd1bELurYhd1bELurYhd1bELurYhd1bELurYhd1bELurYhd1bELurYhd1bELurYhd1bELurYhd1bELurYhd1bELurYhd1bELurYhd1bELurYhd1bELurYhd1bELurYhd1bELurYhd1bELurYhd1bELurYhd1bELurYhd1bELurYhd1bELurYhd1bELurYhd1bELurYhd1bELurYhd1bELurYhDVb2uZ2fw5ecjjnkNXzL4sEw9qpL3kHvZRt6PnzdUF7w1I2UdOhRx+Q1i+hRO2U+u8NN91Z78lLNlJzuxy/aqKu6mDdSFBlAhzGYx83j4iaTX2KZ7zDAWDnLW9KLuqKvKMCtn6aI+SPhhdMc+KM8gzKV2IOp4nOJTjFGH2akveQe9lG3o+fN1QXvDUjZR06FHH5DWL6FE7ZT67w033VnvyUs2UnO7HL9qqJP5hOXemCBjPZL01jZCYJZPJbKorjj5XBxubsVScRZeTE3T+X5mdmRGZxRGd8NpCT6YQDip7Icj2akveQe9lG3o+fN1QXvDUjZR06FHH5DWL6FE7ZT67w033VnvyUs2UnO7HL9qrui0zkykyRcpf7LVEZm67rsViJLuDL4Mrg4cvL2TmVQk8lEdJI9bUqn6JqmYkzMfw2j+i80g+E1LxN/ZqS95B72Ubej583VBe8NSNlHToUcfkNYvoUTtlPrvDTfdWe/JSzZSc7scv2lFTonqwTJmQD4vFKFZSZNImYoxmMjdpl8fFl8Wid2Y0TuzGid2Y0TuzGid2Y0TuzCaU0HWH+ZZORN2stLTxrBSzZQV9zuWXkJ1EiyoiMUGm87QiTHNhoXRO7MaJ3ZjRO7MaJ3ZjRO7MaJ3ZjRO7MaJ3ZjRO7MaJ3ZjRO7MaJ3ZjRO7MaJ3ZjRO7MaJ3ZjRO7MaJ3ZjRO7MaJ3ZjRO7MaJ3ZjRO7MaJ3ZjRO7MaJ3ZjRO7MaJ3ZjRO7MaJ3ZjRO7MaJ3ZjRO7MaJ3ZjRO7MaJ3ZjRO7MaJ3ZjRO7MaJ3ZjRO7MaJ3ZjRO7MaJ3ZjRO7MaJ3ZjRO7MaJ3ZjRO7MaJ3ZjRO7MaJ3ZjRO7MaJ3ZjRO7MaJ3ZjRO7MaJ3ZjRO7MaJ3ZjRO7MaJ3ZjRO7MaJ3ZjRO7MaJ3ZjRO7MaJ3ZjRO7MaJ3ZjRO7MaJ3ZjRO7MaJ3ZjIZA7aIzuHJ4G80nFFn82hp44AqlYvkkuy4qFX2akveQe9lG3o+fN1QXvDUjZR06FHH5DWL6FE7ZT67w033VnvyUs2UnO7HL+Z1Je8g97KNvR8+bqgveGpGyjp0KOPyGsX0KJ2yn13hpvurPfkpZspOd2OX8zqS95B72Ubej583VBe8NSNlHToUcfkNYvoUTtlPrvDTfdWe/JSzZSc7scv5nUl7yD3so29Hz5uqC94akbKOnQo4/IaxfQonbKfXeGm+6s9+Slmyk53Y5fzOpL3kHvZRt6PnzdUF7w1I2UdOhRx+Q1i+hRO2U+u8NN91Z78lLNlJzuxy/aPB1K6clWZHQ6LvVvUadzWJlSCZlQt4mbmcWZjcIeILhDxBcIeILhDxBcIeILhDxAm1VBzpNmOTxHBtLoE2dAT+Iykjc6p3qcNZLmTFmRQqo7qjjMc3OL1wh4guEPEFwh4guEPEFwh4guEPEFwh4guEPEFwh4guEPEFwh4guEPEFwh4guEPEFwh4guEPEFwh4guEPEFwh4guEPEFwh4guEPEFwh4guEPEFwh4guEPEFwh4guEPEFwh4guEPEFwh4guEPEFwh4guEPEFwh4guEPEFwh4guEPEFwh4guEPEFwh4guEPEFwh4guEPEFwh4guEPEFwh4guEPEFwh4guEPEFwh4guEPEFwh4guEPEFwh4guEPEFwh4guEPEFwh4guEPEFwh4guEPEFwh4guEPEFwh4guEPEFwh4guEPEFwh4guEPEFwh4guEPEFwh4guEPEEPUNeLD53DnYN6q3GXImsKXnESKeyY0SaCMJe9mpL3kHvZRt6PnzdUF7w1I2UdOhRx+Q1i+hRO2U+u8NN91Z78lLNlJzuxy/aq7rjNZkeJGgkq9loS4TZA16LJyg+Hi4ePhw4+DZNZjCSeWRc3j19WEwLsrRhUsw/DaQa5TSbS0zINPPZqS95B72Ubej583VBe8NSNlHToUcfkNYvoUTtlPrvDTfdWe/JSzZSc7scv2qoEmmEqeAZIqN9mRy6Lm87l0pl8phsyDlUFCZ+xWJXGTxLjjJZdxZfHlcWOVmfDaQsnmEY4+dzfI9mpL3kHvZRt6PnzdUF7w1I2UdOhRx+Q1i+hRO2U+u8NN91Z78lLNlJzuxy/aqUNJmy8kqBUVPoiHzoTPzIWK9img0CfH0+y1eTvuqGNCnyHKTMlHK3wyVSmZz2ZwsmktPtq8W2pK86INns1Je8g97KNvR8+bqgveGpGyjp0KOPyGsX0KJ2yn13hpvurPfkpZspOd2OX7a4Mebovkdmzs4ZtHhBePM4uLLs6oSLOqEizqhIs6oSLOqEizqhITWl+1xPZlkzeYwUFBy2EyYCX7pxJpVP5ZESWeqDSua4c5jmzSS2dUJFnVCRZ1QkWdUJFnVCRZ1QkWdUJFnVCRZ1QkWdUJFnVCRZ1QkWdUJFnVCRZ1QkWdUJFnVCRZ1QkWdUJFnVCRZ1QkWdUJFnVCRZ1QkWdUJFnVCRZ1QkWdUJFnVCRZ1QkWdUJFnVCRZ1QkWdUJFnVCRZ1QkWdUJFnVCRZ1QkWdUJFnVCRZ1QkWdUJFnVCRZ1QkWdUJFnVCRZ1QkWdUJFnVCRZ1QkWdUJFnVCRZ1QkWdUJFnVCRZ1QkWdUJFnVCRZ1QkWdUJFnVCRZ1QkWdUJFnVCRZ1QkWdUJFnVCRZ1QkWdUJFnVCRZ1QkWdUJFnVCRDUeUCys7h44lEGeoE3rM/z079qpL3kHvZRt6PnzdUF7w1I2UdOhRx+Q1i+hRO2U+u8NN91Z78lLNlJzuxy/mdSXvIPeyjb0fPm6oL3hqRso6dCjj8hrF9Cidsp9d4ab7qz35KWbKTndjl/M6kveQe9lG3o+fN1QXvDUjZR06FHH5DWL6FE7ZT67w033VnvyUs2UnO7HL+Z1Je8g97KNvR8+bqgveGpGyjp0KOPyGsX0KJ2yn13hpvurPfkpZspOd2OX7c3ncmL8FxzCe57nG6w2ZxZGdqkbeNUjbxqkbeNUjbxqkbeNUjbwVlCIZ4ysc4mewa1NTki44YHTVI28apG3jVI28apG3jVI28apG3jVI28apG3jVI28apG3jVI28apG3jVI28apG3jVI28apG3jVI28apG3jVI28apG3jVI28apG3jVI28apG3jVI28apG3jVI28apG3jVI28apG3jVI28apG3jVI28apG3jVI28apG3jVI28apG3jVI28apG3jVI28apG3jVI28apG3jVI28apG3jVI28apG3jVI28apG3jVI28apG3jVI28apG3jVI28apG3jVI28apG3jVI28apG3jVI28apG3jVI28apG3jVI28apG3jVI28apG3jVI28apG3jVI28apG3jVI28apG3iEcw3mOz+GGhJdMpfN4TgmEq9qpL3kHvZRt6PnzdUF7w1I2UdOhRx+Q1i+hRO2U+u8NN91Z78lLNlJzuxy/ad06EutZTLiNsasC8Ksu5izjGpv6OEftH7R+0ftH7R+0F0yGEoTbInxVp8PzmK2RHCjSvbqhFQKep/O4xDUOm03ms/mGdNp7+0ftH7R+0ftH7R+0ftH7R+0ftH7R+0ftH7R+0ftH7R+0ftH7R+0ftH7R+0ftH7R+0ftH7R+0ftH7R+0ftH7R+0ftH7R+0ftH7R+0ftH7R+0ftH7R+0ftH7R+0ftH7R+0ftH7R+0ftH7R+0ftH7R+0ftH7R+0ftH7R+0ftH7R+0ftH6OEIQ5lX27GLInieNtcCVHJpZLlHK3s1Je8g97KNvR8+bqgveGpGyjp0KOPyGsX0KJ2yn13hpvurPfkpZspOd2OX7VVo+TAzugzSpmeymZ0midKGWz3JoGLy46Ch47L2How/aJJMBqE+nkyM88mBjnHw2j4fZjLFeNqdY+zUl7yD3so29Hz5uqC94akbKOnQo4/IaxfQonbKfXeGm+6s9+Slmyk53Y5ftVYk4mJYcllHvH2UhIM1VJUCun0lhIfLhIXJg8nYci/lmwoTwrZprLE2JRnmxQn3w2jynEzmClnBVM72akveQe9lG3o+fN1QXvDUjZR06FHH5DWL6FE7ZT67w033VnvyUs2UnO7HL9pzzbyg5xM4khmVcmnre32c58vPWP8A5jyx54DngOeA54DngOeAIiYqEps4yZGQGEsP4G6ZPGpSl7n80+4xaZhnrEjRvIh1IE1zZGd+eA54DngOeA54DngOeA54DngOeA54DngOeA54DngOeA54DngOeA54DngOeA54DngOeA54DngOeA54DngOeA54DngOeA54DngOeA54DngOeA54DngOeA54DngOeA54DngOeA54DngOeA54DngOeA54DngOeA54DngOeA54DngOeA54DngOeA54DngOeA54DngOeA54Dhwx4scOHhb2y5cnETmGyi+g6JExvibyxNCR7NSXvIPeyjb0fPm6oL3hqRso6dCjj8hrF9Cidsp9d4ab7qz35KWbKTndjl+3m5WVEZfFk5/GnxC4+PHMzPTtPx6dp+PTtPx6dp+PTtPx6dp+JdKZZKMn/GlXsTOSyedZWGTOPTtPx6dp+PTtPx6dp+PTtPx6dp+PTtPx6dp+PTtPx6dp+PTtPx6dp+PTtPx6dp+PTtPx6dp+PTtPx6dp+PTtPx6dp+PTtPx6dp+PTtPx6dp+PTtPx6dp+PTtPx6dp+PTtPx6dp+PTtPx6dp+PTtPx6dp+PTtPx6dp+PTtPx6dp+PTtPx6dp+PTtPx6dp+PTtPx6dp+PTtPx6dp+PTtPx6dp+PTtPx6dp+PTtPx6dp+PTtPx6dp+PTtPx6dp+PTtPx6dp+PTtPx6dp+PTtPx6dp+PTtPx6dp+PTtPx6dp+PTtPx6dp+PTtPx6dp+PTtPx6dp+PTtPx6dp+MkgkTIzOHOh+Dg4Mvhw4OD2qkveQe9lG3o+fN1QXvDUjZR06FHH5DWL6FE7ZT67w033VnvyUs2UnO7HL+Z1Je8g97KNvR8+bqgveGpGyjp0KOPyGsX0KJ2yn13hpvurPfkpZspOd2OX8zqS95B72Ubej583VBe8NSNlHToUcfkNYvoUTtlPrvDTfdWe/JSzZSc7scv5nUl7yD3so29Hz5uqC94akbKOnQo4/IaxfQonbKfXeGm+6s9+Slmyk53Y5ftrvUYbuh8ziS1x8dZom4cfFhl3nigLzxQF54oC88UBeeKAvPFAJnVsQA3zPJlZ3kJgkhplEKYC5uN5xKxEL8UazioFXlCi3M82Xki88UBeeKAvPFAXnigLzxQF54oC88UBeeKAvPFAXnigLzxQF54oC88UBeeKAvPFAXnigLzxQF54oC88UBeeKAvPFAXnigLzxQF54oC88UBeeKAvPFAXnigLzxQF54oC88UBeeKAvPFAXnigLzxQF54oC88UBeeKAvPFAXnigLzxQF54oC88UBeeKAvPFAXnigLzxQF54oC88UBeeKAvPFAXnigLzxQF54oC88UBeeKAvPFAXnigLzxQF54oC88UBeeKAvPFAXnigLzxQF54oC88UBeeKAvPFAXnigLzxQF54oC88UBeeKAyazRK4s3h4YhAH7N8cFH5JfkPtVJe8g97KNvR8+bqgveGpGyjp0KOPyGsX0KJ2yn13hpvurPfkpZspOd2OX7VUB1s7SMqQCNkDHHHixx4uL2KbTr54kSoy5IzLt4uLDhwx4uJ+7rJ44RVpgX5R8Mh4jPhM/LioWnC6aaOBS2LLJ39mpL3kHvZRt6PnzdUF7w1I2UdOhRx+Q1i+hRO2U+u8NN91Z78lLNlJzuxy/aqezCYRrwzRkx3syiKioGbQUbAyjOz4mUwUTFbFcjY2WpUc5lLf1cXF+7i+G0iZhHw7lJxAQ/s1Je8g97KNvR8+bqgveGpGyjp0KOPyGsX0KJ2yn13hpvurPfkpZspOd2OX7VXRAptlz2SuEkXsspQObuAXsvyPKwww4cMMMNkdBQ0xgoiXRjmUPnrfFkn6eTj4bSQQGbFYrz5dzJ7NSXvIPeyjb0fPm6oL3hqRso6dCjj8hrF9Cidsp9d4ab7qz35KWbKTndjl+0Yy5IzdJI0tGZeKQ0bnzWJnrfeKlk8Dh4seHC1m8AWs3gC1m8AWs3gC1m8AWs3gBNKRC4z6ZZPGpqDt9TZuhNyyWm+5x7YExc2VOEvH5QKRjhJBMszhINrN4AtZvAFrN4AtZvAFrN4AtZvAFrN4AtZvAFrN4AtZvAFrN4AtZvAFrN4AtZvAFrN4AtZvAFrN4AtZvAFrN4AtZvAFrN4AtZvAFrN4AtZvAFrN4AtZvAFrN4AtZvAFrN4AtZvAFrN4AtZvAFrN4AtZvAFrN4AtZvAFrN4AtZvAFrN4AtZvAFrN4AtZvAFrN4AtZvAFrN4AtZvAFrN4AtZvAFrN4AtZvAFrN4AtZvAFrN4AtZvAFrN4AtZvAFrN4AtZvAFrN4AtZvAFrN4AtZvAFrN4AtZvAFrN4AtZvAFrN4AtZvAFrN4AtZvAFrN4AtZvAFrN4AtZvAGVSvd7mZvDwcTeqSMvkE2hDQ4GXwEHKIGHlkt9mpL3kHvZRt6PnzdUF7w1I2UdOhRx+Q1i+hRO2U+u8NN91Z78lLNlJzuxy/mdSXvIPeyjb0fPm6oL3hqRso6dCjj8hrF9Cidsp9d4ab7qz35KWbKTndjl/M6kveQe9lG3o+fN1QXvDUjZR06FHH5DWL6FE7ZT67w033VnvyUs2UnO7HL+Z1Je8g97KNvR8+bqgveGpGyjp0KOPyGsX0KJ2yn13hpvurPfkpZspOd2OX8zqS95B72Ubej583VBe8NSNlHToUcfkNYvoUTtlPrvDTfdWe/JSzZSc7scv2lBUApJeUJkezyvFWVXDXNYmWIhmPrd1m5nFmcWud3A1zu4Gud3A1zu4Gud3A1zu4CZ1O3TkWY5OaYGwOuTl0hPzZ2Utzsnlp61aRZPDNVCqXOyPExzYiW653cDXO7ga53cDXO7ga53cDXO7ga53cDXO7ga53cDXO7ga53cDXO7ga53cDXO7ga53cDXO7ga53cDXO7ga53cDXO7ga53cDXO7ga53cDXO7ga53cDXO7ga53cDXO7ga53cDXO7ga53cDXO7ga53cDXO7ga53cDXO7ga53cDXO7ga53cDXO7ga53cDXO7ga53cDXO7ga53cDXO7ga53cDXO7ga53cDXO7ga53cDXO7ga53cDXO7ga53cDXO7ga53cDXO7ga53cDXO7ga53cDXO7ga53cDXO7ga53cDXO7ga53cDXO7ga53cDXO7ga53cDXO7ga53cDXO7gQ77XdQ2dw5vA3qrSepTNoWQuFLRlkZxkMvNJZ9mpL3kHvZRt6PnzdUF7w1I2UdOhRx+Q1i+hRO2U+u8NN91Z78lLNlJzuxy/aq7rZNZuokkQqXey05aJug67lc7wHBx8OZwcOZwbJvM4SSSqNnMcuatT9cFVMSlmL4bSAWuaR+QaUGnPs1Je8g97KNvR8+bqgveGpGyjp0KOPyGsX0KJ2yn13hpvurPfkpZspOd2OX7VUORTCTu+MMZGezIJXGTufS2TS6UwvHAyuDgs3Yq0oi5+l5vkUv48rMyOPiyc34bSFkcwjnGT2eZHs1Je8g97KNvR8+bqgveGpGyjp0KOPyGsX0KJ2yn13hpvurPfkpZspOd2OX7VRxos0cKRYI8ECNgoyWxmfLpj7FM9nBgNx3lrgT/ALqiTODAjagzJVyZ8MkUhnRonEGXi4wlq+a2RKOPgM3s1Je8g97KNvR8+bqgveGpGyjp0KOPyGsX0KJ2yn13hpvurPfkpZspOd2OX7a1M2byvkRxzM/ZtIds+ZmcXHl2hG0i0I2kWhG0i0I2kWhG0i0I2kJpTXamm8xyZyIeHyIXIy4aF3R8ugJtAZ8rmyg0xGonuZZs1hbQjaRaEbSLQjaRaEbSLQjaRaEbSLQjaRaEbSLQjaRaEbSLQjaRaEbSLQjaRaEbSLQjaRaEbSLQjaRaEbSLQjaRaEbSLQjaRaEbSLQjaRaEbSLQjaRaEbSLQjaRaEbSLQjaRaEbSLQjaRaEbSLQjaRaEbSLQjaRaEbSLQjaRaEbSLQjaRaEbSLQjaRaEbSLQjaRaEbSLQjaRaEbSLQjaRaEbSLQjaRaEbSLQjaRaEbSLQjaRaEbSLQjaRaEbSLQjaRaEbSLQjaRaEbSLQjaRaEbSLQjaRaEbSLQjaRaEbSLQjaRaEbSLQjaRaEbSLQjaRaEbSLQjaRaEbSIekQ2TKzuHMzkXaohKA8GOcmftVJe8g97KNvR8+bqgveGpGyjp0KOPyGsX0KJ2yn13hpvurPfkpZspOd2OX8zqS95B72Ubej583VBe8NSNlHToUcfkNYvoUTtlPrvDTfdWe/JSzZSc7scv5nUl7yD3so29Hz5uqC94akbKOnQo4/IaxfQonbKfXeGm+6s9+Slmyk53Y5fzOpL3kHvZRt6PnzdUF7w1I2UdOhRx+Q1i+hRO2U+u8NN91Z78lLNlJzuxy/bURYEvSaB4ZipObUTZtk8fFl8VxpmwuNM2FxpmwuNM2FxpmwuMs1CdOpbsrMbwSsgewoDvG0phH5kpOlxlmouNM2FxpmwuNM2FxpmwuNM2FxpmwuNM2FxpmwuNM2FxpmwuNM2FxpmwuNM2FxpmwuNM2FxpmwuNM2FxpmwuNM2FxpmwuNM2FxpmwuNM2FxpmwuNM2FxpmwuNM2FxpmwuNM2FxpmwuNM2FxpmwuNM2FxpmwuNM2FxpmwuNM2FxpmwuNM2FxpmwuNM2FxpmwuNM2FxpmwuNM2FxpmwuNM2FxpmwuNM2FxpmwuNM2FxpmwuNM2FxpmwuNM2FxpmwuNM2FxpmwuNM2FxpmwuNM2FxpmwuNM2FxpmwuNM2FxpmwuNM2FxpmwuNM2FxpmwuNM2FxpmwuNM2ENURZvEZ3Dk8JGUpP1NlfnSe+1Ul7yD3so29Hz5uqC94akbKOnQo4/IaxfQonbKfXeGm+6s9+Slmyk53Y5ftPndtDtbTnK45EdDwblGMcWbjzvys3NyM3gz8im6+cxmmeQbe1j3VF32GWZGuaIIj2OOPFxY8XF8LTNUz8jxrhTonLPXMyl0KTZBwy/ZqS95B72Ubej583VBe8NSNlHToUcfkNYvoUTtlPrvDTfdWe/JSzZSc7scv2qp5vjzG7GaSSI9kmGSYk43yQ2SmWxeEwl0LH4bFHn+eVk9M5ohY2OipnGREyjvhtH82zGWruZifl+zUl7yD3so29Hz5uqC94akbKOnQo4/IaxfQonbKfXeGm+6s9+Slmyk53Y5ftVbkomZaXOWKpk+y31LZus6zFNOZPkZOXD5OXD5WwyySGM5dmpbjVHIc8TA+T5PjJ8No8JRMs40HBaI72akveQe9lG3o+fN1QXvDUjZR06FHH5DWL6FE7ZT67w033VnvyUs2UnO7HL9pckVI7gE7mCcn1dqdTikbmsTmSbMTBS8nM4srN9NVGHpqow9NVGHpqow9NVGHpqowTVoTjlYmOTAFVljJCy1mS584me577C5M5nJ4T0TFBao4hMZjmy43emqjD01UYemqjD01UYemqjD01UYemqjD01UYemqjD01UYemqjD01UYemqjD01UYemqjD01UYemqjD01UYemqjD01UYemqjD01UYemqjD01UYemqjD01UYemqjD01UYemqjD01UYemqjD01UYemqjD01UYemqjD01UYemqjD01UYemqjD01UYemqjD01UYemqjD01UYemqjD01UYemqjD01UYemqjD01UYemqjD01UYemqjD01UYemqjD01UYemqjD01UYemqjD01UYemqjD01UYemqjD01UYemqjD01UYemqjD01UYemqjD01UYemqjD01UYemqjD01UYQ6WKdF53DDwreqai8K3N4WOP6ZJqT0fI0qTwh+zUl7yD3so29Hz5uqC94akbKOnQo4/IaxfQonbKfXeGm+6s9+Slmyk53Y5fzOpL3kHvZRt6PnzdUF7w1I2UdOhRx+Q1i+hRO2U+u8NN91Z78lLNlJzuxy/mdSXvIPeyjb0fPm6oL3hqRso6dCjj8hrF9Cidsp9d4ab7qz35KWbKTndjl/M6kveQe9lG3o+fN1QXvDUjZR06FHH5DWL6FE7ZT67w033VnvyUs2UnO7HL+Z1Je8g97KNvR8+bqgveGpGyjp0KOPyGsX0KJ2yn13hpvurPfkpZspOd2OX7UREZELD5kTErtVcSVOJrElpL8aySsY4448F5RWheUVoXlFaF5RWheUVoXlFaCaVjpXGTLJglbTxSiOrBVgzqn+5VliTpDyjEHRS1ArJfRmOZDJbeUVoXlFaF5RWheUVoXlFaF5RWheUVoXlFaF5RWheUVoXlFaF5RWheUVoXlFaF5RWheUVoXlFaF5RWheUVoXlFaF5RWheUVoXlFaF5RWheUVoXlFaF5RWheUVoXlFaF5RWheUVoXlFaF5RWheUVoXlFaF5RWheUVoXlFaF5RWheUVoXlFaF5RWheUVoXlFaF5RWheUVoXlFaF5RWheUVoXlFaF5RWheUVoXlFaF5RWheUVoXlFaF5RWheUVoXlFaF5RWheUVoXlFaF5RWheUVoXlFaF5RWheUVoXlFaF5RWheUVoXlFaF5RWheUVoXlFaGTWTVPDN4cc9vVUBGVhm8IUjvhjhx4YcXD7NSXvIPeyjb0fPm6oL3hqRso6dCjj8hrF9Cidsp9d4ab7qz35KWbKTndjl+1VjcvOStL5W3snezT5cvOEHW2VyCO252flQ+Xx5+c85yM8cgs01nnH8NpauWnKsJ1MUnOns1Je8g97KNvR8+bqgveGpGyjp0KOPyGsX0KJ2yn13hpvurPfkpZspOd2OX7VTvGY8TxTXhMPZlmMThMoTGDk2MRjKIHGL2LBjHcKTHTGWYc+WHP4bSKxj8HMTXCG9mpL3kHvZRt6PnzdUF7w1I2UdOhRx+Q1i+hRO2U+u8NN91Z78lLNlJzuxy/aqzNum5jhJU4go+zT9bdN16XCVTWL25+RlROTmQ+e8duU9bes82Lef8NpWtsnCXJ5M1cOXs1Je8g97KNvR8+bqgveGpGyjp0KOPyGsX0KJ2yn13hpvurPfkpZspOd2OX7UXCw0fDZ0HGrtSaTA+TaJMaR8dHFbsOPiwy7OC4izguIs4LiLOC4izguIs4riEyo4/QmeTFq6maXERHynCEhOdywIqnC6lDPJSnH+jbNvMs3PS6zguIs4LiLOC4izguIs4LiLOC4izguIs4LiLOC4izguIs4LiLOC4izguIs4LiLOC4izguIs4LiLOC4izguIs4LiLOC4izguIs4LiLOC4izguIs4LiLOC4izguIs4LiLOC4izguIs4LiLOC4izguIs4LiLOC4izguIs4LiLOC4izguIs4LiLOC4izguIs4LiLOC4izguIs4LiLOC4izguIs4LiLOC4izguIs4LiLOC4izguIs4LiLOC4izguIs4LiLOC4izguIs4LiLOC4izguIs4LiLOC4izguIs4LiLOC4izguIs4LiLOC4izguIs4LiMmjitXFm8OEQ3qlokaTTaFNqjcPDwZfDhwcHs1Je8g97KNvR8+bqgveGpGyjp0KOPyGsX0KJ2yn13hpvurPfkpZspOd2OX8zqS95B72Ubej583VBe8NSNlHToUcfkNYvoUTtlPrvDTfdWe/JSzZSc7scv5nUl7yD3so29Hz5uqC94akbKOnQo4/IaxfQonbKfXeGm+6s9+Slmyk53Y5fzOpL3kHvZRt6PnzdUF7w1I2UdOhRx+Q1i+hRO2U+u8NN91Z78lLNlJzuxy/mdSXvIPeyjb0fPm6oL3hqRso6dCjj8hrF9Cidsp9d4ab7qz35KWbKTndjl+0tKykhBU+mSjn5eKkTiVbmsTklfMWhYc3M4s3N9ZFeHrIrw9ZFeHrIrw9ZFeHrIrwTR6bmEqmOTGl5mr1Cm6uQZ8uitz2X5F9sMNwE4qqC8ByymTDNjzL6yK8PWRXh6yK8PWRXh6yK8PWRXh6yK8PWRXh6yK8PWRXh6yK8PWRXh6yK8PWRXh6yK8PWRXh6yK8PWRXh6yK8PWRXh6yK8PWRXh6yK8PWRXh6yK8PWRXh6yK8PWRXh6yK8PWRXh6yK8PWRXh6yK8PWRXh6yK8PWRXh6yK8PWRXh6yK8PWRXh6yK8PWRXh6yK8PWRXh6yK8PWRXh6yK8PWRXh6yK8PWRXh6yK8PWRXh6yK8PWRXh6yK8PWRXh6yK8PWRXh6yK8PWRXh6yK8PWRXh6yK8PWRXh6yK8PWRXh6yK8PWRXh6yK8PWRXh6yK8PWRXh6yK8PWRXhkLWskLncERDt5qbrml03hZcpqcKIUVZJcqUEjezUl7yD3so29Hz5uqC94akbKOnQo4/IaxfQonbKfXeGm+6s9+Slmyk53Y5ftVcVbmZkW2VpLkey3dVZuiq0FNRZRk52XEZPBn5WwyTqFLZemhjjlNUCeqooE/UQyfDaPKtzLKMJvROP9mpL3kHvZRt6PnzdUF7w1I2UdOhRx+Q1i+hRO2U+u8NN91Z78lLNlJzuxy/aqllOPLrtJvN4n2SeXpgbTbJStKZZB+Xy2EgMNikyCINSdmgsQkXBxMui8+Xxvw2kAVZhMl7Mht4PZqS95B72Ubej583VBe8NSNlHToUcfkNYvoUTtlPrvDTfdWe/JSzZSc7scv2n3tJy3PpxkZxbNpPNBDMEWVTnv4ODjzOPhy8umwxsxyYwQThle3VGWNGWQm2ar2k/wD/AF8MTpNTyrJqhCWnjNWxyxr6TZJUx9mpL3kHvZRt6PnzdUF7w1I2UdOhRx+Q1i+hRO2U+u8NN91Z78lLNlJzuxy/bUhEklWGE4INTc+msznOzeLNFtBnItoM5FtBnItoM5FtBnItoM5CatEbcksdlzYjb8cMOLDHDFQGXNfU6PzJubbaDORbQZyLaDORbQZyLaDORbQZyLaDORbQZyLaDORbQZyLaDORbQZyLaDORbQZyLaDORbQZyLaDORbQZyLaDORbQZyLaDORbQZyLaDORbQZyLaDORbQZyLaDORbQZyLaDORbQZyLaDORbQZyLaDORbQZyLaDORbQZyLaDORbQZyLaDORbQZyLaDORbQZyLaDORbQZyLaDORbQZyLaDORbQZyLaDORbQZyLaDORbQZyLaDORbQZyLaDORbQZyLaDORbQZyLaDORbQZyLaDORbQZyLaDORbQZyLaDORbQZyLaDORbQZyLaDORbQZyLaDORbQZyLaDORbQZyISmyziEz+HPxT9J00SmV4ydN/aqS95B72Ubej583VBe8NSNlHToUcfkNYvoUTtlPrvDTfdWe/JSzZSc7scv5nUl7yD3so29Hz5uqC94akbKOnQo4/IaxfQonbKfXeGm+6s9+Slmyk53Y5fzOpL3kHvZRt6PnzdUF7w1I2UdOhRx+Q1i+hRO2U+u8NN91Z78lLNlJzuxy/mdSXvIPeyjb0fPm6oL3hqRso6dCjj8hrF9Cidsp9d4ab7qz35KWbKTndjl+2sjum+oNm4wCiZlWxrPBx8XDwXcGti7g1sXcGti7g1sXcGti7g1sJnUYaop0yyZLC5OblROVwZ+RujYyElsLmx0eoNS1p5AmObKcLuDWxdwa2LuDWxdwa2LuDWxdwa2LuDWxdwa2LuDWxdwa2LuDWxdwa2LuDWxdwa2LuDWxdwa2LuDWxdwa2LuDWxdwa2LuDWxdwa2LuDWxdwa2LuDWxdwa2LuDWxdwa2LuDWxdwa2LuDWxdwa2LuDWxdwa2LuDWxdwa2LuDWxdwa2LuDWxdwa2LuDWxdwa2LuDWxdwa2LuDWxdwa2LuDWxdwa2LuDWxdwa2LuDWxdwa2LuDWxdwa2LuDWxdwa2LuDWxdwa2LuDWxdwa2LuDWxdwa2LuDWxdwa2LuDWxdwa2LuDWxdwa2LuDWxdwa2LuDWxdwa2LuDWxdwa2MirS1fNzuDLzUcc2hy9ZPFimHtVJe8g97KNvR8+bqgveGpGyjp0KOPyGsX0KJ2yn13hpvurPfkpZspOd2OX7VRR3MxboQ4MoESYzGYTiPiJrNvYpnvMn5bOUub4o26os8ufqyfZojxF+GFwyT8oTyDMxWYi6jic8k3FFmH2akveQe9lG3o+fN1QXvDUjZR06FHH5DWL6FE7ZT67w033VnvyUs2UnO7HL9qqGYJhOnemCBjPZL02jZCYJZPJdKorjj5XBxuZsVScRZdTE3T+AzM7MiMziiM74bSEn8wgHFT6QZHs1Je8g97KNvR8+bqgveGpGyjp0KOPyGsX0KJ2yn13hpvurPfkpZspOd2OX7VXVFppJVLkq3wHstVRmbLquxVIcu4MvgyuDhy8vZOZVCTyUR0kj1sSqfomqRiTMx/DaP6LTSE+6l4m/s1Je8g97KNvR8+bqgveGpGyjp0KOPyGsX0KJ2yn13hpvurPfkpZspOd2OX7SjpyUFYJkzIB9XelIsxLmkTMUazWVuwyMziyszRg64aMHXDRg64aMHXDRg64aMHXBNKabq1AmOTkzVq7S09awUs2Tlnc7plhDdTJcmKilBpwu0IcxzYWG0YOuGjB1w0YOuGjB1w0YOuGjB1w0YOuGjB1w0YOuGjB1w0YOuGjB1w0YOuGjB1w0YOuGjB1w0YOuGjB1w0YOuGjB1w0YOuGjB1w0YOuGjB1w0YOuGjB1w0YOuGjB1w0YOuGjB1w0YOuGjB1w0YOuGjB1w0YOuGjB1w0YOuGjB1w0YOuGjB1w0YOuGjB1w0YOuGjB1w0YOuGjB1w0YOuGjB1w0YOuGjB1w0YOuGjB1w0YOuGjB1w0YOuGjB1w0YOuGjB1w0YOuGjB1w0YOuGjB1w0YOuGjB1w0YOuGjB1w0YOuGjB1w0YOuGjB1w0YOuGjB1w0YOuGjB1whWUOyi87hyMpvNJ1SDHN4WeL+VCtICSXJaUyr7NSXvIPeyjb0fPm6oL3hqRso6dCjj8hrF9Cidsp9d4ab7qz35KWbKTndjl/M6kveQe9lG3o+fN1QXvDUjZR06FHH5DWL6FE7ZT67w033VnvyUs2UnO7HL+Z1Je8g97KNvR8+bqgveGpGyjp0KOPyGsX0KJ2yn13hpvurPfkpZspOd2OX8zqS95B72Ubej583VBe8NSNlHToUcfkNYvoUTtlPrvDTfdWe/JSzZSc7scv5nUl7yD3so29Hz5uqC94akbKOnQo4/IaxfQonbKfXeGm+6s9+Slmyk53Y5ftTyeyYsSaNMBhXerzwwE1iZC37NqrO5zMzi4+C6m7sXU3di6m7sXU3di6m7sXU3dhNKvqwSeZZOUqaHLwnLhiVlHlNdzh3MJe2kqYGZQ1Cq9LrO5jm4J1dTd2LqbuxdTd2LqbuxdTd2LqbuxdTd2LqbuxdTd2LqbuxdTd2LqbuxdTd2LqbuxdTd2LqbuxdTd2LqbuxdTd2LqbuxdTd2LqbuxdTd2LqbuxdTd2LqbuxdTd2LqbuxdTd2LqbuxdTd2LqbuxdTd2LqbuxdTd2LqbuxdTd2LqbuxdTd2LqbuxdTd2LqbuxdTd2LqbuxdTd2LqbuxdTd2LqbuxdTd2LqbuxdTd2LqbuxdTd2LqbuxdTd2LqbuxdTd2LqbuxdTd2LqbuxdTd2LqbuxdTd2LqbuxdTd2LqbuxdTd2LqbuxdTd2LqbuxdTd2LqbuxdTd2LqbuxD1V3b5Ofw5ma3irZIDTNoQrr3BxkLM4TJjoL2akveQe9lG3o+fN1QXvDUjZR06FHH5DWL6FE7ZT67w033VnvyUs2UnO7HL9qrq4GbcM2krdy/7LIXATdAF7kM2wwxwxw54bIyMhpfC58fFugXafuGWWfKDN/htJNwE2N5RnqGGb2akveQe9lG3o+fN1QXvDUjZR06FHH5DWL6FE7ZT67w033VnvyUs2UnO7HL9qp7BTGEeGac6O9mVQ8TFzWChIKT5WdDymCyIrYrsLGx6UnSBluGGPDh+ni+G0ioGPz3LTeNh/ZqS95B72Ubej583VBe8NSNlHToUcfkNYvoUTtlPrvDTfdWe/JSzZSc7scv2qo7Vp2qZXl61kHHDHDHlj7FN9q07WFVZcqJi28XDw8fDjw8T8Grz1u6sTCbS74Zk5ObEZvBkZFNprU1QRL4w3Hf2akveQe9lG3o+fN1QXvDUjZR06FHH5DWL6FE7ZT67w033VnvyUs2UnO7HL9rHDDHDliutNpva1zSJMsLnUYpV9TjwyLMMALMMALMMALMMALMMALMMAE0pFoeVplkzRQC2WZAT5FCFsrbjmRygohdjCieVAo/o5P4/NjyBZhgBZhgBZhgBZhgBZhgBZhgBZhgBZhgBZhgBZhgBZhgBZhgBZhgBZhgBZhgBZhgBZhgBZhgBZhgBZhgBZhgBZhgBZhgBZhgBZhgBZhgBZhgBZhgBZhgBZhgBZhgBZhgBZhgBZhgBZhgBZhgBZhgBZhgBZhgBZhgBZhgBZhgBZhgBZhgBZhgBZhgBZhgBZhgBZhgBZhgBZhgBZhgBZhgBZhgBZhgBZhgBZhgBZhgBZhgBZhgBZhgBZhgBZhgBZhgBZhgBZhgBZhgBZhgBZhgBZhgBZhgBZhgBZhgBZhgBC0ZJN9fgxim/U/G/t+mMOZZb7VSXvIPeyjb0fPm6oL3hqRso6dCjj8hrF9Cidsp9d4ab7qz35KWbKTndjl/M6kveQe9lG3o+fN1QXvDUjZR06FHH5DWL6FE7ZT67w033VnvyUs2UnO7HL+Z1Je8g97KNvR8+bqgveGpGyjp0KOPyGsX0KJ2yn13hpvurPfkpZspOd2OX8zqS95B72Ubej583VBe8NSNlHToUcfkNYvoUTtlPrvDTfdWe/JSzZSc7scv2+Lj4eDhx4+PE1lfDHHh4vuwrD7sKw+7CsPuwrD7sKw+7SsIOOg5hk4Z8F7EZMoCXZeGbMfuwrD7sKw+7CsPuwrD7sKw+7CsPuwrD7sKw+7CsPuwrD7sKw+7CsPuwrD7sKw+7CsPuwrD7sKw+7CsPuwrD7sKw+7CsPuwrD7sKw+7CsPuwrD7sKw+7CsPuwrD7sKw+7CsPuwrD7sKw+7CsPuwrD7sKw+7CsPuwrD7sKw+7CsPuwrD7sKw+7CsPuwrD7sKw+7CsPuwrD7sKw+7CsPuwrD7sKw+7CsPuwrD7sKw+7CsPuwrD7sKw+7CsPuwrD7sKw+7CsPuwrD7sKw+7CsPuwrD7sKw+7CsPuwrD7sKw+7CsPuwrD7sKw+7CsPuwrD7sKw4DSWc3jwy8rDHDiwwxw9qpL3kHvZRt6PnzdUF7w1I2UdOhRx+Q1i+hRO2U+u8NN91Z78lLNlJzuxy/acs4omtnTSKP5rXV4K7uAnERFm/HPz8ccccfrZw+tnD62cPrZw+tnD62cE/V5T0rm+VO08Yg+7IclDZieKHufvUDz0NjMxI0gOilKCo02zZ4e/rZw+tnD62cPrZw+tnD62cPrZw+tnD62cPrZw+tnD62cPrZw+tnD62cPrZw+tnD62cPrZw+tnD62cPrZw+tnD62cPrZw+tnD62cPrZw+tnD62cPrZw+tnD62cPrZw+tnD62cPrZw+tnD62cPrZw+tnD62cPrZw+tnD62cPrZw+tnD62cPrZw+tnD62cPrZw+tnD62cPrZw+tnD62cPrZw+tnD62cPrZw+tnD62cPrZw+tnD62cPrZw+tnD62cPrZw+tnD62cPrZw+tnDhiIjg4sOLhb0+BdW+ziF8uQ9aCYvibytSyP7NSXvIPeyjb0fPm6oL3hqRso6dCjj8hrF9Cidsp9d4ab7qz35KWbKTndjl+1VlUmYGhxmQQcPZRtQZqlSqFVQ5LCxGXGQ2TGZOw4GDKKhSnZpzzeapweTVNzmYPhtHlSpjL1FOCUZ3s1Je8g97KNvR8+bqgveGpGyjp0KOPyGsX0KJ2yn13hpvurPfkpZspOd2OX7VVciTAsOkiDRneynBPmagqAXCPJoGEy4GCh4HL2HwvYm0jmEq8M6k0wLs4ji/NvhtH0izKZrGbFB9qpL3kHvZRt6PnzdUF7w1I2UdOhRx+Q1i+hRO2U+u8NN91Z78lLNlJzuxy/aeC1qQOnTPiLOerSKKchxlzyspvPAc8BzwHPAc8BzwHPASSRTozTPIkpcp5MLnCPxvAtKx7qhbADAc5/HLuh8xl0wlEbnS2bc8BzwHPAc8BzwHPAc8BzwHPAc8BzwHPAc8BzwHPAc8BzwHPAc8BzwHPAc8BzwHPAc8BzwHPAc8BzwHPAc8BzwHPAc8BzwHPAc8BzwHPAc8BzwHPAc8BzwHPAc8BzwHPAc8BzwHPAc8BzwHPAc8BzwHPAc8BzwHPAc8BzwHPAc8BzwHPAc8BzwHPAc8BzwHPAc8BzwHPAIc3NWnCmTJLybtjb0WG0pZAJ2XfZqS95B72Ubej583VBe8NSNlHToUcfkNYvoUTtlPrvDTfdWe/JSzZSc7scv258Wi8aYDilRm42qtqzOPHj49KLaRpRbSNKLaRpRbSNKLaRpRbSCel6bp9wY8JG9g3pClag5mGceNKLaRpRbSNKLaRpRbSNKLaRpRbSNKLaRpRbSNKLaRpRbSNKLaRpRbSNKLaRpRbSNKLaRpRbSNKLaRpRbSNKLaRpRbSNKLaRpRbSNKLaRpRbSNKLaRpRbSNKLaRpRbSNKLaRpRbSNKLaRpRbSNKLaRpRbSNKLaRpRbSNKLaRpRbSNKLaRpRbSNKLaRpRbSNKLaRpRbSNKLaRpRbSNKLaRpRbSNKLaRpRbSNKLaRpRbSNKLaRpRbSNKLaRpRbSNKLaRpRbSNKLaRpRbSNKLaRpRbSNKLaRpRbSNKLaRpRbSNKLaRpRbSNKLaRpRbSNKLaRpRbSNKLaRpRbSMprDbsjN4M7IlMmlEggcuWSP2qkveQe9lG3o+fN1QXvDUjZR06FHH5DWL6FE7ZT67w033VnvyUs2UnO7HL+Z1Je8g97KNvR8+bqgveGpGyjp0KOPyGsX0KJ2yn13hpvurPfkpZspOd2OX8zqS95B72Ubej583VBe8NSNlHToUcfkNYvoUTtlPrvDTfdWe/JSzZSc7scv5nUl7yD3so29Hz5uqC94akbKOnQo4/IaxfQonbKfXeGm+6s9+Slmyk53Y5ftrrUWbqh00iy3m51ZooYZnFhkXnSsLzpWF50rC86VhedKwvOlYJnVpb8cJlkyo7SGfyU0ymFn5c3G43lciF+MNByUGruhJbmObLyPedKwvOlYXnSsLzpWF50rC86VhedKwvOlYXnSsLzpWF50rC86VhedKwvOlYXnSsLzpWF50rC86VhedKwvOlYXnSsLzpWF50rC86VhedKwvOlYXnSsLzpWF50rC86VhedKwvOlYXnSsLzpWF50rC86VhedKwvOlYXnSsLzpWF50rC86VhedKwvOlYXnSsLzpWF50rC86VhedKwvOlYXnSsLzpWF50rC86VhedKwvOlYXnSsLzpWF50rC86VhedKwvOlYXnSsLzpWF50rC86VhedKwvOlYXnSsLzpWF50rC86VhedKwvOlYQ1Zom8Wdw4RiAPzb44GOyS8X/aqS95B72Ubej583VBe8NSNlHToUcfkNYvoUTtlPrvDTfdWe/JSzZSc7scv2qoDrJ0kJSgEcIGOOPFjjxcXsU2XXzxJFRlyQmbbxY4cOGPFxP4dZPHBqtMC7J/hkPEREHEZUXCU4nTzNwiXRZbO/s1Je8g97KNvR8+bqgveGpGyjp0KOPyGsX0KJ2yn13hpvurPfkpZspOd2OX7VT6YzCOeGaMmO9mURUVAzaBjoGUZufEymCiInYrsbGyxKjnMpb+ri4v3cXw2kRMI+GcpOICH9mpL3kHvZRt6PnzdUF7w1I2UdOhRx+Q1i+hRO2U+u8NN91Z78lLNlJzuxy/aq6IFNuCeyVwsh9llCBzZwC9l+Q5WGGHDhhhhsjoKGmMFES6Mcuh8+b2sc/Tqc/DaR6BzYrlefrqZPZqS95B72Ubej583VBe8NSNlHToUcfkNYvoUTtlPrvDTfdWe/JSzZSc7scv2jGXJEb5FGlozLxSFmGbNYmet8zKXDwsvM4uDC108MWunhi108MWunhi108MWunhhM6RS5z6ZZPGpqDN8TZuRNyyWnG5yDXkxc6VOEvH1QKSDhS/Mc3AhWunhi108MWunhi108MWunhi108MWunhi108MWunhi108MWunhi108MWunhi108MWunhi108MWunhi108MWunhi108MWunhi108MWunhi108MWunhi108MWunhi108MWunhi108MWunhi108MWunhi108MWunhi108MWunhi108MWunhi108MWunhi108MWunhi108MWunhi108MWunhi108MWunhi108MWunhi108MWunhi108MWunhi108MWunhi108MWunhi108MWunhi108MWunhi108MWunhi108MWunhi108MWunhi108MWunhi108MWunhi108MQ9LV4GdncOVxt6pIQMim0IZ3Ay+Ag5RAw8slvs1Je8g97KNvR8+bqgveGpGyjp0KOPyGsX0KJ2yn13hpvurPfkpZspOd2OX8zqS95B72Ubej583VBe8NSNlHToUcfkNYvoUTtlPrvDTfdWe/JSzZSc7scv5nUl7yD3so29Hz5uqC94akbKOnQo4/IaxfQonbKfXeGm+6s9+Slmyk53Y5fzOpL3kHvZRt6PnzdUF7w1I2UdOhRx+Q1i+hRO2U+u8NN91Z78lLNlJzuxy/mdSXvIPeyjb0fPm6oL3hqRso6dCjj8hrF9Cidsp9d4ab7qz35KWbKTndjl+0fz6U0wKMyPR3XarKq5nmsTK0N435u8zOPi48deLvBrxd4NeLvBrxd4NeLvBrxd4E0qfunIsxycwxtidWnLoyfmT0obnYvITxq0gyfN1AqZOxO0xzYiV68XeDXi7wa8XeDXi7wa8XeDXi7wa8XeDXi7wa8XeDXi7wa8XeDXi7wa8XeDXi7wa8XeDXi7wa8XeDXi7wa8XeDXi7wa8XeDXi7wa8XeDXi7wa8XeDXi7wa8XeDXi7wa8XeDXi7wa8XeDXi7wa8XeDXi7wa8XeDXi7wa8XeDXi7wa8XeDXi7wa8XeDXi7wa8XeDXi7wa8XeDXi7wa8XeDXi7wa8XeDXi7wa8XeDXi7wa8XeDXi7wa8XeDXi7wa8XeDXi7wa8XeDXi7wa8XeDXi7wa8XeDXi7wa8XeDXi7wa8XeDXi7wa8XeDXi7wa8XeDXi7wa8XeDXi7wZD9nfZGbw53C3irSd5VN4WQuHLRjkRvkMAaC17NSXvIPeyjb0fPm6oL3hqRso6dCjj8hrF9Cidsp9d4ab7qz35KWbKTndjl+1V4W6aTZQpIhEt9lpa1TdBV4K52geDj4czg4czg2TeZwkklUbOY5dVan65KsYlMMXw2kCt00mMKaEGnXs1Je8g97KNvR8+bqgveGpGyjp0KOPyGsX0KJ2yn13hpvurPfkpZspOd2OX7VUORzCUu+MUZGezIJZGTuey2TS6Uw2ZBSqDg83Yq0ojJ+l5vkUu48rMyOPiyc34bSFkkwjXFzyd5Hs1Je8g97KNvR8+bqgveGpGyjp0KOPyGsX0KJ2yn13hpvurPfkpZspOd2OX7VR5o8zcGRoI9EGMg4uXxedAR/sU0GdT85HeWuAPu6oizyfoyoczVUn/AAyRyOcmabwkgLzB2rZrZUo4/un2akveQe9lG3o+fN1QXvDUjZR06FHH5DWL6FE7ZT67w033VnvyUs2UnO7HL9ta2Yt3X2J45qfc+kE27NzeLjyrPrchZ9bkLPrchZ9bkLPrchZ+bkEzppNWTeZZM544eGh4OHy4SE3TCWS+bwGfK5soNL9qZ6mObNYGz63IWfW5Cz63IWfW5Cz63IWfW5Cz63IWfW5Cz63IWfW5Cz63IWfW5Cz63IWfW5Cz63IWfW5Cz63IWfW5Cz63IWfW5Cz63IWfW5Cz63IWfW5Cz63IWfW5Cz63IWfW5Cz63IWfW5Cz63IWfW5Cz63IWfW5Cz63IWfW5Cz63IWfW5Cz63IWfW5Cz63IWfW5Cz63IWfW5Cz63IWfW5Cz63IWfW5Cz63IWfW5Cz63IWfW5Cz63IWfW5Cz63IWfW5Cz63IWfW5Cz63IWfW5Cz63IWfW5Cz63IWfW5Cz63IWfW5Cz63IWfW5Cz63IWfW5Cz63IWfW5Cz63IWfW5CFpCNsyc/h44hFGooM3/AP8A1Ca+1Ul7yD3so29Hz5uqC94akbKOnQo4/IaxfQonbKfXeGm+6s9+Slmyk53Y5fzOpL3kHvZRt6PnzdUF7w1I2UdOhRx+Q1i+hRO2U+u8NN91Z78lLNlJzuxy/mdSXvIPeyjb0fPm6oL3hqRso6dCjj8hrF9Cidsp9d4ab7qz35KWbKTndjl/M6kveQe9lG3o+fN1QXvDUjZR06FHH5DWL6FE7ZT67w033VnvyUs2UnO7HL+Z1Je8g97KNvR8+bqgveGpGyjp0KOPyGsX0KJ2yn13hpvurPfkpZspOd2OX8zqS95B72Ubej583VBe8NSNlHToUcfkNYvoUTtlPrvDTfdWe/JSzZSc7scv5nUl7yD3so29Hz5uqC94akbKOnQo4/IaxfQonbKfXeGm+6s9+Slmyk53Y5fzOpL3kHvZRt6PnzdUF7w1I2UdOhRx+Q1i+hRO2U+u8NN91Z78lLNlJzuxy/mdSXvIPeyjb0fPm6oL3hqRso6dCjj8hrF9Cidsp9d4ab7qz35KWbKTndjl/M6kveQe9lG3o+fN1QXvDUjZR06FHH5DWL6FE7ZT67w033VnvyUs2UnO7HL+Z1Je8g97KNvR8+bqgveGpGyjp0KOPyGsX0KJ2yn13hpvurPfkpZsIKjntLJ/gaU61tOzGtp2Y1tOzGtp2Y1tOzGtp2Y1tOzGtp2Y1tOzGtp2Y1tOzGtp2Y1tOzGtp2Y1tOzGtp2Y1tOzGtp2Y1tOzGtp2Y1tOzGtp2Y1tOzGtp2Y1tOzGtp2Y1tOzGtp2Y1tOzGtp2Y1tOzGtp2Y1tOzGtp2Y1tOzGtp2Y1tOzGtp2Y1tOzGtp2Y1tOzGtp2Y1tOzGtp2Y1tOzGtp2Y1tOzGtp2Y1tOzGtp2Y1tOzGtp2Y1tOzGtp2Y1tOzGtp2Y1tOzGtp2Y1tOzGtp2Y1tOzGtp2Y1tOzGtp2Y1tOzGtp2Y1tOzGtp2Y1tOzGtp2Y1tOzGtp2Y1tOzGtp2Y1tOzGtp2Y1tOzGtp2Y1tOzGtp2Y1tOzGtp2Y1tOzGtp2Y1tOzGtp2Y1tOzGtp2Y1tOzGtp2Y1tOzGtp2Y1tOzGtp2Y1tOzGtp2Y1tOzGtp2Y1tOzGtp2Y1tOzGtp2Y1tOzGtp2Y1tOzGtp2Y1tOzGtp2Y1tOzGtp2Y1tOzGtp2Y1tOzGtp2YOh3NqimOKN558aNvR8+bqgveGpGyjp0KOPyGsX0KJ2yn13hpvurPfkpZ87o29Hz5uqC94akbKOnQo4/IaxfQonbKfXeGm+6syX47NkKZmnL+dUfZBHy9AzRPYnbUF7w1I2UdOhRx+Q1i+hRO2U+u8NN9zmkIkrjEdnSZTZUEtPKOHKOIah/OENQtQXBnuDIafIslReRFMS+l5Y21Be8NSNlHToUcfkNYvoUTtlPrvDTfeqiHJStkm4ZGqEwpLtWjYrjiIa0S10WiWui0S10WiWui0S10WiWui0S10WiWui0S10WiWui0S10WiWui0S10WiWui0S10WiWui0S10WiWui0S10WiWui0S10WiWui0S10WiWui0S10WiWui0S10WiWui0S10WiWui0S10WiWui0S10WiWui0S10WiWui0S10WiWui0S10WiWui0S10WiWui0S10WiWui0S10WiWui0S10WiWui0S10WiWui0S10WiWui0S10WiWui0S10WiWui0S10WiWui0S10WiWui0S10WiWui0S10WiWui0S10WiWui0S10WiWui0S10WiWui0S10WiWui0S10WiWui0S10WiWui0S10WiWui0S10WiWui0S10WiWui0S10WiWui0S10WiWui0S10WiWui0S10WiWui0S10WiWui0S10WiWui0S10WiWui0S10WiWui0S10WiWui0S10WiWui0S10WiWui0S10WiWui0S10WiWui0S10WiWui0S10WiWui0S10WiWui0S10WiWui0S10WiWuiTUnGqSyM4IqMThKk5SKQ8JYTXdUF7w1I2UdOhRx+Q1i+hRO2U+u8NN/wDg9QXvDUjZR06FHH5DWL6FE7ZT67w03/4PUF7w1I2UdOhRx+Q1gYDiiG7lyO4fFjk8hy87RMY+K/4M+CfQxjdmp0xhfGj/AAHFDt4MkfxfIKlxQzTY0M25mR4yCdzAtT2XGKUo2pklWVLi2pcg/wCCLeqklRVKjIpk9nc4jzFOpgYJr400ShmlNoZSzM/5AoRRgFAIpgI00NRbmhNM82KU78acz0YRCDBmJSpULFQ0dDZMZB/8Cj5hAyqCiJhMaiD0clwZmyk3TzxKpbmZyM0pKUlT0oQCfEUvkaV/IarSBZxDV+GWSS7Gw1AFkbfk5Ba4k3qmNbOkJlYGbJeq1CIy/q5etBqI1oNRGtBqI1oNRGtBqI1oNRGtBqI1oNRGtBqI1oNRGtBqI1oNRGtBqI1oNRGtBqI1oNRGtBqI1oNRGtBqI1oNRGtBqI1oNRGtBqI1oNRGtBqI1oNRGtBqI1oNRGtBqI1oNRGtBqI1oNRGtBqI1oNRGtBqI1oNRGtBqI1oNRGtBqI1oNRGtBqI1oNRGtBqI1oNRGtBqI1oNRGtBqI1oNRGtBqI1oNRGtBqI1oNRGtBqI1oNRGtBqI1oNRGtBqI1oNRGtBqI1oNRGtBqI1oNRGtBqI1oNRGtBqI1oNRGtBqI1oNRGtBqI1oNRGtBqI1oNRGtBqI1oNRGtBqI1oNRGtBqI1oNRGtBqI1oNRGtBqI1oNRGtBqI1oNRGtBqI1oNRGtBqI1oNRGtBqI1oNRGtBqI1oNRGtBqI1oNRGtBqI1oNRGtBqI1oNRGtBqI1oNRGtBqI1oNRGtBqI1oNRGtBqI1oNRGtBqI1oNRGtBqI1oNRGtBqI1oNRGtBqI1oNRGtBqI1oNRGtBqI1oNRGtBqI1oNRGtBqI1oNRGtBqI1oNRGtBqI1oNRGe9dp8PwY52YpVU5r5Khs7hKrnX6LK5ThzS/F7KUqBZx8V+JWSdfInCokXHBpPPEwMakp2aknPE4T06/8ACk2Ts1KweJOnpKb0iRcb4k8jTAufI32srlrmitgaSiYS9PCnO40tGb/hBeL08Nk7gi0WWJMrlrZStiaTd8ldwx5OnRS3inHCuLdVabyY+IvKZ/wZDm6q04Yx8JeTNo7Hk6a7LeGccXyc2E4rn2R55ZOi20ik2M+bEThFVFpxuyTzMzePhnqYqSV87ihzJ5ZMx5ZMx5ZMx5ZMx5ZMx5ZMx5ZMx5ZMx5ZMx5ZMx5ZMx5ZMx5ZMx5ZMx5ZMx5ZMx5ZMx5ZMx5ZMx5ZMx5ZMx5ZMx5ZMx5ZMx5ZMx5ZMx5ZMx5ZMx5ZMx5ZMx5ZMx5ZMx5ZMx5ZMx5ZMx5ZMx5ZMx5ZMx5ZMx5ZMx5ZMx5ZMx5ZMx5ZMx5ZMx5ZMx5ZMx5ZMx5ZMx5ZMx5ZMx5ZMx5ZMx5ZMx5ZMx5ZMx5ZMx5ZMx5ZMx5ZMx5ZMx5ZMx5ZMx5ZMx5ZMx5ZMx5ZMx5ZMx5ZMx5ZMx5ZMx5ZMx5ZMx5ZMx5ZMx5ZMx5ZMx5ZMx5ZMx5ZMx5ZMx5ZMx5ZMx5ZMx5ZMx5ZMx5ZMx5ZMx5ZMx5ZMx5ZMx5ZMx5ZMx5ZMx5ZMx5ZMx5ZMx5ZMx5ZMx5ZMx5ZMx5ZMx5ZMx5ZMx5ZMx5ZMx5ZMx5ZMx5ZMx5ZMx5ZMx5ZMx5ZMx5ZMx5ZMx5ZMx5ZMx5ZMx5ZMx5ZMx5ZMx5ZMx5ZMx5ZMx5ZMx5ZMx5ZMx5ZMxIkxUk0Z3DDltOqcbslDzMrj4kSpFJsWM2HnC1FMnFchSPILJL+V8fBwceH6ePyqVjymWDymWDymWDymWDymWDymWDymWDymWDymWDymWDymWDymWDymWDymWDymWDymWDymWDymWDymWDymWDymWDymWDymWDymWDymWDymWDymWDymWDymWDymWDymWDymWDymWDymWDymWDymWDymWDymWDymWDymWDymWDymWDymWDymWDymWDymWDymWDymWDymWDymWDymWDymWDymWDymWDymWDymWDymWDymWDymWDymWDymWDymWDymWDymWDymWDymWDymWDymWDymWDymWDymWDymWDymWDymWDymWDymWDymWDymWDymWDymWDymWDymWDymWDymWDymWDymWDymWDymWDymWDymWDymWDymWDymWDymWDymWDymWDymWDymWDymWDymWDymWDymWDymWDymWDymWDymWDymWDymWDymWDymWDymWDymWDymWDymWDymWDymWDymWDymWDymWDymWDymWDymWDymWDymWDymWDymWDyqVjg4ODgw/Twf/wCUP//EAF0QAAAEAwMGCAsDCQYDBQcFAQECAwQABQYHEZUgVrTR0tMSITFRVJOUsRATMEFSYGFxgZGSFCIyFUBCVXKClqGzIzNicIPBQ1OiFiRjc7IINERmhMLwJXSjsOLj/9oACAEBAAk/AP8A+rBEADnGH7YhuYypQHviZNeuLriZNeuLriZNeuLriZNeuLriZNeuLriZNeuLriZNeuLriZNeuLriZNeuLriZNeuLrh63OPMVUo/7wN4f5vzdnLGLcvCVcu1yopEDnExhAAidPq3mKd4eKkaN6AGDzC4U4JPiXhRZ5T1ONxEQTXfnUfuADnu+4QB/dGLap0yTPypSsE2JA9n9iUo/zi0mqZgc/wCIXM4cKX/M8TV4Yw8omcHEe+Jk7682uJk7682uJk7682uJk7682uJk7682uJk7682uJk7682uJk7682uJk7682uJk7682uJs9TMHIYrg4CHyGLT6slxy8gtpy4Jd8APFsczmKRP+FN0UnpRDmvUKJv5xZhJZ43DiUcSlc7Jf38E/DII+z7sVatSMzWuKDWoEvEEEw+YFyiZIfiYPdDxu8arlA6S7dUqiZyj5ymKIgIe7/NmesZPK2RBO4ePVipJJh7TGEA+HKMSAs5dFEUxn81TMRqUeThIocR1PYJxKHsGK8mk8OJhMmgqrwWyPsTRLcmQPcH5rX0xlqAGAykvUP45kt7DoHvIPvAAH2xJy0lNVBKmE4aAZSWqm5L1CjedD3/AHi+0ImbaYsHaYKt3TVUqqSpB5DFMURAQ93+ayxZ/WS6XDaSFqqHDJeH3VHB+PxJPf8AeHzB54qNQ7JI4mZShqIpsWYeYCJ38ZruU5rzDz/nM6F9IFVAO8kD85js1w84lDlSP/jJd7QHkh9+T6gapAeYyB4YAdNh85i+ZVO/kOX4gA8X+ajxu/rQSijMJsUSqISe8OMpeUDuPZyE8948QTN1MZk/VMu6duVRUVWUMN4mMYeMR/O568k84lqoLNXjRQSKJmD2hygPIIDxCHEMKNZRaG3SuIAXEbzgpQ4zo+ipdxmT94lvC8A/zRmgf9sHaXAnE0QOA/khIwf3ZBD/AOIMA8v6ADf+IQuVOoooYTnOcwmMYwjeIiI8YiI+fJKJjGG4pQC8RHmCKCVkcoXuEJnPjCzSEo/pFIYBUOH7JBD2xa6+eK8QqNJGzKgn7vGq8Iw/QEUA+nZy8qkzmy5+F7ykMQv8osGpUQALg8a3MqPzOYYsCo7DixYFR2HFiwKjsOLFgVHYcWLAqOw4sWBUdhxYsCo7DixYFR2HFiwKjsOLFgVHYcWLBqXKBvOiidIfgJDBdFHTWQqm5FJZN1g4I+wqonL/ACi2BUqnGKbOfswMUeYPHI3CHVjFnbt5KUbxGaygftrUC85hIHCTD9spY82S+XZPWapV27hBQSKJKFG8pimDjAQHzhDxJvaFKG94KCIFLOW5A41iB/zSh+Mocv4g4rwD/M9wkrXdSpqIydEbh+yJ8h3Zw5i33FAfxG9gDD1Z49eqnXcOFjidRVQw3mMYw8YiIiIiOSx/IFJAfgrz+YJmBI4APGVAnEKxvdcUPOYIptOfVGmUBPPJwQq6/D84pEEOAiHNwQv5xH8yABAQuEB5BCJKSj6oVATEm0nSKmVQ/OugFxFAv5R+6b/FEn+3SBZTgM5+wKY7NfmKYbr0j/4D3ewR5cmary2bylwR0zdIG4J0lCjeAh3CHIIXgMGRa1RKOA0qCXlH+6Xu4lSB/wAtS4TF5h4RfN/mc8BtKpE0O7cG/SNcH3SFDzmMa4oB5xEIWN4+ZLCDVtwryM2pRuSQJ7Cl+YiI8o5AXiPEARLVEZSoBHMqppS8h3ZeUqrrzlTHiEE+UwfiuDiFigzaNUypIN0EwTTSIAXAUpQ4gAA8wfmsoazWVv0hRctHaRVUlSDygYo8Qw1czOjC8JaYSrjUcygOUTl86iAc/wCInnvDjyVFlZUoYGc8YkNxO2JhDhhdycMv4yj6RQ5xh+k9lc3apvGbhMbyqpKFAxTB8B/zNf8A/cZR4uZ1CKZuJR0YL0EDXeYhB4YhznL6OTJ+G0AwOKYk7kn3VRD8LxYo8pb/AO7KPL+IeK6/IquVyCWpAPCczB0REgjzBwh+8PsC8YbVDWS6YiAKMWoN2xh9iiwlEQ9oFGLBFBR8wuJ8AGH6UbosEQ/iAdxFgiH8QDuIsEQ/iAdxFgiH8QDuIsEQ/iAdxFgiH8QDuIsEQ/iAdxFgiH8QDuIsEQ/iAdxFgiH8QDuIsEXKjfxi1npTGAPcZEAH5w7nVGOlRuvmzThtwH/zUROAB7TAARUMunUtcBek7YOSLpG9xiiIfDITKomoUSHIcLwMA8QgIDyhEqEtIPluFOJaiXilC5x4lCAHIgcR5P0DDdyCF2Q/4biTkPM6dFQ3GZqJv7duF/oGEDgHMc3mD/MwwAzp6XLPTlvu8YYpfuJh7THEpQ9pocmXmc9fLP3SgjfeooYTCAewL7g9gBkMzGoekzpupsIgPBeLX3pNAH/FdefmIA+kEIERRQIVNJNMoFKQhQuAoAHEAAHEAZBWlSV0QokcqGNw2UpNzKiUf7RUP+WA8X6Q+aKumE+fqGESi5VEU0QH9FJMPupl9hQDy9YPJSrwgFdsBuG1dFD9FZEfuHD3heHmEITQpuvkkr1JeJ/+7zACh95RqY3GI+cUx+8Hm4QcYeGXoPpbMkDtXTZcgGTWSOAgYpgHlAQEYIqrS844T+n3Z7x4TcTfeRMPnOmI8EecOCPnyDm+0yB+m5OmA3eORvuVSH2GTExfjDgF5dOWaL5qoA/iSVIByj8hD/Mt2JHNUvRmL8hRuEWba7gFH2GVMUf9PIaKOn0wcJtWyCYXmVVOYCkKAc4iIBBEzPk0gdzdyUONy/UABVMI+cAG4pf8JQyJiUlc1E2E6rlM15pSyNeHjQ5lT8YE5gATc0LHWWVMJ1FFDCYxzCN4mER4xER8/wCYzBwwmDBYrhq6bqCRVFQo3lMUwcYCAw4SSr2mUyJzRMLig+R5COyF9o8RwDkN7DBkMyqVLIymm0hUAPvfaEyjwkb+ZQl5Lufgj5oTMRRMwlOUwXCUwDcICHPkOxVmNBvzMCgYbzfYlb1EB9wCKhPcQP8AMtYTs6USQkLcL7wAyReGtd/qqHD4ZDQFZTQDUJgHCC8pnyl5G4e8tyh/eQMhbxcup+XrP1xvuEwEKIgUPaYbih7RCHJlZlPnh3SgX3lSII3ESLzFIUClAOYPzNRQU5e5BOYNymuB0yOPBWSHnvLeIcxgKPmh0VywmbVJ41WKPEokoUDEMHvAQyGgISWrChUEvKULiF8cYQWIH7KoH4uYwZC/BaVnJ1m4FEbgFy3/ALZMffwQVD97/MowFRaonXUMPmKUoiI/IIUFRadzV0/OYRvvFVUx/wDfIbgR7WszXmJjiHGLdMfEoh7vuHMH7eQuKa1ZTkia4FNcJmrYvjTgPsE4o5NJMpFLXhAUbKTx59lUWIIXgYEgKY4APmEwBfD+i8UU3UP6LxRTdQ/ovFFN1D+i8UU3UP6LxRTdQ/ovFFN1D+i8UU3UP6LxRTdQ/ovFFN1D+i8UU3UUg3mslalE7l7JXQOytyhymUJcByl5zcG4POOS4FV5SLxxIjiI3m8UQQURv9yahS/u5CAC5pibCxcHAOP7M6LdxjzAomT6shXxZJfULIVjX/8ABOoCagD7OAc3+ZRuCdnTExEg8xzIHKX+ZgyAvEeT3wmBPyXTzFE4AF39p4konH4mEw5Cn9k3lD15wb+QyixC3/JPIZJvZVSbFSeqNlS8IiyxDkIiBgHiEAOcDXDy8COTyaZVElSiQ5DlASmKIXCAgPKAhCBW8ncHSmzBAv4UEnBOGKYewp+GAewAyDCKSExl7sgeYBOkoU39MvyyEgOojJVJgjeHIo2EFwEPb/Z/zyBuOicqhR5hKN4d0DeEzlTR4A8/jESn/wB/8yREDKSkqF4cx10yj/IcgLwdP26Ah+0oUv8AvBQKVJMpAAPMABddkEHxTiVPmXCu/STWIe6/3KZDorWn6iaHkkwdG/C2BQxTJLG/wlUIUDD5imEfNDhNdBcgKJKpnAxDkELwMUQ4hAQ4wEPJzFuwl7FIy7l04UAiaKZQvMYxh4gAAjhDJznTl8rMYLhUaoF4BFBDzcMQMe7/ABBkFEEnMzYMyD5hFNJQxv6hfnkFASvZG/biA8ggdA5f945Q4sg/CMrSksER57mxA/2/zJ6O00tHI/XbDSCZLcVXNFTZN0qJQvErRcPFKD7gMKQ/DJtcnktlaQXJMjHI4RSDmIVYpgIHsLdFtkx7Az3MW2THsDPcxbZMewM9zFtkx7Az3MW2THsDPcxbZMewM9zFtkx7Az3MW2THsDPcxbZMewM9zFtkx7Az3MWpTucy8ogb7EZQqLcwhyCZJIClMPtEByUBSfVWutP1gMFxgIqIFRv/ANJMg/vZAXgLBx/TNHpm78jNOW/0C/5k9GaaWjkfrthpBMluC8snrJZg6TEOVNQolEQ9oX3gPOAQiYrqTOjJpKiW4rluPGksXnKcggPzDzfmaKgS86wO5y5KHE2YJiAqmEfMIhcQvOYwQ2I3ZsUE2zdEgXFTSIUClKHsAAAMjoDj+maP+YbvyM05b/QL/lxafTsjMQLxQcPSePH3JFETj8CxM6jqIxb/AL0ulJikH95YyfdFkdWuCAPEZRy2TEQ93CNFi9UYg3ixeqMQbxYvVGIN4sXqjEG8WL1RiDeLF6oxBvFi9UYg3ixeqMQbxYvVGIN4sXqjEG8WL1RiDeLF6oxBvFi9UYg3ixeqMQbxZfP5U7nySKabty8ROmkJFiKCIlLxjeBBDi58j9dsNIJlNkka/pxE32E43FCYt/xGanHnvvEhh5DCIchhulzhhMGKxm7lq4TFNVFQo3GKYo8YCA/mMmczWcTVcrdo0bk4R1Tj3B5xEeIAARGBQe1lPSkXnr8gXgUwB91smP8AyyXjx/pGvHmuyOgOP6Zo/wCYbvyLJqifOabkzWWKuUXqBSLGSTAgmKA8YAN1/HFi9UYg3ixeqMQbxYvVGIN4sXqjEG8WL1RiDeLF6oxBvFi9UYg3ixeqMQbxYvVGIN4sXqjEG8WL1RiDeLF6oxBvFi9UYg3ixeqMQbxZHVrcgjxmTctlBAPdwixM6jp0xrvvTGUmMQPeZEyndFp9OzwxwvBBu9J48PekYQOHxL/lK+NVlWJAIfkeVKlEED+YHC3GVL9n7xv8MVSNHyNQRAsukBjICJB8yi9/jT8XLxgHshwouuqPCOqqcTnMPOIjxiP5r+u2GkEyzp01XSafBSm6KV6TsAD7pHRA/GHmA4feD2hxRRjpuy4YlQmzUorsHAeYSrFC4BH0TXG9nl6TXaSUxwBaezIhkGKRfOIGEL1R/wAJAEfdBPy3VjtIE38/dJACggPKmgXj8Unf5gG8f0hHzZPQHH9M0f8AMN3/AJq4UQXSHhEVSOJDlHnAQ4wGKpGsJGmIAaXT8xlxAgeZNe/xpOLk4xD2Q+NSdWKgAfkeaqlAFz+cG63EVX9n7pv8P+UMzbS6Wy9Ezh06cqAmkimULzGMYeIAAIfuZLTICZB3PSXpvZiHIIJDyopDz/jMHohxQcxznETGMYbxMI8oiPnH83IJjnnjApShyiP2gnkGKDxquUSKoOEiqJqF5jFMAgIe+LMUZI8WERM4kTg7K8R8/iyD4v8A6Irut2iYjxJiu2Uu+IpBFpdbfNruotLrb5td1FpdbfNruotLrb5td1FpdbfNruotLrb5td1FpdbfNruotLrb5td1FpdbfNruotLrb5td1Fa1u+TAb/Fg5bpAPxKlfFlTGZvkRAxHU6UO/OAh5wKqIkAfcUIQTQRSKBSJplApSlDkAADiAMsomMZiuAAAcYj4s0BcIKGAQ+P5ucxDkEDFMUbhKIcggPmGH7mdUyIlQaT096j2XByACo8qyQc/4yh6QcUTNtMZbMESuGrpsoCiSyZgvKYpg4hAQ/yeeItGTRI67hdY4FIkmULzGMI8QAAAIiMPnDKzmVrCUhSiJDThUo/36ocvi7/wEH9oeMeL84YnNTlFOE51NHBi/wBn4xMeE3Rv85jqAUbvRKYfz4AEBC4QHzhDJQkmmTpWaSNwJfuLs1TiYoAPJeQREgh5hL7Q/OXzh7ZzNFgKcphE5pOqYf79IOXxd/4yB+0HGHG8RdsnaRF266JwMRVMwXlMUQ4hAQEBAf8AJ2ZmIRMCK1W6QPdwhEAMRkAh5rrjKB+yXnDKoieVC4vuEktYqL8H3iUBAPiMWPuWZTcn26YNUDfEplLw+UWcsMbabcWcsMbabcWcsMbabcWcsMbabcWcsMbabcWcsMbabcWcsMbabcWcsMbabcWcsMbabcWcsMbabcWcsMbabcWcsMbabcWcsMbabcWcsMbabcWcsMbabcWcsMbabcWcsMbabcVHJqTlJTAKybRcHzw5fOBAL/ZlH2iYbuYYkpWTBEfGLLHHhLu1hD7yqx+U5x+QBxAABxfn8tMIoCZSXzJtcV0wWELuGmYQ5B4ryjeUwcocghNpDV8s4QiiYzkGLoC+YDpqfcv/AGTjFnLDG2m3FnLDG2m3FnLDG2m3FnLDG2m3FnLDG2m3FnLDG2m3FnLDG2m3FnLDG2m3FnLDG2m3FnLDG2m3FnLDG2m3FnLDG2m3FnLDG2m3FnLDG2m3FnLDG2m3FnLDG2m3FnLDG2m3Fjzp6QvL9gftnBvgUqnCH4BFGTqn3PICcyYqNxN7uGAAPwypmY5FAOrSjpc9/BEAEx2QiPmuvMmH7ReYP8hq5p+WCXlB5M0URD4GMEW2ULeH/wAwtN5FttCfxC03kW20J/ELTeRbbQn8QtN5FttCfxC03kW20J/ELTeRbbQn8QtN5FttCfxC03kW20J/ELTeRbbQn8QtN5FttCfxC03kW20J/ELTeRbbQn8QtN5FttCfxC03kW20J/ELTeRbbQn8QtN5FttCfxC03kW20J/ELTeRbbQn8QtN5FttCfxC03kW20J/ELTeRaPS1QTtozMSVy5hNkHKqzs/3UvuEMI8EDCBjDdxFKMPlXsymblR27cKmvOqscwmMYR5xERyJE7nE5maoJNmjYnCOcfOPMBQDjEw3AAcYjCydTzwQKqEkQUEsuajy8FQwXGXMHn5Cew3LEjYSiXoFAqTVi3IgkQA5ikAA9R6fl05lzgolVavmxF0jAPOUwCEKFkM3KBlTU+6VEzJyPLwUVDXiibmAREn7MSR3KJxLVRQdM3SYkUSOHmEB83nAQ4hDjDIfKsplLHKbto4SNcdJYhgMUwDzgIBFo9LU/O3bMpJpLn82QbKouyfdV+4cwDwRMAmKN3GUwRbbQn8QtN5FttCfxC03kW20J/ELTeRbbQn8QtN5FttCfxC03kW20J/ELTeRbbQn8QtN5FttCfxC03kW20J/ELTeRbbQn8QtN5FttCfxC03kW20J/ELTeRbbQn8QtN5FttCfxC03kW20J/ELTeRbbQn8QtN5FttCfxC03kW20J/ELTeRbbQn8QtN5FttCfxC03kW2ULeP8A8wtN5Fc0/MxNyAzmaKwj8CmH1srFjImdw+KKse9ZwYA/CkkW86hvYUB9sUKizb3iUk4nweMVN/iI2IPBL++Y3tCLXaidIKiN7Ru7Fq2AOYEkeCW73hCp1TmG8TKGEwj8RgofKCh8oKHygofKCh8oKHygofKCh8oKHygofKCh8oKHygofKCh8oKHygofKCh8oKHygofKCh8oKHygAyJes/mc0cJtGjZEvCOsqcwFKUA5xEYbNn1dzZEp5zM+DwvFX8f2ZER/CmXkEQ/EIXj5gD1KaN2NoUmbmGVvgACA8KHH9lXHzlH9Ew/hEeYRCGKzN/L1ztnTdYolOiqQwlMQwDyCAgIZABBQ+UFD5QUPlBQ+UFD5QUPlBQ+UFD5QUPlBQ+UFD5QUPlBQ+UFD5QUPlBQ+UFD5QUPlBQ+UFD5QUPlCp0jlG8DJmEoh8Qi12omqCQhc0cOxdNhDmFJbhFu9wRQqLxveBTziQh4tUv+I7Y48E37hi+wIrFjPWdweNKie5ZuYQ/Cqka46ZvYYA9nrQVpUVfcASLXm4bSUCIcQrCA/fV84JgPF+kIcg1Q+nk2dCImXcqXgQvmImX8JCB5ilAAD89YgohJFDSqQAoW8PtRi3rrhf5yEMUgDznNzeprAEmdSqBLp6VMtxSvilvSWEP/EIUQH2pgPKP57VD6RzZqICVdspcBy+cihfwnIPnKYBAYK0p2vuABEbjcBpNxAOMUREfuK+cUxHj/REeQPWWYkGupq3vevUxAfyM2OHEIf+OcPwh+iH3uUSw4VXcLnMoqqqcTHUOI3iYwjxiIjxiI/noQgVNcsoRfPLguEzlwHjlBH28I93uAPU1uVVyWVKzBjeF4lctg8cmIe0RJwfcYfz5wqg4QOVRJVI4lOmcBvAxRDjAQHjAQiYkCupU3vZPVBAPyy2IHGI/wDjkD8QfpB97lA3rIKa00EPsUlZnH/3l8cB8WAh6JbhOb/CUecImS0wm03cqPHjlU15lVTjeI6g8wXBlCEDAwMDAwMDAwMDAwMDAwMDAwMDkgAg7eoIDfzHUKX/AHgABNukRIgB5gKAAHd6mgBk3CR0jgPnAwCA98BcDV8ugAcwFUMX/bJGBgYGBgYGBgYGBgYGBgYGBgYGBDKmS0vm0ocpvGblI1xklSDeA6w84XhApozQA+xTpmQf/dnxADxgAHomvA5f8Jg5h9Y3onkFAFNLyEKb7ij81wuVPaIDwU/3B58l+4oul3JSqtm/igGZPUx4wMUhuJEghyGPeI8oFu44sllU0dJhcZ7Oy/b1zjzj428oD+yUAizil0iF5Ckk7cAD4ASLPqawlvsRZ9TWEt9iLPqawlvsRZ9TWEt9iLPqawlvsRZ9TWEt9iLPqawlvsRZ9TWEt9iLPqawlvsRZ9TWEt9iLPqawlvsRZ9TWEt9iLPqawlvsRZ9TWEt9iLPqawlvsRZ9TWEt9iLPqawlvsRZ9TWEt9iLPqawlvsRRkiZukZWQya6EuRTUIPj0gvKYpQEPhkfrZn/WJHN6m80frZ5/WPkUZInjpaVnMouvLkVFDj49ULzGMURH4xZ9TWEt9iLPqawlvsRZ9TWEt9iLPqawlvsRZ9TWEt9iLPqawlvsRZ9TWEt9iLPqawlvsRZ9TWEt9iLPqawlvsRZ9TWEt9iLPqawlvsRZ9TWEt9iLPqawlvsRZ9TWEt9iLPqawlvsRZ9TWEt9iLPqawlvsRZ9TWEt9iLOKXVTNxCU8nbiA/ASRZTLJQ7UD7r6Rl+wLEHnAE7iG/eKMPV60pJsAquAIjdMWCYcYmUTLxKEAOU5OTlEoBx5L0SSC0ApZechjfcTflvFsp7BEeEn++HN6xGKCdPSl1MLjchjppiJC/E3BD4wuZZ7MXKjtwoYbxOqoYTGEfeIjkSkjqRy1yKdPS9wS9N45IP3nJyjxGTTHiKHIJwEf0eMLgD82/VJNISyP1sz/AKxI5vU3mj9bPP6x8j9Un0hX82KBimC4QELwEIlJWtNTdyCU8l6BLk5e7OP3ViFDiKkoPEIchT3XcRgAPCuZF7LnKbtuoUbhIqmYDFEPcIBAlFKoZS1mFxeQp1EwE5fgbhB8PWFXgKT9+xlXENwiUywKHD6UhDIIJns7mDeXoBd+mqoUgfzNDcqMukDBFggUoXXgQoAJh9phvMPtEfzf9Uk0hLI/WzP+sSOb1N5o/Wzz+sfI/VJ9IV/N0Cqy+oGCzJUDBfwRMX7pw9pTcEwDzlCCcB7JX68vcBd/xElBIb+ZchThqSB++lXGN4gUqoqED6VQD1hEbnNVoibmECtlx7xDIADESnP2q4fSSSOoX/qKH5x+qSaQlkfrZn/WJHN6m80frZ5/WPkfqk+kK/nBQKmrORdXB5jKpEUN/wBRhyBG5tVawl5gAzZAe8B9Yc6S6KtkdOX0ZX84/VJNISyP1sz/AKxI5vU3mj9bPP6x8j9Un0hX846choyWRnSbRUfWHOkuirZHTl9GV/OP1STSEsj9bM/6xI5vU3mj9bPP6x8j9Un0hX846choyWRnSbRUfWHOkuirZHTl9GVy64YSQiwCLducwqOXF3/LRIAnP7wC7nGJFXD5Io3AunLUSFN7gOsBvmEUhXvYW2/ikK97C238UhXvYW2/ikK97C238UhXvYW2/ikK97C238UhXvYW2/ikK97C238UhXvYW2/ikK97C238UhXvYW2/ikK97C238UhXvYW2/ikK97C238UhXvYW2/imqwbzSoGJWzZV40QIiUwKkPecSrGEAuKPIA5AgABNWYiI/wDnEjm9TeaBAQGavBAQ/wDOPkU1WDiaU+xM2cqs2iB0TGFU57yCZYoiFxg5QCKQr3sLbfxSFe9hbb+KQr3sLbfxSFe9hbb+KQr3sLbfxSFe9hbb+KQr3sLbfxSFe9hbb+KQr3sLbfxSFe9hbb+KQr3sLbfxSFe9hbb+KQr3sLbfxSFe9hbb+KQr3sLbfxKq1laRxABcLyxI5C+0QTVMa73AMVnL6gYgIAoLZT+0RMP6KiZrjpj7DAGX05DRksjOk2io+sOdJdFWyOnL6MrlIkcu0QK0lTM5rgdPVLwSIPn4IXCY3+EoxPnE2nExUE6qyxrwIW/iTTLyEIUOIChxAH5r+JssRYPeUwD/ALQoB0ZnL27tMwDeAlUTKYB/n6mqAmhKpc5eqGEbgAqaZjiN/wAI/E5WOsb3mMIj3/ms4UZvWpwBdATD4h6jf95FYnIYgh8Q5QuEIMJWs8agqdATXmbLlESqom9pDgYvtuAfPldOQ0ZLIzpNoqPrDnSXRVsjpy+jK5SglaOHUxfKlAeIyiZEiEEfcCh/n+buiqTWjwGQPicK8wAl/cGH2CkJPiUeb1NdFTmtaGLIWZANcYU1ONwYPYCQGD3nD83VEzaVVMcWwCP4AVbpGMAezhBf8RyunIaMlkZ0m0VH1hzpLoq2R05fRlcr0Jr3t/zd6KNHVgCcvmpjD9xqqAj4hyPsKYwlMPonEfNChVElSgchyGASmKIXgICHKAh6luCIt26ZlVVVDAUpCFC8xjCPEAAACIjDwylHUsB5dJADiK44/wC2dXf+IYAu/wABS+383zlT0VPK6choyWRnSbRUfWHOkuirZHTl9GVyvQmve3yKYdz6cCgdz9ka8Hh+KJdwjfeEAuDhB84sIqP5JbcWEVH8ktuLCKj+SW3FhFR/JLbiwio/kltxYRUfyS24sIqP5JbcWEVH8ktuLCKj+SW3FhFR/JLbiwio/kltxYRUfyS24sIqP5JbcWEVH8ktuLKJ3JZK2UIks9cEIKaZjjwS8LgmEQvG4L+S8QyZqYJKjwW8kqFYwmFkXkK3cjy+KDkKp+iHEPFcIO0XLdwQFEVkVAOmoQQvAxTBxCAh5w9SZg2YsmiYrOHLlUqaSRA5TGMa4AAOcYfKo0kYwozadFvIpNQAeNJLzlQv5RHjP7C8uRZLPJzJXhjlbvUCEBNUSGEpuDwjAIgBgEL/AGDFhFR/JLbiwio/kltxYRUfyS24sIqP5JbcWEVH8ktuLCKj+SW3FhFR/JLbiwio/kltxYRUfyS24sIqP5JbcWEVH8ktuLCKj+SW3FhFR/JLbiwio/kltxIXMmnbDgfaWTi7xifDKBi33CIcZTAPL58jOVPRU8rpyGjJZGdJtFR9Yc6S6KtkdOX0ZXK9Ca97fIzbmPel5dsC8rnzJVk4LyiUDBxHLzGKNxgHzCAQiYHcnciRJbgiBXTceNJcnOU5bh9g3h5smfFm1OAa88hmvCWahz+KG/hIj+wIBzgMSGd0a+MAAoqVL7cz4XnEDp/2gB7yRbxSIAIX8Fy+BucPeVXgj/KLdqHxtDai3ah8bQ2ot2ofG0NqLdqHxtDai3ah8bQ2ot2ofG0NqLdqHxtDai3ah8bQ2ot2ofG0NqLdqHxtDai3ah8bQ2ot2ofG0NqLdqHxtDai3ah8bQ2ot2ofG0NqLdqHxtDai3ah8bQ2ot2ofG0NqLdqHxtDai3ah8bQ2ot2ofG0NqLdqHxtDai3ah8bQ2ot2ofG0NqLdqHxtDai3ah8bQ2ot2ofG0NqLdqHxtDai3ah8bQ2ot2ofG0NqLdqHxtDai3ah8bQ2ot2ofG0NqLdqHxtDai3ah8bQ2ot2ofG0NqLdqHxtDai3ah8bQ2ot2ofG0NqLdqHxtDai3ah8bQ2ot2ofG0NqLdqHxtDai3ah8bQ2ot2ofG0NqLdqHxtDai3ah8bQ2ot2ofG0NqLdqHxtDai3ah8bQ2ot2ofG0NqLdqHxtDai3ah8bQ2ot2ofG0NqLdqHxtDai3ah8bQ2ot2ofG0NqLdqHxtDai3ah8bQ2ot2ofG0NqLdqHxtDai3ah8bQ2ot2ofG0NqLdqHxtDai3ah8bQ2ot2ofG0NqLdqHxtDai3ah8bQ2ot3pMQAL+C2eg5OPuKkBh/lFNzmsX4AIJrrE+wsgN5hEx71DB7iB74qIGUiKfhIyKWcJFkXmE4XiZUwc5xH2XZJDEM/V8Y+d8G8rNmQQFVY3uLyB5zCUPPDIrSUyNmkxaJFDkTIF1484jxiI+cREfL8zDQ0sjOVPRU8rpyGjJZGdJtFR9Yc6S6KtkdOX0ZXK9Ca97fIzbmPel+YNEk6/ptE55WtxF+3I/iM0UH28YkEeQ3sMMM1mjxmqdBw3WIJFElCjcYpijxgICAgIZYQEBAQEBAQEBAQEBAQEBAQEBAQEBAQEBAQEBAQEBAQEBAQEBAQEBAQEBAQEBAQEBAQEBAQEBAQEBAQEBAQEBAQEBAQGXL138xmC5GzVqgQTqLKnG4pCgHKIiMIIr11UaZFp05Lcb7MXlI0TN6JL/vCH4jXjyAH5hzMNDSyM5U9FTyunIaMlkZ0m0VH1hzpLoq2R05fRlcr0Jr3t8jNuY96X5iybs67RTE79iW5NKdlKHLfyFcAAcRh4jcg8dwxLXMvmLFUyDlq5SFNVFQo3CUxR4wEPU+UupnNJisVBq0apCoqsoYbgKUocYw3bTG0F0l/YJBcojJUzBxkIPIZYQ4jHDk5C8V4j+YczDQ0sjOVPRU8rpyGjJZGdJtFR9Yc6S6KtkdOX0ZXK9Ca97fIzbmPel+ZJlp+s0U+C1nzRIBMoIB90jgnECxPbxGDzD5opdU8qMoJWs7ZAKzBwHmuUAPuG/wnuH1Npo6UpIcCup4+AUmLcPP9+7+0N/hIAj7uWEAndXOUuA+n7pIAUG/lTQLx+JT9gDePnEeQPzHmYaGlkZyp6KnldOQ0ZLIzpNoqPrDnSXRVsjpy+jK5XoTXvb5Gbcx70vzOXNn7J0QU12zlIqqSpR5QMUwCAh74O8oCbK3mul4AsxMYeducfu8foGKHshrJ62YlvEp5a6BFxd7UVuDx+wpjRZNVkqFMbjGcSlYCfWBRKPzhuqkYPMoQSj/P1FbKqm5kyCYf5RZNVk1FQbinQlK3A+sSgUPiMISaimJxATGmLoF3AB7EUeFx+wxiwo/r6aoiB7phcixAwczcg/eC/wAxzGD2RL2zBk2ICaDZskVJJMocgFKUAAA9gfmfMw0NLIzlT0VPK6choyWRnSbRUfWHOkuirZHTl9GVyvQmve3yM25j3pfmwXhFPSxyJuMRWaJnv+YRRchw5HZii5DhyOzFFyHDkdmKLkOHI7MUXIcOR2YouQ4cjsxRchw5HZii5DhyOzFFyHDkdmKLkOHI7MUXIcOR2YouQ4cjsxRchw5HZii5DhyOzFFyHDkdmKLkOHI7MUXIcOR2YouQ4cjsxRchw5HZii5DhyOzFFyHDkdmKLkOHI7MUXIcOR2YouQ4cjsxRchw5HZii5DhyOzFFyHDkdmKLkOHI7MUXIcOR2YouQ4cjsxRchw5HZii5DhyOzFFyHDkdmKLkOHI7MUXIcOR2YouQ4cjsxRchw5HZii5DhyOzFFyHDkdmKLkOHI7MUXIcOR2YouQ4cjsxRchw5HZii5DhyOzFFyHDkdmKLkOHI7MUXIcOR2YouQ4cjsxRchw5HZii5DhyOzFFyHDkdmKLkOHI7MUXIcOR2YouQ4cjsxRchw5HZii5DhyOzFFyHDkdmKLkOHI7MUXIcOR2YouQ4cjsxRchw5HZii5DhyOzFFyHDkdmKLkOHI7MUXIcOR2YouQ4cjsxRchw5HZii5DhyOzFOyxsIcniWiZLvkEBcH5tzMNDSyM5U9FTyunIaMlkZ0m0VH1hzpLoq2R05fRlcr0Jr3t8jNuY96XrnzMNDSyM5U9FTyunIaMlkZ0m0VH1hzpLoq2R05fRlcr0Jr3t8jNuY96XrnzMNDSyM5U9FTyunIaMlkZ0m0VH1hzpLoq2R05fRlcr0Jr3t8jNuY96XrnzMNDSyM5U9FTyunIaMlkZ0m0VH1hzpLoq2R05fRlcr0Jr3t8jNuY96XrnzMNDSyM5U9FTyunIaMlkZ0m0VH1hzpLoq2R05fRlcr0Jr3t8jNuY96XrnzMNDSyM5U9FTyunIaMlkZ0m0VH1hzpLoq2R05fRlcr0Jr3t8jNuY96XrnzMNDSyM5U9FTyunIaMlkZ0m0VH1hzpLoq2R05fRlcr0Jr3t8jNuY96XrnzMNDSyM5U9FTyunIaMlkZ0m0VH1hzpLoq2R05fRlcr0Jr3t8jNuY96XrnzMNDSyM5U9FTyunIaMlkZ0m0VH1hzpLoq2R05fRlcr0Jr3t8jNuY96XrnzMNDSyM5U9FTyunIaMlkZ0m0VH1hzpLoq2R05fRlcr0Jr3t8jNuY96XlXSLdMOU6qgED5jFoVNJqX3cE02bgPyE8TyXvgHkFs5IqA/SI+snMw0NLIzlT0VPK6choyWRnSbRUfWHOkuirZHTl9GVyvQmve3yM25j3peTmB5xU6qfjG0glximciA8hlRHiRIPObjHzAMThvQkoPeUjeTlAXIl/xOTgJ7/wBjgxWM7nK6n4lH79VcR+swwETN2yVIN5VG65kjAPOAlEBi1KYzVimIXy+eG+3oGL6N6l5y/umCGCVD1G5MCSLky3Cljo48gAobjRMI8gH4v8UHAxDABimAbwEB5BAfCk1UmlPSpR60K6IJ0hUKIXcIoCAiHHzhEoonDVt9EoonDVt9EoonDVt9DWToLyGYNmrUJa3MkUSKJGMbhAY5rxvAObIldIHltOz15LWhnEvVMqKSSglKJhBUAEbg4xuCJRROGrb6JRROGrb6JVR5JfP58xlroyEvVKoCSyxSGEoiqIANxhuG4fC3lC7qdTVVk4CZNzKlBMqInDggUxbhvCJRROGrb6JRROGrb6JRROGrb6CNUZ2RRVhOW7YBKmk7THj4JRERApiiQ4XjyG9mWRqtOQOkxk7dyAmTVeKmuLwigICJSlA5xAB5CxKKJw1bfRKKJw1bfRKKJw1bfQ2lCDuTzcjFuEtbmSIKYolOPCAxjXjeI+FlIl0p+zdruhmTU6ogZI6ZS8HgnLcFxhv5YlFE4atvolFE4atvolFE4atvoAhSz1gmsumQbwRch91ZP91Qpg+AZabNeoXrpKXSZu6ATJncHG8xjFAQESlTKcw3CHHdzxKKJw1bfRKKJw1bfRKKJw1bfQ2lSD+XTw8uSLLkDJJikCKRwEQMYwiN5x47+bJUAjWXNlXaxhHiKmmQTGH5AMSajCtRVOKBTy5UTAnwh4ICPjeMbrolFE4atvolFE4atvolFHhJl5i2SmAoS9UigNzKFBQSmFUQAQKIiA3DBwMU5QMUwcggPIOS2lS0wezxKXKFmKBlUwSMiqcRACmKN95A47+eJRROGrb6JRROGrb6JRROGrb6JRROGrb6JRROGrb6LNaOmad/H4gXDY93v4Zw/lFEz2klD3ALpAxZg2AeceCBVAD3EGKylVQy8wBeqycAcUxHzHL+Ig+wwAORKaPO2kz8xWKq0tV4arQ4AdA4j40AERIYt4h5wGJRROGrb6JRROGrb6JbSyEgqB+EvXVZs1ElU1FSiVIQMZQwAHjBIA8XII5CgJs5Y0WeODiNwFTTIJzD8gGJLRpGgrHFAqkuVEwJ8IeCAj43jG66+JRROGrb6JRROGrb6JdTLempBKxdO1WLFRNUy6hwKiQDGUMAX3HMPFyF8jzMNDSyM5U9FTyunIaMlkZ0m0VH1hzpLoq2R05fRlcr0Jr3t8jNuY96Xkl0F6/qJE32IprjBLW/ILpQvnG+8CFHlEBEeIogM1dTKZzBYzh07dKioqsoYbxMYw8Yjlzo7qTvjFa05NXSl5mSo8RGqhx5UjcQEEfwjcHIIXeDN5fvLkfrlj/QPkZ2zL+ubw53SrSSeHOFfRjZDzgS6tm/jmRTGuKWYIFEwAHtOlww9okLlu+Ewo5t9smBSm4jP3BQEAH2kS4PuFQ2RnGlopPD+rZj/VRyHnGmIz+SlObzDcRymX4+LPd7Tjlu/GSmgW/iFilNeU8wWADLD7ylBMnsEDZGdauioZK/inUyYhJmogNwio6OCQ3e4hjj8MgbhhUFF3kjbpOTX3j49Evilb/bw0zZOdjfRnHkKqfyKZoCA+MbKCBVSgP4FCfhUIPnKYBCE2sjtCaIiczUg3N5mmUPvKt7+QwcpkxG8OULwvu8Da5GctTyOYHKHF49G86Ij7RTMcP9PwqmSdy9wm6QOUbhKomYDFH5gEHKZGoJS2fhweQplEwExfga8Ph4V/FPqkBKn2tw3GEXBv7W7/SKrkNvFzCu355hwjBcb7IlekgHuG5Q37/keZhoaWRnKnoqeV05DRksjOk2io+sOdJdFWyOnL6MrlehNe9vkZtzHvS8isCDCUNFnzpQf0EkyCcw/IBhY5lZw7MdukYbwbtS/dRRLzAUgFD33j5/IHMQ5BAxTFG4SiHIID5hh0C1RSIRks6G/wC8ddIA4Co/+YmJDD7RN4M3l+8uR+uWP9A+RnbMv65vDndKtJJ4c4V9GNkOBRmUifIzBqcBuuUTOBgD3DdcPsEYUKZjUMuRfJgA38ATl+8QfaU3CKPtAclYEpdIJevMHBhG68iZBNcHtG64PaIQqKkwqCYLzBcRG/giocRAoewoXFD2AGRnGlopPD+rZj/VRyDn4EmfkM7TKN3jmh/uLp/FMxvjdDojhk/bpum6xBvKokcoGKYPYICA5Ji+IkEuVdFIYbvGrXXJJh7THEpfjDkziYzd4s+dKmG8TqqHE5h+YjkZ1q6Khkr3Hm8yXm7lMB5U25OAS/2CZYfpyVuEvSk9U8WUR4yt3JQULxc3DBXJzsb6M48jNF5dNpU4I6ZukDiU6SpRvAwD/t5w4oBJGeNB/J89aE5EXpChwjAHmIcBA5fYa7zeBt46ZSVAJ9LwAt5vGtrzmAPaZPxhfjkOBUeUTNVmQFEbxBqt/bJfC8ypf3fCv91m3Xnz0gD+moPikb/cBVR/e8KQqP56/Ql7coBf99U4ED5X3/CEwIykMuby5AAC68iSYEAfeN1/x8jzMNDSyM5U9FTyunIaMlkZ0m0VH1hzpLoq2R05fRlcr0Jr3t8jNuY96XkVRTXn6rWSEMA3DwVlQFQPimQ4fHImCVP0lLFgQezldIVBOrcAiigneHjDgAgIiIgBbwvHjAIratnjvg3C4I4bpFv5wJ4obvcIjFSuKrpqXF8bMWzhAE3zJLzq/c+6qQOLhCAAIct114h4XBgaz2UEmaCYjxfaGygFEQ9okWH6Q8Gby/eXI/XLH+gfIztmX9c3hzulWkk8OcK+jGyXfCd04t+VpUU5uMWaxrlSB7CK3D/q5LvgTCtXP2h8UprjFl7cwGEB9h1eAHtAhsnONLRSeH9WzH+qjkvPGzmgFglZwMa852RrzNj+4A4Sf+mGS7uVmJ/y5OSkNxgiQRK3TN+0fhnu/wABcnOtXRUMlfxjakJS1lhQAeIFTgK6nxvVKH7uStwUapkZlEiCPEZw1OBw+Pizq/LJzsb6M4yJPThmE4ZIv2plJyQphSVIByCIXcQ3GDiinKcWEoX8BOeJcIfdeAB/OKAmciBcRKg5VICjZYeYixBEhh9gDf7Mh0JZTXrUzPgCb7pXyICoga7nEAUJ++HgSKoksQyahDBeBiiFwgPsEISMRCUzVYGd4XcJooPjEDB/pnL4XHAaVnKDkSKI3ALtsPjSfEUxWDwuPHMmD/8AIzIQG8PEtQ8VeHsExTm/e8LXxkuoVgpMzGMH3ftSn9kgHvDhHOH7HkuZhoaWRnKnoqeV05DRksjOk2io+sOdJdFWyOnL6MrlehNe9vkZtzHvS8iA+LUqxsCnuBs4EP55CaYA+lppg4OQP7xdVU5jiPOID9390PA3Iu0eInbrpHC8qiZyiUxRDmEBEIG4kinT2XEvH9FJYxC/yAIMHzgwfODgBX6EwZnC/lAzVQ3eQPBm8v3lyP1yx/oHyM7Zl/XN4c7pVpJPDnCvoxslcxJck7BlNigPEdiv9xW/n4ICBw9pAhUqqKxAUTOUbwMUQvAQHmEPCNwByjDoVpNKVvyJKLhvL9mbiJROH7anjD/vBk5xpaKTw/q2Y/1Ucl14mR1mUJA/4RriFUUMAt1B9yoFC/mObIXIg1aJHXXVONxU0ygJjGEeYAARhQ4tpk+MnLyGH+6ZJfcQL7PuFAR9ojk51q6KhkHAqSJBUOYeQCgF4j8oUE/5dnbx4mIjyJGVN4sPgQCh8PAiZVw6VIiimXlOcwgBSh7xEAhAyLpmsduukblIoQwlMUfaAgIeBfxTdvO0Gzo19weIXHxKl/s4Kgj8MnOxvozjw80ZryvRU/BJG81k80RFFw3XKA8ocRijylOA8YGDjAQvCFTroytyB2Dg4XC4ZqBw0VB9vAEAH/EA+FQyasjnDN+BijcNyapTCHxABD4wa9NdMqhB5ymC8O/wNrkZ80PJpgcof/EIffSEfaZM5g/0/CcSjIJw2dq3fpIgcAVL8SCYPjCpVG7pIiyRy8hiGABKIe8BCFAJ+QZO5dpXjyrAQQSL8TiUPjCgqLuFDKqnEbxMcw3mEfeIj4W4kf11MTvCmMW4fsaF6SIe4TAqb94PJczDQ0sjOVPRU8rpyGjJZGdJtFR9Yc6S6KtkdOX0ZXK9Ca97fIzbmPel5FLhnp6bsJmYQ5Sp8MUTD8lsiYptp1JlFXNPiqcAB40OYTqIlv5TpmExruUSm/wj4bI6PevXiplnDheSt1FFVDDeYxjCS8wiPGIjFitEYC22IsVojAW2xFl1KyqZNREUHbOUIIrJCICA8E5SgIXgIhxDyD4M3l+8uR+uWP8AQPkZ2zL+ubw53SrSSeHOFfRjZTvx08o0wSCYcI15zETKAt1B/aSEoX85DeF0CM4maP5GlHHcb7U4AS8IP2CcM/7sCIiPGIjyjk5xpaKTw/q2Y/1UclUySyJyqJnKNxiGAbwEB5wEIWKeYrNAZzUoDxkfI/cWv5uEIcMPYcPC88VO68VGStgKa45W13CcnD9y4nvUDKzrV0VDIXBJwlJVmjUb7h8e4DxKd3t4SgD8PCThleVPLwOW6+8hVynN/wBJRhPgEbVO/MmW79BRUVC/yOHgOJFEzAchg5QMA3gPzhQDjO5I0dKiA3/2opgCgfA4GD4ZGdjfRnHh5ozXleip+FICqzanlG6xg/SFBceCI/BW74eEbhDjCDcI7ynpcuYecTNiCPf4GnjpnIEgn8vAC3m8Y2vMcA/aSFUPjkOPHP5S0GRvREbx8a1HxYX+0UwTN+9DngO60mPjHRSjx/YmtxzAPsMqZIP3R8KQqv52+Ql7YgBeIqKnAhf5mhMpGUglreXIgAXXlSTAvC94iAiPtHyXMw0NLIzlT0VPK6choyWRnSbRUfWHOkuirZHTl9GVyvQmve3yM25j3peR4IN6ilbhgJhC/gGOQQIf903BN8IaHbTOSvFWLtE4XCRVMwlMHzD5eGYuGEwYLFcNXTdQU1UVCjeUxTBxgIDDlKUzcoFQbVMUnBaOx5A+0gH9yf8Axh9wfPwYdoumzggKJLoqAdNQg8YGKYOIQHnDKzeX7y5H65Y/0D5Gdsy/rm8Od0q0knhzhX0Y2U78XJq/QCWHAxrikekvM2P7xHhp/wCoHhecOX0Y2+1PykNeUz9wUBuH2kS4HuFQ2VnGlopPD+rZj/VRynXBa1GiM3lJTDxA8RLcsQPadK43+l4XfjZJQqYyRqBTXkM4AeE5UD2+M+5fzJhlZ1q6KhkLcFaqJ4CypQHjFu1IJhv9njDpfLwp8JOTpPZof2eLbnKUfqOWE+CnOWzCZl4uUTtykMP1Jm8K/Dc0hN3UtEojxlRUEF0/h/amD93Izsb6M48PNGa8r0VPwmAVmkidOFAv4wBRcAL/AEzeHmgBA7empYmYB5wbJ+BIqqK6ZklCGC8DFMFwgPsEBhMxU5NNViNRELuG1OPDQN8UzE8K/wDyKgYkEf8ARXu//hGHIqMKLZoyVEoDxAtd41cffw1OCP7HhbeMl1CslJucRD7v2k39k3D38Ixjh/5fk+ZhoaWRnKnoqeV05DRksjOk2io+sOdJdFWyOnL6MrlehNe9vkZtzHvS8lKzqN1ikQqpuiS8UzgAFTeXB+iIXEOPmECj5xyZx+WqX4d69PzI5jt7r+MUTfiRN7S8XOAxNfyLVBScJxT8xOUjgBDlFE34Vi+0vHzgGTm8v3lyP1yx/oHyM7Zl/XN4c7pVpJPDnCvoxvDLWz6Wz2XzVkokukBwATMluCcAHkMUQ4QD5hABhMSPpBMXEuXAQuvMkcS3+4bgEPYPgcGbvpc5TdtlSjcKaqZgMUwe4QCDE4M+lqThYhR/unABwVk/3VCnD4QcAZU9LlnpyiN3jDFL9xMPaY/BKHtNDkziZz18s/dKGG+9RQwmEPcF9wewA8CRlH09mDeXNylC8eGqoBAH4X3/AAiXN2UtkUtlTFJNBIqYGEjJLhHEA5TGG8wiPGIiIj4c40tFJ4f1bMf6qPhbpKLTulpymwMoAD4p6RuKiBw5hA5A+AjCRkl26hklSGC4SHKNxgH2gID4DiDynpii+IUBu8YUpvvpj7DE4RR9gwuC8tnbJF+1UDj4SapAMX43DxwoUq0plyn2Iph/vHZ/uIF9t6hi/C+FzLOXap11lTDeY6hhExjD7RERHwEMZzUM0bsCiAfgKc4Ac/uKXhG+ENE20tlE/dsGqKZbikTROKYAAfu+HOtXRUMhbhIUnIkgOUB4gcOTCqb48AEvCleSTyBNoQ13Io4XKP8A6UTQncWb08dqc13KduuYf/SsXwr8FOdStGatyCPKq3U4B7vbwFgH93Izsb6M48PNGa8r0VPwOE0WzZMyqyqpgKRMhQvMYwjxAAAAiIwsKsjaCSUyg/mO1QvAFA9hzic/uMHhIJ3E2mDdikUAvETKqFIH/qi4E2TdNuS70SFAod3ha8FComJpS/UKHF9pb/eTEfaKR7v9PwviNJQ7SdS2YKKHApASURMJRMI8VwKFTH4Qcx3M9mbmYqCI8d6qhj3fC+74eFvwH1czI7hMxi3D9jb3pJfAT+NN8Q8nzMNDSyM5U9FTyunIaMlkZ0m0VH1hzpLoq2R05fRlcr0Jr3t8jNuY96XkmSLxk8SOg4brEA6aqZguMUxR4hAQEQEIl7iZ2fuVDLOGyZROtJBMN/BMHKZD0T/o8hvMI5D5wzeNVAVQcN1BTUSOA3gYpi8YCHOEPgUSOJW7Kq+D94g8hSvADlD/AMUAv9IOU0OknDdwQqqKyRwORQhgvAxTBxCAhxgIeHN5fvLkfrlj/QPkZ2zL+ubw53SrSSeHOFfRjeEbvGPXCX1NVQ/3hsCcvruXlcnMUtxftqFySwe8S+KN+8Phc3ryVcJ3KyGNxi3WECrlD2FUApv9QYd8FzUzkZpMilNxgzbjcmUfYZUb/wDS8LbxkvoVgpMzCIfd+1Kf2SAe8OEc4fsR/wAN42S5PRaIl/28OcaWik8P6tmP9VHwjcC6UxR5edmqP+0NvFSupDlqBhwS3F4DgRFQofsqgoHy8LvhzOg3XAblMa8xpeuJjp3ewpwUL7A4MO/vODDUE2IU36Bb02xDe8fGmu/wlHwteGxoqXim2OYOL7a5vIW72gkCo/EIG/xtVTQ1/wD9Sfw51q6Kh4RuAIV8Yg+nrlNsN9//AHdI3ikrvZwEy+FK406nybJMwhykbIgP/qWN8oT+9Lpy5YHPzFXRA4B80PCv4pq/mH5HciI3B4t0UUQv9gGMQfhkZ2N9GceHzxYWq7GQyprLRcBPwJ43xKRU+HwfEDdfwb7rxuviwAwK3fdFSoQEt/tuQvhRnSlLuQ4LiWSkT8J0X0VljDwjl/whwSj5wHIbCpLKQA9QPTCW8oGS4kCj7RVMQf3RyG3jZlThC1AxuLebhN7xUAPekKofLKRMq/nD1Fg2IULxMoqcCFD5iEJlIzp+Wt5elcF14JkAom94iAiPtHyfMw0NLIzlT0VPK6choyWRnSbRUfWHOkuirZHTl9GVyvQmve3yM25j3peTRTWRWKKaiahQMU5RC4QEB4hAQ80It5dMj8Jd3TChwI2cG5RFqYeJIw/8sfuD5hLyRI3somrBQUnLN4iZJVIweYSm4/jyDkzcy1EzBUEJW/cHvGTLGH7pRMP/AMOYRuEP0BG8OK8IMBimC8BAbwEOfwZvL95cj9csf6B8jO2Zf1zeHO6VaSTw5wr6Mbwmu4U/TSH98hy/7w2BSZ0K7JOUhALzfZh/s3BQ9nBMBx/8vwuBSln2sJfNuO4BZL/2agj+zeB/eQIfkdyeVrFksqUTPwkzN2/3eGQQ4hA6njD3+fheFtwH1czI7ohhDj+xoXpJB7hMCpv3ggb+DPlEg/cTIX/bw5xpaKTw/q2Y/wBVHwm4PjH66XLdfwmqoXQ24TmmHwyx8cocf2Rz+AR9hVSgH+p4ZkmykNRpqSSaqqn4CSZFPvJKGEeIAKqUnH5gEYVOZo+fGQlxTD+Bkl/ZoB7LyFAw+0w+Ft4qaVkqefuhMFxvFqXFQKP+kUg/vjA3+PqCYqX+9yoPhzrV0VDwqcA8nkTtdEb7v7YUxKkHxOYoQYTHOImMI8oiPKPhS8WvN0FpysF1wiLhUxyCP+nwIR4Z6embGajxcZSAp4o4/JYfCoJHLBwm6RMA3CU6ZgMUfmAQcpkJ7K2sxIJR4rlUinu+F93hzsb6M48iAiI8QAHnhgLerK3FOYPU1C3KNWoB/wB3QHmEAMJzBznu82QiVVu6SMiqmYLwOQwCBgH2CAjBDFLJJqsi2EwfjbGHhom+KZiDktvGS6h2ak5VEQ+79oH+zbh7+GYTh+x5TmYaGlkZyp6KnldOQ0ZLIzpNoqPrDnSXRVsjpy+jK5XoTXvb5Gbcx70vK08X8popiVlOmYAm+aj5uCpd94t/6Bry+wOWGxqlozh3Iz1ikNyIDyFcp8Yom9vGQfMPmyZgZxUtBlSbkVVPeo6lxrwRON/GIkEBTEeYCc/gzeX7y5H65Y/0D5Gdsy/rm8Od0q0knhzhX0Y3hG4C1VLyiPsMqBf94RKswm7NZi5TELwMkqQSGD5CMFEHVOzNxLziIXcIEziBTe4xbjB78lEyr6cPEWLYgBeJlFTgQofMwQQCtKfljeXp8ELuF4tMCib3iICI+0YG8BqqYE+lUS/7eHONLRSeH9WzH+qj4Ru4VQIp8t34ymL/APdBCiE+lazZEwh+Bfg8JE/7qhSD8IQMi6ZLHbrpmC4SKEMJTFH3CAhkkMKlQTVBocQ/QRE16p/cVMDj8IRKgylrUjZBMocSaSZAKUoe4ACOVaZOlPmqYfDnWroqHhX4Dir502ZCUB4zII3rqfC8iYfHwkE7h+4TapFALxE5zAUofMQggFRkssay8gAFwXJJFJ/9sJ8M04kL1ukW6/8AtRSMKf8A1gWC8ExRuMHMIcvhW8Y6pdw5ka143iBUz8NK/wD01CB8PDnY30Zx5ABERG4ADzxIjNZY1MV1IZC7TuUdKBxkcuCD+FMOISkHjMNwiF1wDktuC2qZgaWPjgHF9qbcZBH2mSOAf6eS2Ej6uJkZRExi8f2Jvemnd7BP44fiHlOZhoaWRnKnoqeV05DRksjOk2io+sOdJdFWyOnL6MrlehNe9vkZtzHvS8s0SctnBDJrILEA6ahBC4SmKPEICHmGJWYsrbgZzOqcRATfZScpl2ocviw5TJ/ohxl4uIPC5FNhUa40++LfcUxHH3UxH3KgkPw8Gby/eXI/XLH+gfIztmX9c3hzulWkk8OcK+jG8I3eLqqVjf8A/VJh/v4G3AY1tLwK4MUtxftrYAIe/wBpkxSH4DktfGSyh2qk6XMJby/aP7tuX38MwnD/AMsfAN/jKqmg3/8A1KnhzjS0Unh/Vsx/qo+E1wEquXAI33cQrFD/AH8DUUpVWBS1AyEC3F4SoiC5Q9ypTj7jBkteE0pNgDFkcwcX2xzeAiHtKkU/WBA3eLaqn+RBGBv8Ysc/zMI+HOtXRUPCvwkpBJ1JiuQB4gWcqXBf7eAiH1eGS/ldvT80bzI7HxvigceJOBwIJ7h4ICJQ47hiwIuP/wD/AAiwEogPEIfl/lDqIYfYWr98u6Ra8Ph+IIooJip8K4L+CA3X3ByeFb+8I1nrUgjzCKK1wfFHw52N9GcZFntTroLEBRNVOUODEOUQvAxRAlwgIecIkz+WOhICniHrY6CnBHkNwTgA3DcPH4ZG0m8rlEyTVetXSBVSigP3TnKUwCHDIBhOUfMYoQ5TcsnyCblssmN5VEjlAxTAPMICA5Tbx0zpgCVAyAC3mvb3iqAe9Eyn8shEyz6bPEWLZMoXiZVU4EKHzMEFKDWnpa3YEEA/EKZAAxveY14/HynMw0NLIzlT0VPK6choyWRnSbRUfWHOkuirZHTl9GVyvQmve3yM25j3peRVqYJxIVwbuwbSrxqXDEhThwTcMLwuMHmher8F/wD9wvV+C/8A+4WqgZpP3yUvZ+PlPi0/GqG4JeEbhjcF48vhIU5DgJTFMF4CA8oCHnCG4N5JNCpzuWIlC4qKLi8TJl/wlUKoUPYAeE4lVl0yauiGAbhAyapTB3RyLJlUD3CF8FvN/wBnHJ7vYUAMP8gHIMHjSPpa7Avn4Jk1i3/MuQYDJLVXMxKIDffc4OH+3hARE1Vy43Fy/dXKb/bw5wr6MbwjcKFQS5T5OUx8DXxs1o1QtQNOCW8wppgILlD3pGOPvIGS18XNq+c/lMwmLcYrIl5G5fcIcM/+oHg/49QzFT5uVB8OcaWik8P6tmP9VHwjcCVVSswjfyB9qTv8DTxkzoN349YxS3mMwXECLB7im8Uf2ABslt4ma1KU1QTC8txuE4ABSKP7KIJh774G4UZQ8U+SJx/2jzjf4c61dFQ8K/jmzeamlbU194eKalBALvYIkMPx8it4trUZXEiXvG4BFZMRTv8A9Uifhzsb6M48PNGa8r0VOGXDmlGm+yzQSF+8pLVTcRh5/FqCA+5Q3NkPhUntBCVNt4w151pYoI+KEOfxZuEmPMHAykCrNnaJ0FkzBeB0zFEpij7BARCFRUbSOdvZeiYQuEU0lzkLf8ADwgB0pE3dTpNMQvA6yKdyfyMcDfu+V5mGhpZGcqeip5XTkNGSyM6TaKj6w50l0VbI6cvoyuV6E172+Rm3Me9LyICBZiRi+IIhygdqmA/zKPhKJhkE3aTIShymBJUpxD4gAhDxN3Lpq1SeNV0xvKokoUDFMA+4Q8LhNctLydrKHKhBvD7QBjqnLfzl8aBR5hAQ8JRMo4cpJEAOUTGOAAH845UG6aQ/ulAP9oLwzzeQP2aYc5zoHAv8xCCiByCJTAPmEOXwvSNZNXDT8jqLKG4JEnQHA7cxhHiABNeS/wD8TwuU0m8lYqLJFMNwrOBC5JIvOY5xKUA9sKCd1MHCrpcw/pKKGExh+Yj4ScJOVLOZqqN34SooHEB+oS/Pw5wr6Mbw/iTmbUwe8FijHKIAMIFXaPkFGy6RuMDpnKJTFH2CAiENVxCRTRZugfgD/aNxHhInD3pmIPxhqt1Yw1W6sYarlUn8yRaqKcAbkkb71VB9hUwMb4Q3K3YStqkzapFC4CJJkApS/AADwDeY80dmEfaKxvDnGlopPD+rZj/VR8N/CTn8vMFw3cYOSeBuC0unTFZg6TEL+EmqQSG+Nww0W+10/Ml2BzeLG5QpDCBTh7DF4Jg9gw1W6sYardWMM1vs01maf243AG4jRP8AtFzD/pkN8RCEipIIEKkmQoXAQpQuAA9gAEfiTpuZGD3g2UjmDw51q6Kh4DAVOQyh3MBER5RTSMYA+IgAfGFBUcO1juFTiN4mOcwmMI/ER8icSuZJMW0wSEB4+EkoU4f+mDgdrM2iLxAwDeApqEA5R+Qh4M7G+jOPDzRmvK9FThoR1LZu0VZO0TheCiShRKYPkIwU4mkz0xGyxgu+0NTfeQVD9pMSj77w83hWOWVeOBhOki8irBUQKrxecS8Rw9pAhwRw1dJEXQVTG8qiZgASmAfOAgIDlZ1zTSlPDm9Me4nleZhoaWRnKnoqeV05DRksjOk2io+sOdJdFWyOnL6MrlehNe9vkZtzHvS8i3uazuVqShwoAf8AHbnE5b/eRXi/YHIko1dRqBhFq38f4p3LwEbxKioICBiXiI8A3IPIIRKa2aOODeKAyxI438wGKrcP8ool3KXDohkvy5OTEFVABC7hJIEExQPzGMYQD0Rh4s7ePFTruF1jidRVQwiJjmMPGIiIiIj4UDKonnSD13cF/BbNx8coI+zgpiHx8AAIDxCAw1Mg0JM1H0vvDiMzcD41IQ9gFPwfeUfCYSmKN4CA3CA88U2nXMuYkKi3ffavs8xImHEBTnEDFVuDkEwAbnEYsXqRd5wfukczBBJO/wBpigYbvhCjeUU4wUFVlImBjeIIe67xihh41VLuK8eILxuALxyGo+IYtk5DL1DBxCqoIKriX3FKkH7/AIc4V9GN4f1i2/qlj0Q7vBK2ayg8p1ECmMPxEIkcv7MTVEjl/ZiaolTNFQOQ6aBSmD4gHg5o/Wbr+qbw5xpaKTw/q2Y/1UfD+vWGkE8MpZqqH4zHOgUxh94iESOX9mJqiRy/sxNUStoioF4AdNApTB8QDwZszPRVI5g8OdauioeBfxbmq3rWSpgA3CJDH8ar/wBCRgH35FiNYzCWTFErlo7bytQ6S6RgvKcpgDjAQ4wGP/Z+rnCFdUf+z9XOEK6osZq2USiXkBR09eSxRNFEoiAAJjCFwBeIB8chfxrqUtDyRyIjeIHanFMt/wDpgmPx8GdjfRnHh5ozXleip+BlwnlPiWVzvgF4zs1Df2Ko/sKGEt/MoHNkPAUn9ACRmXhmvOtLjX/Zz+3gXGTH2FLz5Wdc00pTw5vTHuJ5XmYaGlkZyp6KnldOQ0ZLIzpNoqPrDnSXRVsjpy+jK5XoTXvb5Gbcx70vItyKT+W3TaSCIcYu0QEfFgPm8YQTk95g5oROisicyaiZy3GIcBuEogPIICF3kWApnmqZpTTwKBcItwN/3hcPYYxSkAeYp+fwy8y0xpZL7FPCJlvMpLjGvItd5/FHEb/8JxHkL5GXqvppNXKbNm2SLedVU5gKUoB7xgCHeM0PtE0XJyLvlfvLHv8AOHC+6H+EpfDnCvoxvD+sW39UseiHdl80frN1/VN4c40tFJ4f1bMf6qPh/XrDSCeQzZmeiqRzB4c61dFQ8C3E0bOp45IA/pKGBFK/4EV+fhIJ13y6bZIoconOYClD5iEEAqMlljWXkAOS5JIpP/t8KfDNN5A9bpFu/wCL4owp/wDWBYKIGKNwgPmHwr3nlj9vOWxBH/hrkFNS72AZIn1eDOxvozjw80ZryvRU/A2K4lc9ZLMHSYhfemoUSiIe0L7wHzCAQQwPJA+UbcMQuBZK+9JUPYcglMHv8K5yyVyp+TJ2mA8R2SwgBjCHnEg8FQP2PbCxVUViFUTUIN5TlELwEB84CA5Odc00pTw5vTHuJ5XmYaGlkZyp6KnldOQ0ZLIzpNoqPrDnSXRVsjpy+jK5XoTXvb5Gbcx70vJSU7pNzwnNTSZqnechwC8zxEgcZgHlUKHGA3mDlG7LaOpVZ3L1wF/MRLwTPhKIXtm9/KI8hjhxFD23BEvQYSyWNyNWjVAvBTRSIAAUpQ5gAPC0SdM3iR0HCCpQMRVMwCBimAeIQEBEBCJevMLOZkuJ0zplMc8nOYb/ABC3/h3/AIFB4rrgHj5cpsq4cLnBNJFIgnOocRuApShxiIjyAESwhaweIf8A6RLFQvGUInDjOoH/ADzAN136ACIcojd4c4V9GN4f1i2/qlj0Q7svmj9Zuv6pvDnGlopPD+rZj/VR8P69YaQTyGbMz0VSOYPDnWroqHgW8Y1kSiMiQuG8ABuQAPd/qip4UfGIhPEXy5brw8U2vXNf8E/55AXgIXCHOEJ8AsoqB63SC7/heNMKf/QJfC48W1q6WOpScBHiFUCgsl8eEkIB+14M7G+jOPDzRmvK9FT8LG9RrwJLPxIXlTERFssb3GEyYj/iJkPhVqOgBJLleGa86zEQH7Mp7bigKY/+WHPk51zTSlPDm9Me4nleZhoaWRnKnoqeV05DRksjOk2io+sOdJdFWyOnL6MrlehNe9vkZtzHvS8kF4DDglDVW5EVFRQQ4UvdqDxiZRELuAYfOYl3tKIxZs8n0uREbpjIL3yRi+kJCB4wv7xAiVvGK5BuMm5QOkcvvAwAMGD5w1WcKGG4pEkxOYR9gBFkc8I2UEA+2zJEWLYoD5+Gtwbw/ZvGKhSqJ0kYqhZFLRMRkBg47llRuOqH+EAKHviWNZdLmSYItmrVIqSSJA5ClKUAAA92SyQdtHaZkV266YHTVIYLhKYo8QgIeYYnSNLvleEoeRvuEdgc48dySgXnR9wgYvNcEWSzwzZK/wD79LkBfNTAHn8YjwgAP2rhhBRA5RuEqpBIID7hgwfOKfmU0cKDcVJk0UXOYfYBAEYpAKNlCogJ30/N4k4F5ytwvVMPvKAe2ED1TWRC8c6mCQADcRDj+zJcZUv2rxP7fNk0qeevJXOVnTtMrlFHxaQoCUDXqmKA8Y3cUWOL4qy30WOL4qy30WQrERbvUFVDflRkPBKVQoiP97zAMBxgUAH5eQsgWOg4fOFkjflRkHCIZQwgPGrzCEWOL4qy30WOL4qy30UseRvpnO03bVIzlFbxiQIFKJr0jGAPvAIcfH4aLPPUJOxeovTldoI+KOdRMShcqct94FHkv5IscXxVlvoscXxVlvosjVRaMZszcrqflRmPATIsQxjXAreNwAI8XkG4uH8xkb5o1RAwF8YsogcpC3jcAXmEAvHiixxfiD9ast9Fji+Kst9Fji+Kst9FMGkcye1Ao9QQM4SW4aIoJFA16ZjAH3imC4Rv4obmcLJpHOmkAgAqGABEC3jxcY8UWPuDupw/cP1jDNmV4nVUMcf+NzmixxfFWW+ixxfFWW+ihjSNhLpK5SYqneN1vGOVRIS4ATOYQuTFTjHJs+POZJPW7Rwdcj5sjc5KiVNQolUUKa/7gDfddxxY4virLfRY4virLfRY+4KNPzlo/OITVleKZFSicP77zl4QfGAEL/MMU0edzRrUKL1VArhJESolQWKJr1DFDlOULr7+OLHF8VZb6LHF8VZb6LHF+T9ast9DUW0wlchYM3aAmA3i1k25CnLeAiA3GAQvAbvCgCssqBgqyX4rxJwg+6cv+IprjB7ShFlpn7Zu4USRdJzNmUi5CmECqABlQEAMAANwgA8cWOL4qy30WOL4qy30WUO06df3yyfkLNGZgFmoIXqcEFbxFMwFOF3H90Q8+TZQs6ls2qB+9ZrhM2ZfGoqLnMQ1xlQELyiA3CF8WOL4qy30WOL4qy30WeKSaSkkz1qZ0Z82VAFVAJwC8FNQxuO4fN5XmYaGlkZyp6KnldOQ0ZLIzpNoqPrDnSXRVsjpy+jK5XoTXvb5Gbcx70vKyCXTAo+Z21TWD/qAYslo0VL7+EMjbX/+iKUk8uu5PsjFJG76Sh5Oj5LMv/3cvSW/9RRiyajk1PSLI2wD/wCiJSyYpgFwEbNyJFAPcUA9V+ZhoaWRnKnoqeV05DRksjOk2io+sOdJdFWyOnL6MrlehNe9vkZtzHvS9c+ZhoaWRnKnoqeV05DRksjOk2io+sOdJdFWyOnL6MrlehNe9vkZtzHvS9c+ZhoaWRnKnoqeV05DRksjOk2io+sOdJdFWyOnL6MrlehNe9vkZtzHvS9c+ZhoaWRnKnoqeV05DRksjOk2io+sOdJdFWyOnL6MrlehNe9vkZtzHvS9c+ZhoaWRnKnoqeV05DRksjOk2io+sOdJdFWyOnL6MrlehNe9vkZtzHvS9c+ZhoaWRnKnoqeV05DRksjOk2io+sOdJdFWyOnL6MrlehNe9vkZtzHvS9c+ZhoaWRnKnoqeV05DRksjOk2io+sOdJdFWyOnL6MrlehNe9vkZtzHvS9c+ZhoaWRnKnoqeV05DRksjOk2io+sOdJdFWyOnL6MrlehNe9vkZtzHvS9c+ZhoaWRnKnoqeV05DRksjOk2io+sOdJdFWyOnL6MrlehNe9vkZtzHvS9c+ZhoaWRnKnoqeV05DRksjOk2io+sOdJdFWyOnL6MrlehNe9vkZtzHvS9c+ZhoaWRnKnoqeV05DRksjOk2io+sOdJdFWyOnL6MrlehNe9vkZtzHvS8naC0QmgF4X5LZlM6eXebhJJgIk/f4MSutlSAPEcJWkAD8BVviSVxhiO+iSVxhiO+iSVxhiO+iSVxhiO+iSVxhiO+iSVxhiO+iu1pC/cGAiSU+aGZlOYeQAV40wH3mCFCKJqFAxDkMAlMUeMBAQ5Qy3KLVu3IKiqyygETTKAXiYxh4gAOcYrR7UjlAwkU/ITEzlIpg5Q8aYSkN7ymGJJXGGI76JJXGGI76JJXGGI76JJXGGI76JJXGGI76JJXGGI76JJXGGI76JJXGGI76JJXGGI76JJXGGI76JJXGGI76JJXGGI76JJXGGI76JJXGGI76JJXGGI76JJXGGI76JJXGGI76JJXGGI76JJXGGI76JJXGGI76JJXGGI76JJXGGI76JJXGGI76JJXGGI76JJXGGI76JJXGGI76JJXGGI76JJXGGI76JJXGGI76JJXGGI76JJXGGI76JJXGGI76JJXGGI76JJXGGI76JJXGGI76JJXGGI76JJXGGI76JJXGGI76JJXGGI76JJXGGI76JJXGGI76JJXGGI76JJXGGI76JJXGGI76JJXGGI76JJXGGI76JJXGGI76JJXGGI76JJXGGI76JJXGGI76JJXGGI76JJXGGI76JJXGGI76JJXGGI76JJXGGI76JJXGGI76JJXGGI76JJXGGI76JJXGGI76JJXGGI76JJXGGI76JJXGGI76JJXGGI76JJXGGI76JJXGGI76JJXGGI76JJXGGI76JJXGGI76JJXGGI76JJXGGI76JJXGGI76JJXGGI76JJXGGI76JJXGGI76JdWrcg8qhpUmYC/Aqoj/ACi0BhM3iZOGrL1OEg8TL5xFFQAMIe0AEPb5PmYaGlkZyp6KnldOQ0ZLIzpNoqPrDnSXRVsjpy+jK5XoTXvb5Gbcx70vJOyo1tVxFAbuAuE0uZl+6dwAD+mIjwSX8g8If0YervHjtQyy7hdQVFFTmG8TGMPGIiPnHyM5Ve05PD/ZpA4cqCY8udj+BADD/wAJTkAv6JhC7iEcucqtaFpxydm5BuoJQmztMblFFBD8SRTAJSl5BuEw8oXepk3dyuay9Uq7V41VFNVI4DeAlMH/AODHi06xpo5GM7ImAFKveW9JyUvmBQAG8A4gMU3mu8lzMNDSyM5U9FTyunIaMlkZ0m0VH1hzpLoq2R05fRlcr0Jr3t8jNuY96XkjH8TJ5dL2TUhh4ipigCo3e86ph8kqZN3L3iDpA5RuEqiZwMUQ+IBBRKdw3TVMUQuuExQEQ/nkiIOpbIn7tAQ8yibc5ij8wCDidRUwnOYRvExhG8RH4+pyg/Y5rTK53BL+ITJLJCQ3vDhGD94fJczDQ0sjOVPRU8rpyGjJZGdJtFR9Yc6S6KtkdOX0ZXK9Ca97fIzbmPel5JodSU1EzTlUwVKW8EXqAD4vhc3DSuAPamPkmqijQXqb2aqlLeVuxSMB1TmHzXgHBDnMYAgoFKUAKUA8wBkk4baYNlWqxedNQolMHyEYbHScyV6dJI5i3Au3Eb0Vi85TEEo3+32epzM6LV8iEhk5jlu8cUDgdwoX/CBipkv5wNzeS5mGhpZGcqeip5XTkNGSyM6TaKj6w50l0VbI6cvoyuV6E172+Rm3Me9LyUmSmklmyQpOEFAuEPOU5DcpTlG4QMHGAhDhCtZAYwnRbKLkbzFAvmKYpxAil3pFEBH0QiwOrREo3CJWpRD4CBrhiwKruxhriwKruxhriwKruxhriwKruxhriwKruxhriwKruxhrijEqPl5jACz2duSEEhfOIIkEyhh9lwe8IE0znsyAozeduCAVd0YOQhQD+7SAb7iAPtERHLcBIauliYkl07SSA48Dl8SuXi8Ynfx8t5RERAeUBs6Gp2hTCCb2RuU1yKBz8AwlUL7hLFgVXdjDXFgVXdjDXFgVXdjDXFgVXdjDXFgVXdjDXFgVXdjDXFgVXdjDXFgVXdjDXFgVXdjDXFgVXdjDXFgVXdjDXFgVXdjDXFgVXdjDXFgVXdjDXFgVXdjDXFgVXdjDXFgVXdjDXFgVXdjDXFgVXdjDXFgVXdjDXFgVXdjDXFgVXdjDXFgVXdjDXFgVXdjDXFgVXdjDXFgVXdjDXFgVXdjDXFgVXdjDXFgVXdjDXFgVXdjDXFgVXdjDXFgVXdjDXFgVXdjDXFgVXdjDXFgVXdjDXFgVXdjDXFgVXdjDXFgVXdjDXFgVXdjDXFgVXdjDXFgVXdjDXFgVXdjDXFgVXdjDXFgVXdjDXFgVXdjDXFgVXdjDXFgVXdjDXFgVXdjDXFgVXdjDXFgVXdjDXFgVXdjDXFgVXdjDXFgVXdjDXFgVXdjDXFgVXdjDXFgVXdjDXFgVXdjDXFgVXdjDXFgVXdjDXFgVXdjDXFgVXdjDXFgVXdjDXFgVXdjDXFgVXdjDXFgVXdjDXFgVXdjDXFgVXdjDXFgVXdjDXFgVXdjDXFgVXdjDXFgVXdjDXFgVXdjDXFgVXdjDXFgVXdjDXFgdVlMcbgE7cpCh7xEwAEPkKckaJiqKSlk4Ku/dAHHwDHJeREo+cQExuYA5YlLeWSiVNytmbRAnBIkmXkAA/mI8oiIiPH5LmYaGlkZyp6KnldOQ0ZLIzpNoqPrDnSXRVsjpy+jK5XoTXvb5Gbcx70vXPmYaGlkZyp6KnldOQ0ZLIzpNoqPrDnSXRVsjpy+jK5XoTXvb5Gbcx70vXPmYaGlkZyp6KnldOQ0ZLIzpNoqPrDnSXRVsjpy+jK5XoTXvb5Gbcx70vXPmYaGlkZyp6KnldOQ0ZLIzpNoqPrDnSXRVsjpy+jK5XoTXvb5Gbcx70vXPmYaGlkZyp6KnldOQ0ZLIzpNoqPrDnSXRVsjpy+jK5XoTXvb5Gbcx70vJTpGVSWVIi4du1zXFIUP5iIjcAAHGIiABEjZ07JkjmIlNJk3By9cBycMEzf2aQDygAgYfb5otqmBeEN9xWTUAD3B4qLbJn2NruotsmfY2u6i2yZ9ja7qLbJn2NruotsmfY2u6i2yZ9ja7qJhKq0lgGDxzZ+zI3WEvn4CyIFEB/aAweyHKjZ+z4Kc0k7kwfaWKghxX3cRiDx8E4cQ3eYbwy/GTWopiQxpXImpwBZxdxeMUMP8AdpAPEJhAbx4gAR5KhllIMBMIpNJYwTUMUvmAyqwHMYfaFweyLbJn2NruotsmfY2u6i2yZ9ja7qLbJn2NruotsmfY2u6i2yZ9ja7qLbJn2NruotsmfY2u6i2yZ9ja7qLbJn2NruotsmfY2u6i2yZ9ja7qLbJn2NruotsmfY2u6i2yZ9ja7qLbJn2NruotsmfY2u6i2yZ9ja7qLbJn2NruotsmfY2u6i2yZ9ja7qLbJn2NruotsmfY2u6i2yZ9ja7qLbJn2NruotsmfY2u6i2yZ9ja7qLbJn2NruotsmfY2u6i2yZ9ja7qLbJn2NruotsmfY2u6i2yZ9ja7qLbJn2NruotsmfY2u6i2yZ9ja7qLbJn2NruotsmfY2u6i2yZ9ja7qLbJn2NruotsmfY2u6i2yZ9ja7qLbJn2NruotsmfY2u6i2yZ9ja7qLbJn2NruotsmfY2u6i2yZ9ja7qLbJn2NruotsmfY2u6i2yZ9ja7qLbJn2NruotsmfY2u6i2yZ9ja7qLbJn2NruotsmfY2u6i2yZ9ja7qLbJn2NruotsmfY2u6i2yZ9ja7qLbJn2NruotsmfY2u6i2yZ9ja7qLbJn2NruotsmfY2u6i2yZ9ja7qLbJn2NruotsmfY2u6i2yZ9ja7qLbJn2NruotsmfY2u6i2yZ9ja7qLbJn2NruotsmfY2u6i2d8oJRv4KjFoYo+8BS44kbR7LlzgmM+lSHil2943cNVAB4Jyh5xJwRDmHkiZt5jLJigRy0dt1AOmskYLymKYOUBDyXMw0NLIzlT0VPK6choyWRnSbRUfWHOkuirZHTl9GVyvQmve3yM25j3peSenSlUnaJziapkNcC7tW/xJTc4ETDhAHOpf5g8k7UJLXLtOWzlADfdXYrHApwMHnEt4HDmEoQICUwXgIecMlTxbZigo5WP6KZCiYw/IBhyooeaOz/AGRIxrytmhREEUSh5gKS73iIj5/U56ddGTpBOpL4w14pImOBF0g/wgcxDgHm4ZvJczDQ0sjOVPRU8rpyGjJZGdJtFR9Yc6S6KtkdOX0ZXK9Ca97fIzbmPel5IDeKmkvlztsYeQyf2cqfF7jJmD4eSTMo6eu0W6BSheJlDnApQD4iEG4SiDdNM4j5zFKACP8ALJARdP5DMGyAByioducpQ+YhBRKcg8ExR5QEOUPU5M32SXUu4BwfzAKi6IED3jcI/AfJczDQ0sjOVPRU8rpyGjJZGdJtFR9Yc6S6KtkdOX0ZXK9Ca97fIzbmPel5JgLysKRSUKZmmH9pMWAjwjJE51CGvMUPPeYOUQhBRFdE4pqJqFEpyGAbhKIDxgID5h8jKFGtI00t9plJXBOD+U3xfwGIA8qSY/eE3IJgAAv47sqUKr0DU7s7tNdEgiSWOlDCZRupd+EomERII8QgN3KHqbL3D9+9VKg2bN0xUVWUMNwFKUOMREfMEIFJWVWHTeTYgXG+xplAfEtbw5RKBjCYQ4uEYQ8weS5mGhpZGcqeip5XTkNGSyM6TaKj6w50l0VbI6cvoyuV6E172+Rm3Me9LydGfYp4t/eTaUK/ZHKg86lwCRQfacoj7YtFrlMgjxF8a1G74ijFpNc/W03MWk1z9bTcxaTXP1tNzFpNc/W03MWk1z9bTcxaTXP1tNzEmm1XOm5gOmWeOwUbgYOQRRTKQhvca8PZDVJs2bkKmiiiQCJpkALgKUocQAAeYMuWNpjL3iYpOGrpIqqSpB5SmKYBAQ98M59SaqxhMZGUPQ+zgI+imsU4F9wCAeyLSa5+tpuYtJrn62m5i0mufrabmLSa5+tpuYtJrn62m5i0mufrabmLSa5+tpuYtJrn62m5i0mufrabmLSa5+tpuYtJrn62m5i0mufrabmLSa5+tpuYtJrn62m5i0mufrabmLSa5+tpuYtJrn62m5i0mufrabmLSa5+tpuYtJrn62m5i0mufrabmLSa5+tpuYtJrn62m5i0mufrabmLSa5+tpuYtJrn62m5i0mufrabmLSa5+tpuYtJrn62m5i0mufrabmLSa5+tpuYtJrn62m5i0mufrabmLSa5+tpuYtJrn62m5i0mufrabmLSa5+tpuYtJrn62m5i0mufrabmLSa5+tpuYtJrn62m5i0mufrabmLSa5+tpuYtJrn62m5i0mufrabmLSa5+tpuYtJrn62m5i0mufrabmLSa5+tpuYtJrn62m5i0mufrabmLSa5+tpuYtJrn62m5i0mufrabmLSa5+tpuYtJrn62m5i0mufrabmLSa5+tpuYtJrn62m5i0mufrabmLSa5+tpuYtJrn62m5i0mufrabmLSa5+tpuYtJrn62m5i0mufrabmLSa5+tpuYtJrn62m5i0mufrabmLSa5+tpuYtJrn62m5i0mufrabmLSa5+tpuYtJrn62m5i0KuV0wH7xPHNS3/ABBHiijEizcSCQ03mCguntw8oFUN+AB84EAt/k+ZhoaWRnKnoqeV05DRksjOk2io+sOdJdFWyOnL6MrlehNe9vkZtzHvS9c+ZhoaWRnKnoqeV05DRksjOk2io+sOdJdFWyOnL6MrlehNe9vkZtzHvS9c+ZhoaWRnKnoqeV05DRksjOk2io+sOdJdFWyOnL6MrlehNe9vkZtzHvS9c+ZhoaWRnKnoqeV05DRksjOk2io+sOdJdFWyOnL6MrlehNe9vkZtzHvS8nN2UuaJ/jcO3BEUy+8xhAAi3KhinINwh+XWw3fI8W6UNjjfai3Shscb7UW6UNjjfai3Shscb7UW6UNjjfai3Shscb7UVnI56QoXmGXTBJxwffwDDd5GvaekRhC8CzGZItzCHsA5gEYtzobHG+1FulDY432ot0obHG+1FulDY432ot0obHG+1FulDY432ot0obHG+1FulDY432ot0obHG+1FulDY432ot0obHG+1FulDY432ot0obHG+1FulDY432ot0obHG+1FulDY432ot0obHG+1FulDY432ot0obHG+1FulDY432ot0obHG+1FulDY432ot0obHG+1FulDY432ot0obHG+1FulDY432ot0obHG+1FulDY432ot0obHG+1FulDY432ot0obHG+1FulDY432ot0obHG+1FulDY432ot0obHG+1FulDY432ot0obHG+1FulDY432ot0obHG+1FulDY432ot0obHG+1FulDY432ot0obHG+1FulDY432ot0obHG+1FulDY432ot0obHG+1FulDY432ot0obHG+1FulDY432ot0obHG+1FulDY432ot0obHG+1FulDY432ot0obHG+1FulDY432ot0obHG+1FulDY432ot0obHG+1FulDY432ot0obHG+1FulDY432ot0obHG+1FulDY432ot0obHG+1FulDY432ot0obHG+1FulDY432ot0obHG+1FulDY432ot0obHG+1FulDY432ot0obHG+1FulDY432otvodRU43FKE9bBf8zw/bPWqoXprt1SqJnDnAxREB8nzMNDSyM5U9FTyunIaMlkZ0m0VH1hzpLoq2R05fRlcr0Jr3t8jNuY96XkkE5hPZkczSRysT8H7S4uvE5xDjBIgXCYQ5wAOMQisHs1VUOJkWoqCRo1KI8REUQ+6QA91/OIxdABABABABABABE8fyeZNTgdF2xcGRVIYPOBiiAw7RNWLdAVJXNLgJ+VkiBecigBxAuUA4V4cRgARuAQG/KmgNJy1L4ufT1K4VGhxC/wCzNx5AUABDhH5S33BcN4hM3cxfODCdZy7WMqqoYeUTGMIiIwAQAQAQAQAQAQAQAQAQAQAQAQAQAQAQAQAQAQAQAQAQAQAQAQAQAQAQAQAQAQAQAQAQAQAQAQAQAQAQAQAQAQAQAQAQAQAQAQAQAQAQAQAQAQAQAQAQAQAQAQAQAQAQAQAQAQAQAQAQAQAQAQAQARdFUuUmgHAXcpcKGUYvCX8ZTpCNwCPpFuMHmGAFuqcRbTKXnOBlGLsoBw0jD5w4wEpvOUQHnDyXMw0NLIzlT0VPK6choyWRnSbRUfWHOkuirZHTl9GVyvQmve3yM25j3peSXMLCkpS1aN0r/ugosTxypruceGQPcQPJODIvJFNGz5MxRuH7igCIe4S3gPsEY/A4SIqX3GABDvyScP8AI0rdTDg8/ikjHu/6YcncP5q6VeuVTjeY6qhhMYRH3iPqcucZdPJJ+UfFX/dK4bqlKBvYIkVMHwDyXMw0NLIzlT0VPK6choyWRnSbRUfWHOkuirZHTl9GVyvQmve3yM25j3peSbm/JtYyluqiqAfd+0NygiqS/nAATN+95JuZZ1PZo3aAABfwSCcPGHH2FIBjCPMEB9xBMqZfcULg7sk3BJOJc5YGNzAqkYl//VDU7aYyV4swdJHC4SKJnEpg+YepzY5ZbJ5UEnRVEPuncrqFOYoD5+CRO8f2w5/JczDQ0sjOVPRU8rpyGjJZGdJtFR9Yc6S6KtkdOX0ZXK9Ca97fIzbmPel5I4tHqJhdSiZkIBlGLoAuA4B+kQQ+6YvnAecAEKLeqS4hxBvOWKJl2LgnmMChQ+6Ih+ie4wc3gGBgYGBgYoybz98sYClTYtTKAF/nMYA4JQ9phAIM2eV9MG4oIoImBRGUIG/EQpuQ6puQxg4gD7oX3iI5SDdOsBSAJrKzmBIk2AgXFUIYeIq4AAAN9wHAA4wEOOk5tIn6BhKdB+0OiYBDm4QBeHtDigYGBgYGBgYGBgYGBgYGBgYGBgYGBgYGBgYGBgYGBgYGBgYGBgYGBgYGBgYGBgYGBgYGBgYGBgYGBgYGBgYGBgYGBgYGBgYGBgYGAERHkAOUYpZ3KKfMcPtU/maBkWqSd/GJOEACsa7kKS/2iAccIGBmxAVHDlQA8a8cmu8YuoIfpGEOTkAAAA4g8lzMNDSyM5U9FTyunIaMlkZ0m0VH1hzpLoq2R05fRlcr0Jr3t8jNuY96Xk0iqJnC4xDlAQEOYQGKIkBjGG8TGliIiI/TFB0/hiGzFB0/hiGzFB0/hiGzFB0/hiGzFB0/hiGzFB0/hiGzEtas0f8Alt0Spl+RQAPIypk/TDkI5QIqUPgYBig6fwxDZig6fwxDZig6fwxDZig6fwxDZig6fwxDZig6fwxDZig6fwxDZig6fwxDZig6fwxDZig6fwxDZig6fwxDZig6fwxDZig6fwxDZig6fwxDZig6fwxDZig6fwxDZig6fwxDZig6fwxDZig6fwxDZig6fwxDZig6fwxDZig6fwxDZig6fwxDZig6fwxDZig6fwxDZig6fwxDZig6fwxDZig6fwxDZig6fwxDZig6fwxDZig6fwxDZig6fwxDZig6fwxDZig6fwxDZig6fwxDZig6fwxDZig6fwxDZig6fwxDZig6fwxDZig6fwxDZig6fwxDZig6fwxDZig6fwxDZig6fwxDZig6fwxDZig6fwxDZig6fwxDZig6fwxDZig6fwxDZig6fwxDZig6fwxDZig6fwxDZig6fwxDZig6fwxDZig6fwxDZig6fwxDZig6fwxDZig6fwxDZig6fwxDZig6fwxDZig6fwxDZig6fwxDZig6fwxDZig6fwxDZig6fwxDZig6fwxDZig6fwxDZig6fwxDZig6fwxDZig6fwxDZig6fwxDZig6fwxDZig6fwxDZig6fwxDZiipCkoQbynJLkSiA+wQLBQKUoXAABcAB5PmYaGlkZyp6KnldOQ0ZLIzpNoqPrDnSXRVsjpy+jK5XoTXvb5Gbcx70vXPmYaGlkZyp6KnldOQ0ZLIzpNoqPrDnSXRVsjpy+jK5XoTXvb5Gbcx70vXPmYaGlkZyp6KnldOQ0ZLIzpNoqPrDnSXRVsjpy+jK5XoTXvb5Gbcx70vXPmYaGlkZyp6KnldOQ0ZLIzpNoqPrDnSXRVsjpy+jK5XoTXvb5Gbcx70vJzZ5VU/aCJF2MjIVUiBw5SqLGEEymDzgAmEPOEWETwxL/uiadIgIh7vFjdFgk6xxHdRYJOscR3UWCTrHEd1Fgk6xxHdRYJOscR3UWCTrHEd1FPz+izLmApXbkCO2pBH0zpffKHt4F0TZpM5Y+SBZs7aLFVSWIPIYpiiICGXUDGTShiTxjh48WBNJMPePKI+YA4x80UbUdWkSMJRdgJGSB7vOTxl5xD2iQIsEnWOI7qLBJ1jiO6iwSdY4juosEnWOI7qLBJ1jiO6iwSdY4juosEnWOI7qLBJ1jiO6iwSdY4juosEnWOI7qLBJ1jiO6iwSdY4juosEnWOI7qLBJ1jiO6iwSdY4juosEnWOI7qLBJ1jiO6iwSdY4juosEnWOI7qLBJ1jiO6iwSdY4juosEnWOI7qLBJ1jiO6iwSdY4juosEnWOI7qLBJ1jiO6iwSdY4juosEnWOI7qLBJ1jiO6iwSdY4juosEnWOI7qLBJ1jiO6iwSdY4juosEnWOI7qLBJ1jiO6iwSdY4juosEnWOI7qLBJ1jiO6iwSdY4juosEnWOI7qLBJ1jiO6iwSdY4juosEnWOI7qLBJ1jiO6iwSdY4juosEnWOI7qLBJ1jiO6iwSdY4juosEnWOI7qLBJ1jiO6iwSdY4juosEnWOI7qLBJ1jiO6iwSdY4juosEnWOI7qLBJ1jiO6iwSdY4juosEnWOI7qLBJ1jiO6iwSdY4juosEnWOI7qLBJ1jiO6iwSdY4juosEnWOI7qLBJ1jiO6iwSdY4juosEnWOI7qLBJ1jiO6iwSdY4juosEnWOI7qLBJ1jiO6iwSdY4juosEnWOI7qLBJ1jiO6iwmekTEfvGJOUTGAPYAphf8wifOJFUS/93KJ0QqCqw8yRwEU1B9gG4Xs8nzMNDSyM5U9FTyunIaMlkZ0m0VH1hzpLoq2R05fRlcr0Jr3t8jNuY96XkpodjUNWoHXmLxA/BVZy68ScEghxlOqYDBfygUpruUBgRERG8REeMR8jNVVaKrB0VomkscRJLn5xuSVTv/CU5riHAOIeEBuUMoQAAC8RHzRNFiULS7tRnKWhDiCblQgiU7s4fpGMIDwb+Qt13KN/qYuoisicFE1EzCU5DAN4GAQ4wEB84Q+F1WFGGSbunJx+++aHAfErm5z/AHTEMPnEAH9LyXMw0NLIzlT0VPK6choyWRnSbRUfWHOkuirZHTl9GVyvQmve3yM25j3peS4QEZsZag2KPICX2YhuL3mOYfeI+SMYrlu5SVREvKBynASiHtvAIAQWVbpnUAfMYSgI/wA8kTA7a0/MVkBLygoVucSiHtvAIEREeMRHzj6nHODZ3Szn7QUOQeAuiJBH3CI/PyXMw0NLIzlT0VPK6choyWRnSbRUfWHOkuirZHTl9GVyvQmve3yM25j3peSYnXl6zYkmnpkyiP2dUgiLdU3MUxTCS/zCUoecPJMVDyKSuUptPXPB/s0mqRwNwBHk4ShgAgB7RHzDAAABxAAZKQKN3SR0VSDyGIYBAwfEBGGqpWqDg7iVOTFECu2JzCKKhR5B+790eYxRD1OYKNj1OmSWyQqhbjHZEPwlVrh/ROoBQKPnBMR5BDyXMw0NLIzlT0VPK6choyWRnSbRUfWHOkuirZHTl9GVyvQmve3yM25j3peSlbaZSqYombu2jlMDpLJmC4SmAYrFmkzWMKgSOeGOUUL/ANFJwUDcIvMBy3h6QxSsgMADdeE9QuH5xSchx1DXFJyHHUNcUnIcdQ1xSchx1DXFJyHHUNcUnIcdQ1xVMgpaWAYBWBosL50YvnAhSgCYD7RN8BiTi3ROIKvXqwgd0+Wuu8Yqe7jHmALilDiAAy5cok9Z8I0sm7W4rticeXgmHiMQbgvIbiH2DcMT6m6qlwmHxSijkWLgC+bhkOAlv9xxik5DjqGuKTkOOoa4pOQ46hrik5DjqGuKTkOOoa4pOQ46hrik5DjqGuKTkOOoa4pOQ46hrik5DjqGuKTkOOoa4pOQ46hrik5DjqGuKTkOOoa4pOQ46hrik5DjqGuKTkOOoa4pOQ46hrik5DjqGuKTkOOoa4pOQ46hrik5DjqGuKTkOOoa4pOQ46hrik5DjqGuKTkOOoa4pOQ46hrik5DjqGuKTkOOoa4pOQ46hrik5DjqGuKTkOOoa4pOQ46hrik5DjqGuKTkOOoa4pOQ46hrik5DjqGuKTkOOoa4pOQ46hrik5DjqGuKTkOOoa4pOQ46hrik5DjqGuKTkOOoa4pOQ46hrik5DjqGuKTkOOoa4pOQ46hrik5DjqGuKTkOOoa4pOQ46hrik5DjqGuKTkOOoa4pOQ46hrik5DjqGuKTkOOoa4pOQ46hrik5DjqGuKTkOOoa4pOQ46hrik5DjqGuKTkOOoa4pOQ46hrik5DjqGuKTkOOoa4pOQ46hrik5DjqGuKTkOOoa4pOQ46hrik5DjqGuKTkOOoa4pOQ46hrik5DjqGuKTkOOoa4pinkimG4TnnqNxfaN14/IIqhpOwbHKqWQSrhg2UMA3gC6xgAxy85SlAB57oaItWjVIqKCCJAImkmULilKUOIAAAAAAPJczDQ0sjOVPRU8rpyGjJZGdJtFR9Yc6S6KtkdOX0ZXK9Ca97fIzbmPel658zDQ0sjOVPRU8rpyGjJZGdJtFR9Yc6S6KtkdOX0ZXK9Ca97fIzbmPel658zDQ0sjOVPRU8rpyGjJZGdJtFR9Yc6S6KtkdOX0ZXK9Ca97fIzbmPel658zDQ0sjOVPRU8rpyGjJZGdJtFR9Yc6S6KtkdOX0ZXK9Ca97fIzbmPel658zDQ0sjOVPRU8rpyGjJZGdJtFR9Yc6S6KtkdOX0ZXK9Ca97fIzbmPel5KdISqTSlEV3LhUeQPMUocpjCNwAUOMREAhg1pCRFMJEXrlAjmYLl8xx4d6aV/ogAiHpRbxUgCYbxApkih8AAlwRbzU3WJ7EW81N1iexFvNTdYnsRbzU3WJ7EW81N1iexFvNTdYnsRVDSs5aUweOZzdomBjl8/BWSApyj7RvD2DBzsJzLwKWbSRycBcMzjyGAQ/vExG/gnAPNcIAPFlpDOqqmaZjyyRoKgQ5yhxeNWNx+LSAeK+4REQEAAeMQrlGlGRjCKTKSs0yAmXzAKigGUMPtv+EW81N1iexFvNTdYnsRbzU3WJ7EW81N1iexFvNTdYnsRbzU3WJ7EW81N1iexFvNTdYnsRbzU3WJ7EW81N1iexFvNTdYnsRbzU3WJ7EW81N1iexFvNTdYnsRbzU3WJ7EW81N1iexFvNTdYnsRbzU3WJ7EW81N1iexFvNTdYnsRbzU3WJ7EW81N1iexFvNTdYnsRbzU3WJ7EW81N1iexFvNTdYnsRbzU3WJ7EW81N1iexFvNTdYnsRbzU3WJ7EW81N1iexFvNTdYnsRbzU3WJ7EW81N1iexFvNTdYnsRbzU3WJ7EW81N1iexFvNTdYnsRbzU3WJ7EW81N1iexFvNTdYnsRbzU3WJ7EW81N1iexFvNTdYnsRbzU3WJ7EW81N1iexFvNTdYnsRbzU3WJ7EW81N1iexFvNTdYnsRbzU3WJ7EW81N1iexFvNTdYnsRbzU3WJ7EW81N1iexFvNTdYnsRbzU3WJ7EW81N1iexFvNTdYnsRbzU3WJ7EW81N1iexFvNTdYnsRbzU3WJ7EW81N1iexFvNTdYnsRbzU3WJ7EW81N1iexFvNTdYnsRbzU3WJ7EW81N1iexFvNTdYnsRbzU3WJ7EW81N1iexFvNTdYnsRbvURjFG8AUFI5R94GIIDErbTyTLHKmedS5uCDxqA8XDOkW4ipQ84FApvfyRNm8ylM0QI6Zu25uEmskYLwMA//l3IPkuZhoaWRnKnoqeV05DRksjOk2io+sOdJdFWyOnL6MrlehNe9vkZtzHvS8k8OnKJCzTm0xSKa4F3i1/i+FzgRMAEPaoPknShGJnibCboga4rhisYCKlMHnuAQOHMYoQIGKYAEB5wHJPwGzBuo6WN6KZCiYw/IBhydVecPDnQTMa8G7YBuRRLzFKQCh77x8/qc8Os2lyIT2TFOa/xJDHAjhIv+HhGTOAeYRNz+S5mGhpZGcqeip5XTkNGSyM6TaKj6w50l0VbI6cvoyuV6E172+Rm3Me9LyRT+Jm8ulz1qY3IZMECpjd7jpmDySZlHT94i1QIULxMoc4FKAfEQg3COg3TSMI+cSlABH+WSUTOpjIX7VAA5RUO3OUofMQggkUTESGKPKAhxCA+pyZvskrphcrg93EBlVkgIX3jwTD+6PkuZhoaWRnKnoqeV05DRksjOk2io+sOdJdFWyOnL6MrlehNe9vkZtzHvS8kyBxWlIpqeKal4jzJkb7x0Cj6ZRDhEDz3mDlEIaLNXTZQySyCxBIokco3CUxR4wEB8w+Rk6rOmJCp9pkaLlMSmmTwPwKlKP8Awkx+8BuQxgC68AHLk6zmgqldGdqHbpiYJS7UMIqJKAH4UzGETENycfB5QC/1MlTqZzN+qVBq0apCoqsoI3AUpQ4xGE0xrKqFCPZyJBAwNgKAgk1KYOXgAYwiIcQmMbzAHkuZhoaWRnKnoqeV05DRksjOk2io+sOdJdFWyOnL6MrlehNe9vkZtzHvS8nQSH5YOFwzaXqC0eD+0cnEp++BoqOu0yiN4ECYtxAPmhfFUV5iDfcRVFeYg33EVRXmIN9xFUV5iDfcRVFeYg33EVRXmIN9xFHvKmetzAdI8/di5TIYOQfEgBUx/eKMIkRRRKBE00ygUpCgFwAABxAAB5stkg8aOUxSXbrpgomqQeISmKa8BAeYYpiaUw4XETHLI34ooiI8ogkcpyF9xQAPZFUV5iDfcRVFeYg33EVRXmIN9xFUV5iDfcRVFeYg33EVRXmIN9xFUV5iDfcRVFeYg33EVRXmIN9xFUV5iDfcRVFeYg33EVRXmIN9xFUV5iDfcRVFeYg33EVRXmIN9xFUV5iDfcRVFeYg33EVRXmIN9xFUV5iDfcRVFeYg33EVRXmIN9xFUV5iDfcRVFeYg33EVRXmIN9xFUV5iDfcRVFeYg33EVRXmIN9xFUV5iDfcRVFeYg33EVRXmIN9xFUV5iDfcRVFeYg33EVRXmIN9xFUV5iDfcRVFeYg33EVRXmIN9xFUV5iDfcRVFeYg33EVRXmIN9xFUV5iDfcRVFeYg33EVRXmIN9xFUV5iDfcRVFeYg33EVRXmIN9xFUV5iDfcRVFeYg33EVRXmIN9xFUV5iDfcRVFeYg33EVRXmIN9xFUV5iDfcRVFeYg33EVRXmIN9xFUV5iDfcRVFeYg33EVRXmIN9xFUV5iDfcRVFeYg33EVRXmIN9xFUV5iDfcRVFeYg33EVRXmIN9xFUV5iDfcRVFeYg33EVRXmIN9xFUV5iDfcRVFeYg33EVRXmIN9xFUV5iDfcRVFeYg33EVRXmIN9xFUV5iDfcRVFeYg33ET6ulyFG8UzTJAoG+JUAH+cUEzYzA5OApM3Ai5enL5w8cpeYoDzFuD2eT5mGhpZGcqeip5XTkNGSyM6TaKj6w50l0VbI6cvoyuV6E172+Rm3Me9L1z5mGhpZGcqeip5XTkNGSyM6TaKj6w50l0VbI6cvoyuV6E172+Rm3Me9L1z5mGhpZGcqeip5XTkNGSyM6TaKj6w50l0VbI6cvoyuV6E172+Rm3Me9L1z5mGhpZGcqeip5XTkNGSyM6TaKj6w50l0VbI6cvoyuV6E172+Rm3Me9LydeySnUDhen9vdlTOp+wT8RvgAxbSyMJRuvJLnhgH3CCNwxbO1wx7uYtna4Y93MWztcMe7mLZ2uGPdzFs7XDHu5i2Zrhj3cxa7T8zfqfgZi48Q4P7CpqgUxvgA+Rtip5m/RHgqtUVxdLJjzGIiBxKPsG4Ytma4Y93MWztcMe7mLZ2uGPdzFs7XDHu5i2drhj3cxbO1wx7uYtna4Y93MWztcMe7mLZ2uGPdzFs7XDHu5i2drhj3cxbO1wx7uYtna4Y93MWztcMe7mLZ2uGPdzFs7XDHu5i2drhj3cxbO1wx7uYtna4Y93MWztcMe7mLZ2uGPdzFs7XDHu5i2drhj3cxbO1wx7uYtna4Y93MWztcMe7mLZ2uGPdzFs7XDHu5i2drhj3cxbO1wx7uYtna4Y93MWztcMe7mLZ2uGPdzFs7XDHu5i2drhj3cxbO1wx7uYtna4Y93MWztcMe7mLZ2uGPdzFs7XDHu5i2drhj3cxbO1wx7uYtna4Y93MWztcMe7mLZ2uGPdzFs7XDHu5i2drhj3cxbO1wx7uYtna4Y93MWztcMe7mLZ2uGPdzFs7XDHu5i2drhj3cxbO1wx7uYtna4Y93MWztcMe7mLZ2uGPdzFs7XDHu5i2drhj3cxbO1wx7uYtna4Y93MWztcMe7mLZ2uGPdzFs7XDHu5i2drhj3cxbO1wx7uYtna4Y93MWztcMe7mLZ2uGPdzFs7XDHu5i2drhj3cxbO1wx7uYtna4Y93MWztcMe7mLaWBBMN16kveEKHvEUrgis5PULLiAysvdkWAg8xgKN5R9ggA+T5mGhpZGcqeip5XTkNGSyM6TaKj6w50l0VbI6cvoyuV6E172+Rm3Me9LySaDqtKkFRvJW6ocIiAFAPGOlC+cpLwAA/SMIByAMVE+nc4fHFRd28VFQ4iPmC/iKUPMULgDzB5BQ6aiZgMQ5DCBiiHIICHGAxOVZi6cpiWm5w6PwljmIW/7IsYeM4iUBEhh4+LgjfxZc9WlknlJzNKgmjNTgrPXIcR25DhxlSJ+E13GY14cgcYiImG8RHlEfUypnklmrQwCCiB/uKlv4yKk/CoQfOUwCEIpMp/L1AYz1gQ14IOQLeByX8fizh94t/tDzeS5mGhpZGcqeip5XTkNGSyM6TaKj6w50l0VbI6cvoyuV6E172+Rm3Me9LySpxa03KmLBqmI8ReGn444gHtMqPyDyS50XsnmLd8goQbhKdNQpg7oLwQcokWAObhFAf98kL1pRJnr5L9tJE5w/mUIWMs5dqnXWUMN4nOcRMYwjziIiPqcoYWM7p07lVO/iBVusTgGu5+CocPj5LmYaGlkZyp6KnldOQ0ZLIzpNoqPrDnSXRVsjpy+jK5XoTXvb5Gbcx70vJNTjKavlqTcywF+6R42DgGII84p+LMHPcbm8k3OqaazJIHJgLeCLUhgOsobmAqZTD8g88F4JEigQocwAFwZP/u82ZLsVf2FUxIP8jDDU7eYyB+qxWKYLuFwDCBThzlMW4wD5wEPU5ockuasiyFgqYLgVXUOVRYS8/BKRMB/b8lzMNDSyM5U9FTyunIaMlkZ0m0VH1hzpLoq2R05fRlcr0Jr3t8jNuY96XkmIrMXgAog4SuBZm4LfwF0jDyGLf7hARAeIYpV1WtOlMJm80kiIrH8X5vGtwvUIa7luAS8wxZ3U5DlG4SmlDgBAfoiz6pcJcbEWfVLhLjYiz6pcJcbEWfVLhLjYiz6pcJcbEWfVLhLjYiyafESUMBTPpi1MyapB6RlVQKF3uvH2Q9RnlczdEEn8zIQQSbJXgP2duA8YFvABMYbhMIBxAAXZbxrJK/ZIAj45YBBtM0i/hTXEAvKYOQqlw3BxCAhddZFUiXijCUHLVid02Uu85VUgMUQ+MWfVLhLjYiz6pcJcbEWfVLhLjYiz6pcJcbEWfVLhLjYiz6pcJcbEWfVLhLjYiz6pcJcbEWfVLhLjYiz6pcJcbEWfVLhLjYiz6pcJcbEWfVLhLjYiz6pcJcbEWfVLhLjYiz6pcJcbEWfVLhLjYiz6pcJcbEWfVLhLjYiz6pcJcbEWfVLhLjYiz6pcJcbEWfVLhLjYiz6pcJcbEWfVLhLjYiz6pcJcbEWfVLhLjYiz6pcJcbEWfVLhLjYiz6pcJcbEWfVLhLjYiz6pcJcbEWfVLhLjYiz6pcJcbEWfVLhLjYiz6pcJcbEWfVLhLjYiz6pcJcbEWfVLhLjYiz6pcJcbEWfVLhLjYiz6pcJcbEWfVLhLjYiz6pcJcbEWfVLhLjYiz6pcJcbEWfVLhLjYiz6pcJcbEWfVLhLjYiz6pcJcbEWfVLhLjYiz6pcJcbEWfVLhLjYiz6pcJcbEWfVLhLjYiz6pcJcbEWfVLhLjYiz6pcJcbEWfVLhLjYiz6pcJcbEWfVLhLjYiz6pcJcbEWfVLhLjYiz6pcJcbEWfVLhLjYiz6pcJcbEWfVLhLjYiz6pcJcbEWfVLhLjYiz6pcJcbEWfVLhLjYiz6pcJcbEWfVLhLjYiz6pcJcbEWcVQqqcbikJJ3BjCPsACRJXNB0sBymcupknwHqqfnKi3H714h+kfglD28kSorCTyhEEkEw4zHHlMoc36RzDeImHlEfJczDQ0sjOVPRU8rpyGjJZGdJtFR9Yc6S6KtkdOX0ZXK9Ca97fIzbmPel658zDQ0sjOVPRU8rpyGjJZGdJtFR9Yc6S6KtkdOX0ZXK9Ca97fIzbmPel658zDQ0sjOVPRU8rpyGjJZGdJtFR9Yc6S6KtkdOX0ZXK9Ca97fIzbmPel658zDQ0sjOVPRU8rpyGjJZGdJtFR9Yc6S6KtkdOX0ZXK9Ca97fIzbmPel658zDQ0sjOVPRU8rpyGjJZGdJtFR9Yc6S6KtkdOX0ZXK9Ca97fIzbmPel5JYiKSRROoocwFKQoBeIiI8QAAeeJCvXj9qYU1XpHANpcU4DcIFUuMZX3lKBeYRix6kwLfxALxyIgHvvix+ku1udcWP0l2tzrix+ku1udcWP0l2tzrix+ku1udcWP0l2tzriyg8uaKGAp38jeCv4oPSFFQAEQ9x7/YMVG0nUmfFvScNz33G85DlHjIcPOUwAIZdSISiWoDwSCf7yrhS7iTSTD7yhx5gD2jcHHFjxXDEhhAjuePhIdUOfxSQDwficYsfpLtbnXFj9Jdrc64sfpLtbnXFj9Jdrc64sfpLtbnXFj9Jdrc64sfpLtbnXFj9Jdrc64sfpLtbnXFj9Jdrc64sfpLtbnXFj9Jdrc64sfpLtbnXFj9Jdrc64sfpLtbnXFj9Jdrc64sfpLtbnXFj9Jdrc64sfpLtbnXFj9Jdrc64sfpLtbnXFj9Jdrc64sfpLtbnXFj9Jdrc64sfpLtbnXFj9Jdrc64sfpLtbnXFj9Jdrc64sfpLtbnXFj9Jdrc64sfpLtbnXFj9Jdrc64sfpLtbnXFj9Jdrc64sfpLtbnXFj9Jdrc64sfpLtbnXFj9Jdrc64sfpLtbnXFj9Jdrc64sfpLtbnXFj9Jdrc64sfpLtbnXFj9Jdrc64sfpLtbnXFj9Jdrc64sfpLtbnXFj9Jdrc64sfpLtbnXFj9Jdrc64sfpLtbnXFj9Jdrc64sfpLtbnXFj9Jdrc64sfpLtbnXFj9Jdrc64sfpLtbnXFj9Jdrc64sfpLtbnXFj9Jdrc64sfpLtbnXFj9Jdrc64sfpLtbnXFj9Jdrc64sfpLtbnXFj9Jdrc64sfpLtbnXFj9Jdrc64sfpLtbnXFj9Jdrc64sfpLtbnXFj9Jdrc64sfpLtbnXFj9Jdrc64scpQ6YD94pHrkoiHsEb7vlEtcUHPnhypNzPHBVmDhQeICguAF4AiPIBygHtgQEB4wEPJczDQ0sjOVPRU8rpyGjJZGdJtFR9Yc6S6KtkdOX0ZXK9Ca97fIzbmPel5KZKNFZ41/KNQrInEpxaCYSpNrw5AOJTGNzgUocgj5KYqf9j6xdJSyatTm/s0lTjwUXJQ5AMUwgAj5yiIeYMo4ETTKJzmEbgKUAvERh8r/2Zk66rCn2XCHxaTYhrvG3cnDUEOEI8vGAcgB6nTBR7PaIIkLJysfhKOJae8pAMI8YimYOBf6Jic3kuZhoaWRnKnoqeV05DRksjOk2io+sOdJdFWyOnL6MrlehNe9vkZtzHvS8lwuCDKWg2v5PE/ZSXXfvcL43+S4X2gHCfiuDy8PhBwbvjdH9/wDZkvG/t8EL/wCd+SJgeBT0x8RwfxeM+zKcG7233Ry3ep3D+zjSzr7TdyXePQ4N/wC95LmYaGlkZyp6KnldOQ0ZLIzpNoqPrDnSXRVsjpy+jK5XoTXvb5Gbcx70vJS5R0MnahLKhTRJwjkbAYTIubg5SlEximHzAJR5AHyUvUGkaQdJTScOjEHxZzpm4STYB5BMcwBeHmKBh5spMqiSpRIoQwXgYohcID8IZK/9npmuo/p95wR8Wu0OYRBO/k4ad/AMHsAeQQ9TpcoznNbESJL26xOCojLSCJimMA8YCqYeFd6JSD5/JczDQ0sjOVPRU8rpyGjJZGdJtFR9Yc6S6KtkdOX0ZXK9Ca97fIzbmPel5Jumu3XIZJVJUgGIoQwXCUwDxCAgNwgMVOrQ710YVFJco3+0y8Tjxj4st4HSD2AJgDzAEWp0QJb+IRK7ARD3eLi1Oh/k73UWp0P8ne6i1Oh/k73UWp0P8ne6i1Oh/k73UWpUP8ne6i1dJyyTMBlGMgamIZUPRFdX8Ie4l8U61k0nZB9xBEvGc48qihh+8c4+cxhERy6bRmsvOPDSNfwFmqt1wKIqB94hg5w5eQQEOKLYGYMDmEU20+ZnBVMOYVUbwN7+AEWp0P8AJ3uotTof5O91FqdD/J3uotTof5O91FqdD/J3uotTof5O91FqdD/J3uotTof5O91FqdD/ACd7qLU6H+TvdRanQ/yd7qLU6H+TvdRanQ/yd7qLU6H+TvdRanQ/yd7qLU6H+TvdRanQ/wAne6i1Oh/k73UWp0P8ne6i1Oh/k73UWp0P8ne6i1Oh/k73UWp0P8ne6i1Oh/k73UWp0P8AJ3uotTof5O91FqdD/J3uotTof5O91FqdD/J3uotTof5O91FqdD/J3uotTof5O91FqdD/ACd7qLU6H+TvdRanQ/yd7qLU6H+TvdRanQ/yd7qLU6H+TvdRanQ/yd7qLU6H+TvdRanQ/wAne6i1Oh/k73UWp0P8ne6i1Oh/k73UWp0P8ne6i1Oh/k73UWp0P8ne6i1Oh/k73UWp0P8AJ3uotTof5O91FqdD/J3uotTof5O91FqdD/J3uotTof5O91FqdD/J3uotTof5O91FqdD/ACd7qLU6H+TvdRanQ/yd7qLU6H+TvdRanQ/yd7qLU6H+TvdRanQ/yd7qLU6H+TvdRanQ/wAne6i1Oh/k73UWp0P8ne6i1Oh/k73UWp0P8ne6i1Oh/k73UWp0P8ne6i1Oh/k73UWp0P8AJ3uotTof5O91FqtEkTEfvGIm7MIB7AFML/nE3UrydMzlVboLtwQlyCgcYG8TeYVRAeThjd/hgoFKULgAAuAA8lzMNDSyM5U9FTyunIaMlkZ0m0VH1hzpLoq2R05fRlcr0Jr3t8jNuY96XrnzMNDSyM5U9FTyunIaMlkZ0m0VH1hzpLoq2R05fRlcr0Jr3t8jNuY96XrnzMNDSyM5U9FTyunIaMlkZ0m0VH1hzpLoq2R05fRlcr0Jr3t8jNuY96XrnzMNDSyM5U9FTyunIaMlkZ0m0VH1hzpLoq2R05fRlcr0Jr3t8jNuY96XrnzMNDSyM5U9FTyunIaMlkZ0m0VH1hzpLoq2R05fRlcr0Jr3t8jNuY96XkpkLeXMSgVNJO4VnS5vwIpF/SOYfgAXiNwAIxUjihadEwlby+TKeLXFPzCs4D75jXcvBEpfZFq9YnOYbzGGeOhER+uLVKvxx1txapV+OOtuLVKvxx1txapV+OOtuLVKvxx1txapV+OOtuLWZ49bpmATsJu5M+bKgH6JiKiIh7yiA+2GaUjraUJFUmMqKpwk1k+T7Q3EeMyd/EIDxlEQAbwEBHKZNp7Xz5AFk2iph+zy5I34VnHB4xEf0UwEBHlEQC6+2KoyFUMJgay94Zk2TDmKmiJQu994+2LVKvxx1txapV+OOtuLVKvxx1txapV+OOtuLVKvxx1txapV+OOtuLVKvxx1txapV+OOtuLVKvxx1txapV+OOtuLVKvxx1txapV+OOtuLVKvxx1txapV+OOtuLVKvxx1txapV+OOtuLVKvxx1txapV+OOtuLVKvxx1txapV+OOtuLVKvxx1txapV+OOtuLVKvxx1txapV+OOtuLVKvxx1txapV+OOtuLVKvxx1txapV+OOtuLVKvxx1txapV+OOtuLVKvxx1txapV+OOtuLVKvxx1txapV+OOtuLVKvxx1txapV+OOtuLVKvxx1txapV+OOtuLVKvxx1txapV+OOtuLVKvxx1txapV+OOtuLVKvxx1txapV+OOtuLVKvxx1txapV+OOtuLVKvxx1txapV+OOtuLVKvxx1txapV+OOtuLVKvxx1txapV+OOtuLVKvxx1txapV+OOtuLVKvxx1txapV+OOtuLVKvxx1txapV+OOtuLVKvxx1txapV+OOtuLVKvxx1txapV+OOtuLVKvxx1txapV+OOtuLVKvxx1txapV+OOtuLVKvxx1txapV+OOtuLVKvxx1txapV+OOtuLVKvxx1txapV+OOtuLVKvxx1txapV+OOtuLWaxTUIN5TFnroBAfriar17S5jlI4TfGAX6BPOZJflMIB+ipeA8l4csTdOYyWcIAu3WLxCHmMQ5eUpyiAlMUeQQHyXMw0NLIzlT0VPK6choyWRnSbRUfWHOkuirZHTl9GVyvQmve3yM25j3peSdHLKKRlyTpVEDfdO9chwxOIecSpeLAOa83P5JydIZbMUgdkKYQBZocwEXTNzgJBN8bh80G4RFCgco84CF4ZI/8AdpUzWerfsJEE5v5FGHR15hP36r1Uxhv4IGN90gcxSl4JQDzAAepzs6kvXaBP5cmYbwSWIcqa4F5gMU6Yj7Se3yXMw0NLIzlT0VPK6choyWRnSbRUfWHOkuirZHTl9GVyvQmve3yM25j3peSSODWopWxftVBDiMBUgROAe4yQ/MPJImWezeYN2KBCheJjqKFKH8xgb/syCaN/PwSgH+2SNy83kz1il+2qgchf5mCETJOGqhkFkzBcJDlEQMAhzgID6nJmBjJacOgqpd90VV1kwIW/nuTOP7vkuZhoaWRnKnoqeV05DRksjOk2io+sOdJdFWyOnL6MrlehNe9vkZtzHvS8kKDetKZ8YvJ1VRApHJDAHjGpzeYDXAJR5AMAeYRiQPZNN2CgpuGbxEU1CGD2DyhzCHEPm8gUTHOIFKUoXiIjyAAeeJIrLRZkFSmpS6T4KwqGC77WqQeMgAAjwCjx3jwuK4L8qRLzKQThQzyfS9mmJ1Zc5HjUXKQvGZE43mG4PumEb+IeLzeplNvJ1N3pwKRBuQRAgX8Z1DchCByiYwgAQsi8qKaqA/nz5MPuquBLcCZB5fFph90vP94fP5LmYaGlkZyp6KnldOQ0ZLIzpNoqPrDnSXRVsjpy+jK5XoTXvb5Gbcx70vJ2eyWoSphcmo8bAKqYf4FQuOX4CEWVnT4Q38FObvAKHuDxkWYL4w83kWYL4w83kWYL4w83kWYL4w83kWYL4w83kWYL4w83kWSSJnMURvTerpmdLkHnKdYTCUfaW7yAAIDxCAxY/JDv1xEyjpkU7NQ485hQMXhD7RvizBfGHm8izBfGHm8izBfGHm8izBfGHm8izBfGHm8izBfGHm8izBfGHm8izBfGHm8izBfGHm8izBfGHm8izBfGHm8izBfGHm8izBfGHm8izBfGHm8izBfGHm8izBfGHm8izBfGHm8izBfGHm8izBfGHm8izBfGHm8izBfGHm8izBfGHm8izBfGHm8izBfGHm8izBfGHm8izBfGHm8izBfGHm8izBfGHm8izBfGHm8izBfGHm8izBfGHm8izBfGHm8izBfGHm8izBfGHm8izBfGHm8izBfGHm8izBfGHm8izBfGHm8izBfGHm8izBfGHm8izBfGHm8izBfGHm8izBfGHm8izBfGHm8izBfGHm8izBfGHm8izBfGHm8izBfGHm8izBfGHm8izBfGHm8izBfGHm8izBfGHm8izBfGHm8izBfGHm8izBfGHm8izBfGHm8izBfGHm8izBfGHm8izBfGHm8izBfGHm8izBfGHm8izBfGHm8izBfGHm8izBfGHm8izBfGHm8izBfGHm8izBfGHm8izBfGHm8izBfGHm8izBfGHm8izBfGHm8izBfGHm8izBfGHm8izBfGHm8iyfx3BG/gLTZ4Yo+8PG8cUPJqcamu4ZWDUqZlP2zB944/tCPk+ZhoaWRnKnoqeV05DRksjOk2io+sOdJdFWyOnL6MrlehNe9vkZtzHvS9c+ZhoaWRnKnoqeV05DRksjOk2io+sOdJdFWyOnL6MrlehNe9vkZtzHvS9c+ZhoaWRnKnoqeV05DRksjOk2io+sOdJdFWyOnL6MrlehNe9vkZtzHvS9c+ZhoaWRnKnoqeV05DRksjOk2io+sOdJdFWyOnL6MrlehNe9vkZtzHvS8naCybTMC8IJW0KZ08u816SYCJP3roa1qcoDcBglJAAfbxq3wwrbCU97DCtsJT3sMK2wlPewwrbCU97DCtsJT3sMK2wlPexXikgfuDARJGfNTMynMPIAKjenf7zBByqJqFAxDlG8pijxgICHKGW5RbN0CCoqsscCETKHGJjGHiAA5xitXlRukDCRT8hMTOUimDlDxoiVM37phhhW2Ep72GFbYSnvYYVthKe9hhW2Ep72GFbYSnvYYVthKe9hhW2Ep72GFbYSnvYYVthKe9hhW2Ep72GFbYSnvYYVthKe9hhW2Ep72GFbYSnvYYVthKe9hhW2Ep72GFbYSnvYYVthKe9hhW2Ep72GFbYSnvYYVthKe9hhW2Ep72GFbYSnvYYVthKe9hhW2Ep72GFbYSnvYYVthKe9hhW2Ep72GFbYSnvYYVthKe9hhW2Ep72GFbYSnvYYVthKe9hhW2Ep72GFbYSnvYYVthKe9hhW2Ep72GFbYSnvYYVthKe9hhW2Ep72GFbYSnvYYVthKe9hhW2Ep72GFbYSnvYYVthKe9hhW2Ep72GFbYSnvYYVthKe9hhW2Ep72GFbYSnvYYVthKe9hhW2Ep72GFbYSnvYYVthKe9hhW2Ep72GFbYSnvYYVthKe9hhW2Ep72GFbYSnvYYVthKe9hhW2Ep72GFbYSnvYYVthKe9hhW2Ep72GFbYSnvYYVthKe9hhW2Ep72GFbYSnvYYVthKe9hhW2Ep72GFbYSnvYYVthKe9hhW2Ep72GFbYSnvYQrREhhuFQ0oIIF9ogCoj8giv2E0dpk4asvU4SDxIOcUVAA93tABD2+T5mGhpZGcqeip5XTkNGSyM6TaKj6w50l0VbI6cvoyuV6E172+Rm3Me9LyToqVbVaRQGzi4BGXMy/dO4APTER4JL/Pwh/Rh84evXahlnDhwoKiipxG8TGMPGIiPnHyM3Wf09PD/ZqfcuVBMeXOx/CgBh4/FKcgB+ia67iEcucqtaFpxyZm5+zKCX8ru0xuUOoIfiSKYBKUvINwmG+8LvUycO5VNZeqVdq8aKimqkcB4hAwf/AIMeJTrCmlCMZ2mmAFKuIlvSclL5gUABvDkAxTXcV3kuZhoaWRnKnoqeV05DRksjOk2io+sOdJdFWyOnL6MrlehNe9vkZtzHvS8kY/iZNLpeyakMPEVMUAVG73nUMPklTJu5c8QdIHKNwlUTOBiiHxAILwTuG6apiiF1wmKAiH88kRB1LZE/doiHmUTbnMX+YBBxOoqYTnMI3iYwjeIj8fU5Q32Oa0ysdcl/EJkVkhIb3hwjB+8PkuZhoaWRnKnoqeV05DRksjOk2io+sOdJdFWyOnL6MrlehNe9vkZtzHvS8kzOpKKiZJyt+sUt4IvUAHgcLm4aV13tTHyTZRRoZ6m9mqpS3lbsUTAdY5h814BwQ5zGAIKBSlAClAPMAZJOG1mDZVquXnTUKJTB8hGGyiTmSvVEkjmKIAu3Eb0Vi85TkEogPt9TmZ0WjxAJDJzHLd44AOB3Chf8ICVMl/OBubyXMw0NLIzlT0VPK6choyWRnSbRUfWHOkuirZHTl9GVyvQmve3yM25j3peSkyU0ks2SFJdBTiEB5SnIblKco3CUwcYCELoVtIDmMdFudYjeYoF8xTlOIEUu5OEUQEfRCLAqwExeIeCx4QfAQG4YsBrLDx1xYDWWHjriwGssPHXFgNZYeOuLAayw8dcWA1lh464oolHy8xgBZ7PHBE/Fl84giQTKGH2XB7wgTTOfTIpRm87cEAqzowchCgH92kA33EAR5xERy3P5Cq+WJCnLp2klw7ycviVycXjE7+MOO8oiIgPKA2cHqZoUwgm9kbgjgihefgCJVC+4SxYDWWHjriwGssPHXFgNZYeOuLAayw8dcWA1lh464sBrLDx1xYDWWHjriwGssPHXFgNZYeOuLAayw8dcWA1lh464sBrLDx1xYDWWHjriwGssPHXFgNZYeOuLAayw8dcWA1lh464sBrLDx1xYDWWHjriwGssPHXFgNZYeOuLAayw8dcWA1lh464sBrLDx1xYDWWHjriwGssPHXFgNZYeOuLAayw8dcWA1lh464sBrLDx1xYDWWHjriwGssPHXFgNZYeOuLAayw8dcWA1lh464sBrLDx1xYDWWHjriwGssPHXFgNZYeOuLAayw8dcWA1lh464sBrLDx1xYDWWHjriwGssPHXFgNZYeOuLAayw8dcWA1lh464sBrLDx1xYDWWHjriwGssPHXFgNZYeOuLAayw8dcWA1lh464sBrLDx1xYDWWHjriwGssPHXFgNZYeOuLAayw8dcWA1lh464sBrLDx1xYDWWHjriwGssPHXFgNZYeOuLAayw8dcWA1lh464sBrLDx1xYDWWHjriwGssPHXFgNZYeOuLAayw8dcWA1lh464sBrLDx1xYDWWHjriwGssPHXFgVXAYw3XqMwTKHvMYQAIeIU1IkjlUUlLNwVd+6AOPgGOS8iJR5BG8xuYA5YlLeWSeUtytWbRAvBIkmUOIA7xEeMRERHj8lzMNDSyM5U9FTyunIaMlkZ0m0VH1hzpLoq2R05fRlcr0Jr3t8jNuY96XrnzMNDSyM5U9FTyunIaMlkZ0m0VH1hzpLoq2R05fRlcr0Jr3t8jNuY96XrnzMNDSyM5U9FTyunIaMlkZ0m0VH1hzpLoq2R05fRlcr0Jr3t8jNuY96XrnzMNDSyM5U9FTyunIaMlkZ0m0VH1hzpLoq2R05fRlcr0Jr3t8jNuY96XrnzMNDSyM5U9FTyunIaMlkZ0m0VH1hzpLoq2R05fRlcr0Jr3t8jNuY96Xkpm2l0slyJnDt25UAiSKZQvMYxh4gAAijGr9sgYUwnk7A4EWEP0km5RKbg8wnMAj6IRO6YTKI3gQsjTEA+ZhGKgpvAktcVBTeBJa4qCm8CS1xUFN4ElrioKbwJLXFQU3gSWuKIkVRSwxgBZSXEMydEL5xLeJkzD7BAPeETsHjUTgk6bKhwHLJa68Ulk/0Tcw8YCHGAjlzM/jnXCJL5W1uO7fKAHGCZBELihxXnG4oX8t4gA0lTdMy4DCCIOkjPnIl8wmMIlJf7AL84qCm8CS1xUFN4ElrioKbwJLXFQU3gSWuKgpvAktcVBTeBJa4qCm8CS1xUFN4ElrioKbwJLXFQU3gSWuKgpvAktcVBTeBJa4qCm8CS1xUFN4ElrioKbwJLXFQU3gSWuKgpvAktcVBTeBJa4qCm8CS1xUFN4ElrioKbwJLXFQU3gSWuKgpvAktcVBTeBJa4qCm8CS1xUFN4ElrioKbwJLXFQU3gSWuKgpvAktcVBTeBJa4qCm8CS1xUFN4ElrioKbwJLXFQU3gSWuKgpvAktcVBTeBJa4qCm8CS1xUFN4ElrioKbwJLXFQU3gSWuKgpvAktcVBTeBJa4qCm8CS1xUFN4ElrioKbwJLXFQU3gSWuKgpvAktcVBTeBJa4qCm8CS1xUFN4ElrioKbwJLXFQU3gSWuKgpvAktcVBTeBJa4qCm8CS1xUFN4ElrioKbwJLXFQU3gSWuKgpvAktcVBTeBJa4qCm8CS1xUFN4ElrioKbwJLXFQU3gSWuKgpvAktcVBTeBJa4qCm8CS1xUFN4ElrioKbwJLXFQU3gSWuKgpvAktcVBTeBJa4qCm8CS1xUFN4Elrib0uuQo8aZ5IQAN8SmAf5xS7amlHRypJz2WmOdmUw8QeOSNedML/ANIBMAecADjhyk4bOEyqorJHAxFCGC8pimDiEBAQEBDyXMw0NLIzlT0VPK6choyWRnSbRUfWHOkuirZHTl9GVyvQmve3yM25j3peSfHQZA2JOZ8CZrhXMYwg3RN/hACicQ84mJzeSfKEp+fOUpTPW3CHxajdU4FBQQ5OEmYQOA8wCHnGBvAclUE0GyRllTjyFIUBERH3AAw6UMyO4O1k7YTDwGrAhhBIhQ8wiH3jD5zGEfU5+o6WpNMkwkqip+EYGJzcE6N4/opqCUS8wKXcgB5LmYaGlkZyp6KnldOQ0ZLIzpNoqPrDnSXRVsjpy+jK5XoTXvb5Gbcx70vJcISOmMtWbCPIKX2YheL3GKYPeA+SKYzhdykmiBeUTmMAFu9t4hAiKybZIigj5zAUAH+eSBhduKemKKAF5RUM2OBbvbeIQFwhxCA+pxDC2a0s6+0mDkDhLogQB+Ify8lzMNDSyM5U9FTyunIaMlkZ0m0VH1hzpLoq2R05fRlcr0Jr3t8jNuY96XkpWq+ntKNjtpqzQJwlXUuvE4HIUOMxkjCYbuUSmHmgLhDyMqUTomjnRXhl1SCBH75MQMkgS/8AEBTXHOIcQAUA5RyigJRC4QEOIQiWKnoep3Sr2TPCEEU0DHMJjtDjyFOQRG4B5S3CHnu9TEjqqqmAhCEKJjGMI3AAAHGIiPmiXi0q2tBSWXanC5RiyIAiiibmOImMcwea8ocoeS5mGhpZGcqeip5XTkNGSyM6TaKj6w50l0VbI6cvoyuV6E172+Rm3Me9LybN7Rk+dmFRd1JOAVFc48p1G5gEgiI8ol4Ij54t8eAnf93hyEgmu9ty0W+OcBLvot8c4CXfRb45wEu+i3xzgJd9FvjnAS76LfHOAl30VdPay8SYDgyEpWLU4h5jgQROYPZwwiTM5TK2CYJNmbREqSSRA8xShxBl06xncnfl4Dhm8SA6ZuYfYIeYwXCHmGLQKgpZNUwmBkskR+iS/wAxRMJTgHvMaLfHOAl30W+OcBLvot8c4CXfRb45wEu+i3xzgJd9FvjnAS76LfHOAl30W+OcBLvot8c4CXfRb45wEu+i3xzgJd9FvjnAS76LfHOAl30W+OcBLvot8c4CXfRb45wEu+i3xzgJd9FvjnAS76LfHOAl30W+OcBLvot8c4CXfRb45wEu+i3xzgJd9FvjnAS76LfHOAl30W+OcBLvot8c4CXfRb45wEu+i3xzgJd9FvjnAS76LfHOAl30W+OcBLvot8c4CXfRb45wEu+i3xzgJd9FvjnAS76LfHOAl30W+OcBLvot8c4CXfRb45wEu+i3xzgJd9FvjnAS76LfHOAl30W+OcBLvot8c4CXfRb45wEu+i3xzgJd9FvjnAS76LfHOAl30W+OcBLvot8c4CXfRb45wEu+i3xzgJd9FvjnAS76LfHOAl30W+OcBLvot8c4CXfRb45wEu+i3xzgJd9FvjnAS76LfHOAl30W+OcBLvot8c4CXfRb45wEu+i3xzgJd9FvjnAS76LfHOAl30W+OcBLvot8c4CXfRb45wEu+i3xzgJd9FvjnAS76LfHOAl30W+OcBLvot7fGRv+8CUiIBhD2CKwhEpdVLUjb7yM1nZiqmQN6SKQABEx/wAVwmDn8nzMNDSyM5U9FTyunIaMlkZ0m0VH1hzpLoq2R05fRlcr0Jr3t8jNuY96XrnzMNDSyM5U9FTyunIaMlkZ0m0VH1hzpLoq2R05fRlcr0Jr3t8jNuY96XrnzMNDSyM5U9FTyunIaMlkZ0m0VH1hzpLoq2R05fRlcr0Jr3t8jNuY96XrnzMNDSyM5U9FTyunIaMlkZ0m0VH1hzpLoq2R05fRlcr0Jr3t8jNuY96XkxApQC8REbgCKjlQCA3CAvE+L+cVNKu2p64qaVdtT1xU0q7anrippV21PXFTSrtqeuKmlXbE9cO0XCY8h0VAOX5h5F63akEbgMsqUgfMRippV21PXFTSrtqeuKmlXbU9cVNKu2p64qaVdtT1xU0q7anrippV21PXFTSrtqeuKmlXbU9cVNKu2p64qaVdtT1xU0q7anrippV21PXFTSrtqeuKmlXbU9cVNKu2p64qaVdtT1xU0q7anrippV21PXFTSrtqeuKmlXbU9cVNKu2p64qaVdtT1xU0q7anrippV21PXFTSrtqeuKmlXbU9cVNKu2p64qaVdtT1xU0q7anrippV21PXFTSrtqeuKmlXbU9cVNKu2p64qaVdtT1xU0q7anrippV21PXFTSrtqeuKmlXbU9cVNKu2p64qaVdtT1xU0q7anrippV21PXFTSrtqeuKmlXbU9cVNKu2p64qaVdtT1xU0q7anrippV21PXFTSrtqeuKmlXbU9cVNKu2p64qaVdtT1xU0q7anrippV21PXFTSrtqeuKmlXbU9cVNKu2p64qaVdtT1xU0q7anrippV21PXFTSrtqeuKmlXbU9cVNKu2p64qaVdtT1xU0q7anrippV21PXFTSrtqeuKmlXbU9cVNKu2p64qaVdtT1xU0q7anrippV21PXFTSrtqeuKilhzmG4CleJiIj7r4EBAeMBDyfMw0NLIzlT0VPK6choyWRnSbRUfWHOkuirZHTl9GVyvQmve3yM25j3peSEXK5jfZZXLUzgCr90ICJUy8xQuvMbzAHPcA1q9Zyo5xFvJJasduyQJ5i8AogKg3fpHERGF1BEeX74wup9Qwup9Qwup9Qwup9Qwup9Qwup9QxXc6kTtEwGAWjs5SH9h0xHgHD2GAQhNtL6/lyIrFMgHAQmyBfxKJl/RULymIHFdxhxXgGUZq4rQyQGmUyVKCiUoKcLykKQeI64gIDcPEUBC8BEbgrScz58sYTGVfPDq3CPogI3FD2AABC6n1DC6n1DC6n1DC6n1DC6n1DC6n1DC6n1DC6n1DC6n1DC6n1DC6n1DC6n1DC6n1DC6n1DC6n1DC6n1DC6n1DC6n1DC6n1DC6n1DC6n1DC6n1DC6n1DC6n1DC6n1DC6n1DC6n1DC6n1DC6n1DC6n1DC6n1DC6n1DC6n1DC6n1DC6n1DC6n1DC6n1DC6n1DC6n1DC6n1DC6n1DC6n1DC6n1DC6n1DC6n1DC6n1DC6n1DC6n1DC6n1DC6n1DC6n1DC6n1DC6n1DC6n1DC6n1DC6n1DC6n1DC6n1DC6n1DC6n1DC6n1DC6n1DC6n1DC6n1DC6n1DC6n1DC6n1DC6n1DC6n1DC6n1DC6n1DC6n1DC6n1DC6n1DDhUohxgIHEBCKpeVBTZDgDqQzVwZZA6d/GCRjXmRNdyCXi5wEIdidjMCcFVBQQ8a0cF/vEFADkMUfmFwhxCHkuZhoaWRnKnoqeV05DRksjOk2io+sOdJdFWyOnL6MrlehNe9vkZtzHvS8k5N+TKOlKCaaID937S4KCqh7ufgikX93yTgyLmRzRu6ESjdw0gOAKEH2GIJiiHMMDeRdMqhR9gheHfkl4Scnlzl+cOcEkzHEP+mHR3Mynb1Z+6VON4mUUOJh77g9gepzg5pbN5WWcoJCPEm5QOUhhDm4RFAv8A2A8lzMNDSyM5U9FTyunIaMlkZ0m0VH1hzpLoq2R05fRlcr0Jr3t8jNuY96Xkm5wYVZKWjxsrd90x0ieIVLfzgJCjdzGDyTcyz2ezRsxSIULxvUUABH3AF4j7AGPwNkiJF9xQAA7sk3BGcyp2wA1/IKqRiAP/AFQ2O3fSxyqzcpHC4xFUzCUxRD2CA+pyJyy6RyP8nird90zhwqUQJfzgRIw/LyXMw0NLIzlT0VPK6choyWRnSbRUfWHOkuirZHTl9GVyvQmve3yM25j3peSWTl9Ryo5nUimZi3gguIXGTPdxikcAADXcYXAIcYXDST2Tu0jiVNVRMRbuSgPEdFUPuKFHnAffcMDAwMDAwMDEoeTSYOTgRFqzQMsqoYeQClKAiMMU0arUQMnJ5SYQOMsTOFxlVRDi8cYoiUAD8ACPnHiypR9vmLwPG1BIkAuVXUAONy3D9I4gH3ycoj94LxEQhi4ZO25hIq3cJGTUTMHKBimABAffAwMDAwMDAwMDAwMDAwMDAwMDAwMDAwMDAwMDAwMDAwMDAwMDAwMDAwMDAwMDAwMDAwMDAwMDAwMDAwMDAwMDAwMDAwMDAwMDAwMDFLOnaQqFK6mSpDEZMyCPGdVUQ4IXB+iF5h8wDBgcueELqazExOCd88MAcNQQ8xQuApS+YoB57/JczDQ0sjOVPRU8rpyGjJZGdJtFR9Yc6S6KtkdOX0ZXK9Ca97fIzbmPel5ORS6bsj/ibvmpF0h/dOAhFhNDCYw3iP5Eb7MWEUNgiGzFhFDYIhsxYRQ2CIbMWEUNgiGzFhFDYIhsxYRQ2CIbMUDT8g4QXGNLpck3MYPaYhQEfj5Gzemp6qHIrMJYiuoH7xiiP84sIobBENmLCKGwRDZiwihsEQ2YsIobBENmLCKGwRDZiwihsEQ2YsIobBENmLCKGwRDZiwihsEQ2YsIobBENmLCKGwRDZiwihsEQ2YsIobBENmLCKGwRDZiwihsEQ2YsIobBENmLCKGwRDZiwihsEQ2YsIobBENmLCKGwRDZiwihsEQ2YsIobBENmLCKGwRDZiwihsEQ2YsIobBENmLCKGwRDZiwihsEQ2YsIobBENmLCKGwRDZiwihsEQ2YsIobBENmLCKGwRDZiwihsEQ2YsIobBENmLCKGwRDZiwihsEQ2YsIobBENmLCKGwRDZiwihsEQ2YsIobBENmLCKGwRDZiwihsEQ2YsIobBENmLCKGwRDZiwihsEQ2YsIobBENmLCKGwRDZiwihsEQ2YsIobBENmLCKGwRDZiwihsEQ2YsIobBENmLCKGwRDZiwihsEQ2YsIobBENmLCKGwRDZiwihsEQ2YsIobBENmLCKGwRDZiwihsEQ2YsIobBENmLCKGwRDZiwihsEQ2YsIobBENmLCKGwRDZiwihsEQ2YsIobBENmLCKGwRDZiwihsEQ2YsIobBENmLCKGwRDZiwihsEQ2YsIobBENmLCKGwRDZiwqhinIPCKb8htxuH6YlbSXM0guTbtECopED2FKAAHk+ZhoaWRnKnoqeV05DRksjOk2io+sOdJdFWyOnL6MrlehNe9vkZtzHvS9c+ZhoaWRnKnoqeV05DRksjOk2io+sOdJdFWyOnL6MrlehNe9vkZtzHvS9c+ZhoaWRnKnoqeV05DRksjOk2io+sOdJdFWyOnL6MrlehNe9vkZtzHvS9c+ZhoaWRnKnoqeV05DRksjOk2io+sOdJdFWyOnL6MrlehNe9vkZtzHvS8nOHdVz9oYSLsJEQqpUDhylUWMYEymDzgAiIecIsJnRk7/uiecogI+8ATGLB5vjaW6iweb42luosHm+NpbqLB5vjaW6iweb42luosHm+NpbqJFP6LMuYCFduikdNCiPpnS+8UPbwLomzSZy18kCzZ20WKqksQeQxTFEQEMuoGUmlLAvjHLx4sCaSYe0R84+YA4xHkij6jq0qQiX7WXgMm5xDzkFS84h7RIEWDzfG0t1Fg83xtLdRYPN8bS3UWDzfG0t1Fg83xtLdRYPN8bS3UWDzfG0t1Fg83xtLdRYPN8bS3UWDzfG0t1Fg83xtLdRYPN8bS3UWDzfG0t1Fg83xtLdRYPN8bS3UWDzfG0t1Fg83xtLdRYPN8bS3UWDzfG0t1Fg83xtLdRYPN8bS3UWDzfG0t1Fg83xtLdRYPN8bS3UWDzfG0t1Fg83xtLdRYPN8bS3UWDzfG0t1Fg83xtLdRYPN8bS3UWDzfG0t1Fg83xtLdRYPN8bS3UWDzfG0t1Fg83xtLdRYPN8bS3UWDzfG0t1Fg83xtLdRYPN8bS3UWDzfG0t1Fg83xtLdRYPN8bS3UWDzfG0t1Fg83xtLdRYPN8bS3UWDzfG0t1Fg83xtLdRYPN8bS3UWDzfG0t1Fg83xtLdRYPN8bS3UWDzfG0t1Fg83xtLdRYPN8bS3UWDzfG0t1Fg83xtLdRYPN8bS3UWDzfG0t1Fg83xtLdRYPN8bS3UWDzfG0t1Fg83xtLdRYPN8bS3UWDzfG0t1Fg83xtLdRYPN8bS3UWDzfG0t1Fg83xtLdRYPN8bS3UWDzfG0t1Fg83xtLdRYPN8bS3UWDzfG0t1Fg83xtLdRYZO00hH7xk5wiYwe4BTC/wCcT9eR1EvxJyedEKgssbmSOAiRUfYBuF7PJ8zDQ0sjOVPRU8rpyGjJZGdJtFR9Yc6S6KtkdOX0ZXK9Ca97fIzbmPel5KaKMaiq1udeYPUD8FVnLrxJwSCHGU6pgMW8OMClNdyhAiIiN4iI3iI+RmyitFVe6K0SSWOIllz9QbklU7/wlOa4hw5PvAblDKEAAOMRHzRNFSULS7tRnKmiZxBN0oQRKd2cP0jGEB4N/IW67jEb/UxdRBdA4KJKpmEpyHAbwMUQ4wEB84Q9+1VhRhkm7tycfvvmhwHxLg3Of7piGHziAD+l5LmYaGlkZyp6KnldOQ0ZLIzpNoqPrDnSXRVsjpy+jK5XoTXvb5Gbcx70vJCYCMmEtbtijyAl9mKfi95jmH4+SMYrlu5SVRMXlA5TgJRD23gEFEFlW6Z1AHzGEoCP88kTA7a0/MVkBLygoVucSiHtvAIEREeMRHzj6nHMDZ5Szn7SUOQeAuiJBH3CI/PyXMw0NLIzlT0VPK6choyWRnSbRUfWHOkuirZHTl9GVyvQmve3yM25j3peSYnXl67ZOTT0yZb/ALOqQRFuqbmKYphJf5hKUPOHkmSh5FJ3KU2nrjgjwEmqRwNwBHk4ShgAgB7RHzDAAABxAAZKQKN3aR0FSDyGIYBAwfEBGGqhWzdydeVOTFECu2JzCKKhR8/3fujzGKIepzBRsep0ySySEULcY7Ih+EqsF/6J1AKAD5wTEeQQ8lzMNDSyM5U9FTyunIaMlkZ0m0VH1hzpLoq2R05fRlcr0Jr3t8jNuY96XkpU3mUqmSJm7to5TA6ayZguEpgGKwZkZLmFQJHPDnKKF/6KTgoG4ReYDgAh6QxRskOADdwiz1vcPuvEBiiZPjrbaiiZPjrbaiiZPjrbaiiZPjrbaiiZPjrbaiiZPjrbaip5BSssAwCsDVYXzoxfOBClAEwH2ib4DEoFBE4gq+fLiB3T5YAu8Yqe7jHmALilDiAAy2CiL1nwjSybNLiu2Rx5eCI8RiDxXkNxD7B44ndOVXLuEPiVDOhZOOD5uGmoAlAfccYomT4622oomT4622oomT4622oomT4622oomT4622oomT4622oomT4622oomT4622oomT4622oomT4622oomT4622oomT4622oomT4622oomT4622oomT4622oomT4622oomT4622oomT4622oomT4622oomT4622oomT4622oomT4622oomT4622oomT4622oomT4622oomT4622oomT4622oomT4622oomT4622oomT4622oomT4622oomT4622oomT4622oomT4622oomT4622oomT4622oomT4622oomT4622oomT4622oomT4622oomT4622oomT4622oomT4622oomT4622oomT4622oomT4622oomT4622oomT4622oomT4622oomT4622oomT4622oomT4622oomT4622oomT4622oomT4622oomT4622oomT4622oomT4622oomT4622oomT4622oomT4622oomT4622oomT4622oomT4622oomT4622oomT4622oomT4622oomT4622oomT4622oomT4622oomT4622oomT4622oomT4622oomT4622opCRoFMNwqKTxDgl9o8ERH5BFUs5yVsYqpZBKeGDdQwcYAuuYAMYvOUpQv9KGiLVo1SKiggiQCJpJlC4pSlDiAAAAAADyXMw0NLIzlT0VPK6choyWRnSbRUfWHOkuirZHTl9GVyvQmve3yM25j3peufMw0NLIzlT0VPK6choyWRnSbRUfWHOkuirZHTl9GVyvQmve3yM25j3peufMw0NLIzlT0VPK6choyWRnSbRUfWHOkuirZHTl9GVyvQmve3yM25j3peufMw0NLIzlT0VPK6choyWRnSbRUfWHOkuirZHTl9GVyvQmve3yM25j3peufMw0NLIzlT0VPK6choyWRnSbRUfWHOkuirZHTl9GVyvQmve3yM25j3peSnSEqkspRFZy5WHiAPMUocpjCNwAUOMREACJa1pORkOYiL923I5mDgvmOIHvTSv5eCAGEOeLdJ+AmG+4pUQD4ABOKLdqh+SOxFu1Q/JHYi3aofkjsRbtUPyR2It2qH5I7EW7VD8kdiKkZVnLQMHjmk2aJlOYvn4KyQFOUfaPCD2Qooxm8v4JJtJXJwFwzOPIYBD8aY3DwThy3XCADxZaZpzVEyTMeWSNuqBTnKHF41U3H4tIB4r7hER4gAeO6tW1KMjGEUmcmZJlAhfMAqKAY5h9t4e6Ldqh+SOxFu1Q/JHYi3aofkjsRbtUPyR2It2qH5I7EW7VD8kdiLdqh+SOxFu1Q/JHYi3aofkjsRbtUPyR2It2qH5I7EW7VD8kdiLdqh+SOxFu1Q/JHYi3aofkjsRbtUPyR2It2qH5I7EW7VD8kdiLdqh+SOxFu1Q/JHYi3aofkjsRbtUPyR2It2qH5I7EW7VD8kdiLdqh+SOxFu1Q/JHYi3aofkjsRbtUPyR2It2qH5I7EW7VD8kdiLdqh+SOxFu1Q/JHYi3aofkjsRbtUPyR2It2qH5I7EW7VD8kdiLdqh+SOxFu1Q/JHYi3aofkjsRbtUPyR2It2qH5I7EW7VD8kdiLdqh+SOxFu1Q/JHYi3aofkjsRbtUPyR2It2qH5I7EW7VD8kdiLdqh+SOxFu1Q/JHYi3aofkjsRbtUPyR2It2qH5I7EW7VD8kdiLdqh+SOxFu1Q/JHYi3aofkjsRbtUPyR2It2qH5I7EW7VD8kdiLdqh+SOxFu1Q/JHYi3aofkjsRbtUPyR2It2qH5I7EW7VD8kdiLdqh+SOxFu1Q/JHYi3aofkjsRbtUPyR2It2qH5I7EW7VD8kdiLdqh+SOxFu1Q/JHYi3OemEg3gByIGKPvAU7hiVNZzJ1jlTPO5a3BB21v4uGokX7ipQ8/BApvfyRNW8xlU0QK6Zu25wOmskYLwMA//AJdyeS5mGhpZGcqeip5XTkNGSyM6TaKj6w50l0VbI6cvoyuV6E172+Rm3Me9LyTw6cpkTNObTJIprgXeLX+KAwecCJheHtUHyTtRNgd4mwm6JTXFcMVjAVUpg8/BvA4cwlCBAxTAAgPOA5J+A2YN1HSxvRTIUTGH5AMOTqLTd4c7dMxhErdqA3Iol5ilIBQ994+f1OenWby1EJ5JgOa8UUzHAjhIv+HhGTOAeYTG5/JczDQ0sjOVPRU8rpyGjJZGdJtFR9Yc6S6KtkdOX0ZXK9Ca97fIzbmPel5Lh+Jm0ulzxqYQ4jJ+IKmN3uMmYPJJmUdP3iLVAhQvEyhzgUoB8RCDcJRBumkYw+cSlABH+WSAi6mMhftUADlFQ7c5Sh8xCCCQ6YiQxRDjAQ4hD1OTN9kllMLlcHu4gMqskBC+8eCYf3R8lzMNDSyM5U9FTyunIaMlkZ0m0VH1hzpLoq2R05fRlcr0Jr3t8jNuY96XkmIOK0pFNQE2peI8xZG+8dAvOoU33iB57zByiENVmzlucySyKxBIdM4DcJTFHjAQHzD5GSrNKWp9X7TJEnKYlNMnpfwKlKPKkmP3uFyGMAAF9w5coVc0FUro7w6iCYiWVO1DCKiKgB+EhjCIkNycfB5Q4/UyVuplMn6pUGrRqkKiqyhhuApShxiMJp/9sqpOm9nPAEDA2KUB8U1AwcvAAxhMIcQmMbzAHkuZhoaWRnKnoqeV05DRksjOk2io+sOdJdFWyOnL6MrlehNe9vkZtzHvS8nQiJZwcLjTaWqC0dm/bOTiU/fA0VXXaRB5CA+biAfEUL4rOvO2ttxFZ1521tuIrOvO2ttxFZ1521tuIrOvO2ttxFZV521tuIpJ7U71uYDpGn7v7QkUwcg+JKBUzfvFGEE0EESARNNMoFIQoBcAAAcQAAebLYoPWbpMUl27hMFE1SDylMU14CA8wxTs3pZdYwmOSRv/ABSAiPKIJKFOUvuKAB7IrOvO2ttxFZ1521tuIrOvO2ttxFZ1521tuIrOvO2ttxFZ1521tuIrOvO2ttxFZ1521tuIrOvO2ttxFZ1521tuIrOvO2ttxFZ1521tuIrOvO2ttxFZ1521tuIrOvO2ttxFZ1521tuIrOvO2ttxFZ1521tuIrOvO2ttxFZ1521tuIrOvO2ttxFZ1521tuIrOvO2ttxFZ1521tuIrOvO2ttxFZ1521tuIrOvO2ttxFZ1521tuIrOvO2ttxFZ1521tuIrOvO2ttxFZ1521tuIrOvO2ttxFZ1521tuIrOvO2ttxFZ1521tuIrOvO2ttxFZ1521tuIrOvO2ttxFZ1521tuIrOvO2ttxFZ1521tuIrOvO2ttxFZ1521tuIrOvO2ttxFZ1521tuIrOvO2ttxFZ1521tuIrOvO2ttxFZ1521tuIrOvO2ttxFZ1521tuIrOvO2ttxFZ1521tuIrOvO2ttxFZ1521tuIrOvO2ttxFZ1521tuIrOvO2ttxFZ1521tuIrOvO2ttxFZ1521tuIrOvO2ttxFZ1521tuIrOvO2ttxFZ1521tuIrOvO2ttxFZ1521tuIrOvO2ttxFZ1521tuIrOvO2ttxFZ1521tuIrOvO2ttxFZ1521tuIqiunCYDxpmftygPxKiAxQjVpMTk4Ck0dGM5enL5w8apeJQHzgXgh7PJ8zDQ0sjOVPRU8rpyGjJZGdJtFR9Yc6S6KtkdOX0ZXK9Ca97fIzbmPel658zDQ0sjOVPRU8rpyGjJZGdJtFR9Yc6S6KtkdOX0ZXK9Ca97fIzbmPel658zDQ0sjOVPRU8rpyGjJZGdJtFR9Yc6S6KtkdOX0ZXK9Ca97fIzbmPel658zDQ0sjOVPRU8rpyGjJZGdJtFR9Yc6S6KtkdOX0ZXK9Ca97fIzbmPel658zDQ0sjOVPRU8rpyGjJZGdJtFR9Yc6S6KtkdOX0ZXK9Ca97fIzbmPel658zDQ0sjOVPRU8rpyGjJZGdJtFR9Yc6S6KtkdOX0ZXK9Ca97fIzbmPel658zDQ0sjOVPRU8rpyGjJZGdJtFR9Yc6S6KtkdOX0ZXK9Ca97fIzbmPel658zDQ0sjOVPRU8rpyGjJZGdJtFR9Yc6S6KtkdOX0ZXK9Ca97fIzbmPel658zDQ0sjOVPRU8rpyGjJZGdJtFR9Yc6S6KtkdOX0ZXK9Ca97fIzbmPel658zDQ0sjOVPRU8rpyGjJZGdJtFR9Yc6S6KtkdOX0ZXK9Ca97fIzbmPel658zDQ0sjOVPRU8rpyGjJZGdJtFR9Yc6S6KtkdOX0ZXK9Ca97fIql/T83BA7b7YyU4Cnij3cIt/MNwfKLfau7YGqLfau7YGqLfau7YGqLfau7YGqLfau7YGqLfau7YGqLfau7YGqLfau7YGqLfau7YGqLfau7YGqLfau7YGqLfau7YGqLfau7YGqLfau7YGqLfau7YGqLfau7YGqLfau7YGqLfau7YGqLfau7YGqLfau7YGqLfau7YGqLfau7YGqLfau7YGqLfau7YGqLfau7YGqLfau7YGqLfau7YGqLfau7YGqLfau7YGqLfau7YGqLfau7YGqLfau7YGqLfau7YGqLfau7YGqLfau7YGqLfau7YGqLfau7YGqLfau7YGqLfau7YGqLfau7YGqLfau7YGqLfau7YGqLfau7YGqLfau7YGqLfau7YGqLfau7YGqLfau7YGqLfau7YGqLfau7YGqLfau7YGqLfau7YGqLfau7YGqLfau7YGqLfau7YGqLfau7YGqLfau7YGqLfau7YGqLfau7YGqLfau7YGqLfau7YGqLfau7YGqLfau7YGqLfau7YGqLfau7YGqLfau7YGqLfau7YGqLfau7YGqLfau7YGqLfau7YGqLfau7YGqLfau7YGqLfau7YGqLfau7YGqLfau7YGqLfau7YGqLfau7YGqLfau7YGqLfau7YGqLfau7YGqLfau7YGqLfau7YGqLfau7YGqLfau7YGqLfau7YGqLfau7YGqLfau7YGqLfau7YGqLfau7YGqLfau7YGqLfau7YGqLfau7YGqLfau7YGqLfau7YGqLfau7YGqLfau7YGqLfau7YGqLfau7YGqLfau7YGqLfau7YGqLfau7YGqLfau7YGqLfau7YGqLfau7YGqLfau7YGqLfau7YGqLfau7YGqLfau7YGqLfau7YGqLfau7YGqLfau7YGqLfau7YGqLfau7YGqLfau7YGqLfau7YGqJ+7nU6fcD7Q9dn4SqvBKBS3j7CgAfDIzlT0VPK6choyWRnSbRUfWHOkuirZHTl9GVyvQmve39e85U9FTyunIaMlkZ0m0VH1hzpLoq2R05fRlcohjNGzuYMFTAHEVRQiRyX+8Ez/L17SMRvN6mP8AZhEPxgk3SIYQ9nCvD4DldOQ0ZLIzpNoqPrDnSXRVsjpy+jK5SxWzh0UHMteCW8Wj1O8UlPdfeU3OUxokLiVTZgcSmIoUeAsS/wC6qkbkOQwcYGDi9eZQo5XWOUXbsxR+zsEL/vLLH5ClAOQOUw8QXjBBFlImhURVMFxl1RHhKrG9pziY3xu82V05DRksjOk2io+sOdJdFWyOnL6Mrl0TLZ+3Tv8AEncJ3LICPnTVLccn7ohCtZsEzDeCCE3IYhfcKiRjfMYnVd4qhuInVd4qhuInVd4qhuInVd4qhuInVd4qhuInVd4qhuInVd4qhuInVd4qhuInVd4qhuInVd4qhuInVd4qhuInVd4qhuInVd4qhuInVd4qhuInVd4qhuInVd4qhuInVd4qhuInVd4qhuInVd4qhuInVd4qhuInVd4qhuInVd4qhuInVd4qhuInVd4qhuInVd4qhuInVd4qhuInVd4qhuInVd4qhuInVd4qhuInVd4qhuInVd4qhuInVd4qhuInVd4qhuInVd4qhuInVd4qhuInVd4qhuInVd4qhuInVd4qhuInVd4qhuInVd4qhuInVd4qhuInVd4qhuInVd4qhuInVd4qhuInVd4qhuInVd4qhuInVd4qhuInVd4qhuInVd4qhuInVd4qhuInVd4qhuInVd4qhuInVd4qhuInVd4qhuInVd4qhuInVd4qhuInVd4qhuInVd4qhuInVd4qhuInVd4qhuInVd4qhuInVd4qhuInVd4qhuInVd4qhuInVd4qhuInVd4qhuInVd4qhuInVd4qhuInVd4qhuInVd4qhuInVd4qhuInVd4qhuInVd4qhuInVd4qhuInVd4qhuInVd4qhuInVd4qhuInVd4qhuInVd4qhuInVd4qhuInVd4qhuInVd4qhuInVd4qhuInVd4qhuInVd4qhuInVd4qhuInVd4qhuInVd4qhuInVd4qhuInVd4qhuInVd4qhuInVd4qhuInVd4qhuInVd4qhuInVd4qhuInVd4qhuInVd4qhuInVd4qhuInVd4qhuInVd4qhuInVd4qhuInVd4qhuInVd4qhuInVd4qhuInVd4qhuInVd4qhuInVd4qhuInVd4qhuInVd4qhuInVd4qhuInVd4qhuInVd4qhuInVd4qhuInVd4qhuInVd4qhuInVd4qhuInVd4qhuInVd4qhuIJV81IQQHxDubgVM3sHxSZDXfGKPllPy4ogJkmaIFFQ3pKH/Ec3tMIjl9OQ0ZLIzpNoqPrDnSXRVsjpy+jK/5D9OQ0ZLIzpNoqPrDnSXRVsjpy+jK/5D9OQ0ZLIzpNoqPrCW8GlVocIeYDtlw77sg4FSUnZGgmEbgAViHSD+Zw/wAhzgdIk8UaFMA3gIokKkP8yDkFuB3Va/BHnAjZAO+/1hTE6siXZzgoAF4gVJYpTj8CHOOQqKT2VO0XrY4foqpnA5R+ZQhYp2s9YJORKUeNJW65VIeYSnAxR93+QqxCISRioskQw8azgQ4KKQc4mUEpfjCwqvZm6VeODj+kqocTmH5iOQmJFZ6u8nBgELhEqqxikH4kIQfWEpTNZ/LHMuVvC+4FUzEv+F9/whAyMwkr1Zg5TMFwlUSOJDfzDImBkqGqByCrd4cREspemuATjzInuADeiIAb0ocJLt1yFUSVTOBiKEELwMUQ4hAQ4wEP8g3iLVo1TMsuuscCJpEKF5jGMPEAAHGIjD05qDp1wKguC3lCbPAvDx13L4ooCIEAeW8TecLvCgZZ/OnqLBsmULxMoqcCF/mMFKVrIJY2lyVwXXgkmUl/xuv+PrEyEskrktzwxC/dRmaRQA4DzeMIBThziB8lQlV0emPFJpgqIGbBfx/Z1uMyf7IgJPYHLE5mlGvzAHjEJqyOokUfYsiBiiHtEC+6LfaQAo8nDfAQfkIAMW+0diJYt9o7ESxb7R2Ili32jsRLFvtHYiWLfaOxEsW+0diJYt9o7ESxb7R2Ili32jsRLFvtHYiWLfaOxEsW+0diJYt9o7ESxb7R2Ili32jsRLFvtHYiWLfaOxEsW+0diJYt9o7ESxb7R2Ili32jsRLFvtHYiWLfaOxEsW+0diJYt9o7ESxb7R2Ili32jsRLFvtHYiWLfaOxEsW+0diJYt9o7ESxb7R2Ili32jsRLFvtHYiWLfaOxEsW+0diJYt9o7ESxb7R2Ili32jsRLFvtHYiWLfaOxEsW+0diJYt9o7ESxb7R2Ili32jsRLFvtHYiWLfaOxEsW+0diJYt9o7ESxb7R2Ili32jsRLFvtHYiWLfaOxEsW+0diJYt9o7ESxb7R2Ili32jsRLFvtHYiWLfaOxEsW+0diJYt9o7ESxb7R2Ili32jsRLFvtHYiWLfaOxEsW+0diJYt9o7ESxb7R2Ili32jsRLFvtHYiWLfaOxEsW+0diJYt9o7ESxb7R2Ili32jsRLFvtHYiWLfaOxEsW+0diJYt9o7ESxb7R2Ili32jsRLFvtHYiWLfaOxEsW+0diJYt9o7ESxb7R2Ili32jsRLFvtHYiWLfaOxEsW+0diJYt9o7ESxb7R2Ili32jsRLFvtHYiWLfaOxEsW+0diJYt9o7ESxb7R2Ili32jsRLFvtHYiWLfaOxEsW+0diJYt9o7ESxb7R2Ili32jsRLFvtHYiWLfaOxEsW+0diJYt9o7ESxb7R2Ili32jsRLFvtHYiWLfaOxEsW+0diJYt9o7ESxb7R2Ili32jsRLFvtHYiWLfaOxEsW+0diJYt9o7ESxb7R2Ili32jsRLFvtHYiWLfaOxEsW+UiJS8vAegcfkUBGJpNa0flAfFoyxmZJETf4llgKAB7QA3uhdOmaQE14SOXKGuXAB4hcKjcZUf8PES/8ARyWQmklDFuZmOX7q0zVKIEAOfxZBMceYRJ6xgVMsxS4bJ1wbzM3ZONJYv7JuUPOUTB54lx2U4krkzddMQ+6a78KhB/SIYtxij5wEP8i5cd7OJ05K3QTAPulv/Eocf0SFLeYw+YAGAKoWXJcN664Nxnjs/Gqsb9o3IHmKBQ83rIk3ZWhSNEQYrmuISYohx/ZVje+/gHH8IjcPEI3Sl1LJrLVjN3bRymJFUVCjcJTFH/ImUupnNZksVu0aNkxOqsoYbgKUoQk3e2hTxEAfLluOSXIjx/ZUTe+7hnD8QhcHEAX+soJ0/XDVLgNJ4ileCwB+FJyQP7wnMP4i+YbuIaWXZFOcQaTBIBUZPCh+kkqAXD+yNxg84B/kPSy70pDgDuYKgKbJmUf0lVRC4P2QvMPmAYBOoK4dJcB3PFkrgRAfxJNiD/dk5x/EbzjdxB6z07L53K3Rblmj5uVZI/tuMHEPMIcYRVjmkHagicJY+KZ2wEeYpr/Gph8T+6LOhqVmnfc6kDgroDBz+L4lQ+iLPqklahBEDFdypdK76ihEtd9QbVEtd9QbVEtd9QbVEtd9QbVEtd9QbVEtd9QbVEtd9QbVEtd9QbVEtd9QbVEtd9QbVEtd9QbVEtd9QbVEtd9QbVEtd9QbVEtd9QbVEtd9QbVEtd9QbVEtd9QbVEtd9QbVEtd9QbVEtd9QbVEtd9QbVEtd9QbVEtd9QbVEtd9QbVEtd9QbVEtd9QbVEtd9QbVEtd9QbVEtd9QbVEtd9QbVEtd9QbVEtd9QbVEtd9QbVEtd9QbVEtd9QbVEtd9QbVEtd9QbVEtd9QbVEtd9QbVEtd9QbVEtd9QbVEtd9QbVEtd9QbVEtd9QbVEtd9QbVEtd9QbVEtd9QbVEtd9QbVEtd9QbVEtd9QbVEtd9QbVEtd9QbVEtd9QbVEtd9QbVEtd9QbVEtd9QbVEtd9QbVEtd9QbVEtd9QbVEtd9QbVEtd9QbVEtd9QbVEtd9QbVEtd9QbVEtd9QbVEtd9QbVEtd9QbVEtd9QbVEtd9QbVEtd9QbVEtd9QbVEtd9QbVEtd9QbVEtd9QbVEtd9QbVEtd9QbVEtd9QbVEtd9QbVEtd9QbVEtd9QbVEtd9QbVEtd9QbVEtd9QbVEtd9QbVEtd9QbVEtd9QbVEtd9QbVEtd9QbVEtd9QbVEtd9QbVEtd9QbVEtd9QbVEtd9QbVEtd9QbVEtd9QbVEtd9QbVEtd9QbVEtd9QbVEtd9QbVEtd9QbVEtd9QbVEtd9QbVEtd9QbVEtd9QbVEtd9QbVEtd9QbVEtd9QbVEtd9QbVEtd9QbVEtd9QbVEtd9QbVEtd9QbVEtd9QbVEtd9QbVEtd9QbVEtd9QbVEtd9QbVEtd9QbVEtd9QbVEtd9QbVEtd9QbVEtd9QbVEtd9QbVEtd9QbVEtd9QbVEtd9QbVEtd9QbVFn1STRQ4gBStJUurf9JRizoaaZqXXup+4K1Aoc/i+NUfoirHNXu0xA4yxiUzRgA8xjX+NUD4k90U7L5JK2pbkWjFuVFIntuKHGPOI8Y+thQMHMIXxLWvUl1RLWvUl1RLWvUl1RLWvUl1RLWvUl1RLWvUl1RLWvUl1RLWvUl1RLWvUl1RLWvUl1RLWvUl1RLWvUl1RLWvUl1RLWvUl1RLWvUl1RLWvUl1RLWvUl1RLWvUl1RLWvUl1RLWvUl1RLWvUl1RLWvUl1RLWvUl1RLWvUl1RLWvUl1RLWvUl1RLWvUl1RLWvUl1RLWvUl1RLWvUl1RLWvUl1RLWvUl1RLWvUl1RLWvUl1RLWvUl1RLWvUl1RLWvUl1RLWvUl1RLWvUl1RLWvUl1RLWvUl1RLWvUl1RLWvUl1RLWvUl1RLWvUl1RLWvUl1RLWvUl1RLWvUl1RLWvUl1RLWvUl1RLWvUl1RLWvUl1RLWvUl1RLWvUl1RLWvUl1RLWvUl1RLWvUl1RLWvUl1RLWvUl1RLWvUl1RLWvUl1RLWvUl1RLWvUl1RLWvUl1RLWvUl1RLWvUl1RLWvUl1RLWvUl1RLWvUl1RLWvUl1RLWvUl1RLWvUl1RLWvUl1RLWvUl1RLWvUl1RLWvUl1RLWvUl1RLWvUl1RLWvUl1RLWvUl1RLWvUl1RLWvUl1RLWvUl1RLWvUl1RLWvUl1RLWvUl1RLWvUl1RLWvUl1RLWvUl1RLWvUl1RLWvUl1RLWvUl1RLWvUl1RLWvUl1RLWvUl1RLWvUl1RLWvUl1RLWvUl1RLWvUl1RLWvUl1RLWvUl1RLWvUl1RLWvUl1RLWvUl1RLWvUl1RLWvUl1RLWvUl1RLWvUl1RLWvUl1RLWvUl1RLWvUl1RLWvUl1RLWvUl1RLWvUl1RLWvUl1RLWvUl1RLWvUl1RLWvUl1RLWvUl1RLWvUl1RLWvUl1RLWvUl1RLWvUl1RLWvUl1RLWvUl1RLWvUl1RLWvUl1RLWvUl1QUChzAF3/APVEf//EABQRAQAAAAAAAAAAAAAAAAAAAOD/2gAIAQIBAQIAf/6EB//EABQRAQAAAAAAAAAAAAAAAAAAAOD/2gAIAQIBAz8Af/6EB//EAB8RAQEBAQEBAQEBAQEBAAAAABEBIGAwEEBwAFCwgP/aAAgBAwEBAgD/AM65X2V/rT+Z/qz+lf6nb+yX+o26AAAAAA1L/T7ch+IMz+qSfmsxP6dcyZVVVVXNmJ/UZMW/glxf6hczFv4pftzP6XcT9txP6fMXIAAAGJi/06+NxPW4mL/Tr43E9bif1K+NyqqquZ4z+k39s8p/OVVVVVV8bPxSeKqqqqq/yVf2WHsH7F/kNv8AwAAAAA/4Ev8AH7f0T99/TL/HbdAAAAAAH/AAAAAAANS/xtzJxBl/gT+yTirP2PUW/tnG390vS2/unG398vR3+Gzo7kPyXrCzE6eT+CWdLf4fOhuJ/B7idDcT+D3E6G4n8HuJ0NxPBVVVVVeWVVVVVXdxOhuJ/B7idDcTV/PONv55q4nQ3E1fzy8ZfzzVxOhuJq/ol4q3881cTobiauJ+VVVVVVVVVVVVVVVVVVVVVVVVVfyXE1cTobiauJ+CzkpPe4mridDcTVxPw2chJ+C4mridDcTVxPxBxhJ+G4mridDcTVxPyBxAfjuJq4nQ3E1cTs7iauJ0NxNXE7O4mridDcTVxOzuJq4nQ3E1cTs7iauJ0NxNXE7O4mridDcTVxOzuJq4nQ3E1cTs7iauJ0NxNXE7O4mridDcTVxOzuJq4nQ3E1cTs7iauJ0NxNXE7O4mridDcTVxPNfq4VmFX5arN3/Kz7f8ru/5WaVc3/KquLVlwrPG4mridDcTVxPK3cvy4mL9n24m7ifbibuJm5mb4y/Lu4njcTVxOhuJq4n458uJi/Z9vvPt95m5mb6XE+31uJq4nQ3E1cTxuJCz7PlxMX7PtzM3M+3MzczNzM3AYmp9v2eVxNXE6G4mrieNxNT5cTF+z7czNzPtzPKeUzcTxvjPK4mridDcTVxPG4nhcTF+z7dT7dT7dT7dTF87ifbq4n+vtcTVxOhuJq4ntLq4mL9n26n26n26n26mL9n+v2YuJ9vlP9fs87iauJ0NxNXE8rlcXExfs+37PG/Z9v2ekxfs/wBfsxcT7d37MTzuJq4nQ3E1cTzszL9uJi/Z9v2f6/Z/r9n+v2fb9n+v2f6/ZiYv2f6/Zi4V+zF/FcTVxOhuJq4npZmX5cTF+z7fs/1xfs/1+z7fs/1+zExNz/Xd8p5T0uJq4nQ3E1cT1DE+XExfs+37PG/Z9v2ek+3xn2+MmbmelxNXE6G4mrie9n2fLiYv2fbm5mZ9v2fLmZn24X7Pt8Ju/huJq4nQ3E1cTxVftzcTc+3NzMz7c3MzPt8Z9uJ/rPs8p63E1cTobiauJ43d8Zufb7z7fs1NT3uJmbv2etxNXE6G4mrieNxKurhX7Pt+zxv2fb9nhcT5fOfLifLiav2etxNXE6G4mrieN8p9vlPt+zxv2fb9nhcT5fOfLiamr9nrcTVxOhuJq4nlZuTFm5Pt+zxv2fb9nhcT5fs8J8uJ9uJm/Z63E1cTobiauJ52GDQfQxf8B4AT7f8AAeAE+ASYsA/1/wABgCZsCT0uJq4nQ3E1cTs7iauJ0NxNXE7O4mridDcTVxOzuJq4nQ3E1cTs7iauJ0NxNXE7O4mridDcTVxOzuJq4nQ3E1cTs7iauJ0NxNXE7O4mridDcTVxOzuJq4nQ3E1cTs7iauJ0NxNXE7O4mridDcTVxPNVVXwVVVVVVVVVVVVVVVVVVVVVVVVVfO4mridDcTVxPK3xm7eNl8biauJ0NxNXE8rz88riauJ0NxNXE8r5TlZ5XE1cTobiauJ5gAAGrAAAAAAAAAAAAAAAAAAAAAAAAAA8riauJ0NxNXE7O4mridDcTVxOzuJq4nQ3E1cTs7iauJ0NxNXE7O4mridDcTVxPO1VVd2qqqqqqqqqqqqqqqqqqqqqqqqqr5XE1cTobiauJ5XynKzyuJq4nQ3E1cTyvPzyuJq4nQ3E1cTys8ZNWcbJ43E1cTobiauJ5gAAeAAAAAAAAAAAAAAAAAAAAAAAAAAeVxNXE6G4mridncTVxOhuJq4nZ3E1cTobiauJ2dxNXE6G4mridncTVxOhuJq4n5JdW8vcTVxOhuJq4nlefnlcTVxOhuJq4nlefnlcTVxOhuJq4nlf8eEmrOMPK4mridDcTVxOzuJq4nQ3E1cTs7iauJ0NxNXE7O4mridDcTVxOzuJq4nQ3E1cTzVVV8FVVVVVVVVVVVVVVVVVVVVVVVVV8riauJ0NxNXE8rfGXVvGzyuJq4nQ3E1cTyvPzyuJq4nQ3E1cTyvlOVnlcTVxOhuJq4nmAAB4AAAAAAAAAAAAAAAAAAAAAAAAAEnlcTVxOhuJq4nZ3E1cTobiauJ2dxNXE6G4mridncTVxOhuJq4nZ3E1cTobiauJ5rlZu14pl8riauJ0NxNXE8r5TlZ5XE1cTobiauJ5Xn55XE1cTobiauJ5WeMmrONk8biauJ0NxNXE8wAAPAAAAAAAAAAAAAAAAAAAAAAAAAAPK4mridDcTVxOzuJq4nQ3E1cTs7iauJ0NxNXE7O4mridDcTVxPR93inzuJq4nQ3E1cTyt8ZdW8bL43E1cTobiauJ5Xn55XE1cTobiauJ5Xn55XE1cTobiauJ5myTVnGHlcTVxOhuJq4nZ3E1cTobiauJ2dxNXE6G4mridncTVxOhuJq4nZ3E1cTobiauJ5qqq+CqqqqqqqqqqqqqqqqqqqqqqqqrL5XE1cTobiauJ5Xym7x08riauJ0NxNXE8rz88riauJ0NxNXE8rPGTV46eVxNXE6G4mrieYAAHgAAAAAAAAAAAAAAAAAAAAAAAAAHlcTVxOhuJq4nZ3E1cTobiauJ2dxNXE6G4mridncTVxOhuJq4nZ3E1cTobiauJ5u2XVrxS+VxNXE6G4mrieV8pys8riauJ0NxNXE8rz88riauJ0NxNXE8rPGTVnGzyuJq4nQ3E1cT0AADwAAAAAAAAAAAAAAAAAAAAAAAAAPO4mridDcTVxOzuJq4nQ3E1cTs7iauJ0NxNXE7O4mridDcTVxPNVVXwVVVVVVVVVVVVVVVVVVVVVVVVVXyuJq4nQ3E1cTyt8ZdW8bL43E1cTobiauJ5Xn55XE1cTobiauJ5Xn55XE1cTobiauJ5hkDVgcSHlcTVxOhuJq4nZ3E1cTobiauJ2dxNXE6G4mridncTVxOhuJq4nZ3E1cTobiauJ5qqq+Cqqqqqqqqqqqqqqqqqqqqqqqqq+VxNXE6G4mrieV8pu8dPK4mridDcTVxPK8/PK4mridDcTVxPKzxk1eOnlcTVxOhuJq4nmAAB4AAAAAAAAAAAAAAAAAAAAAAAAAB5XE1cTobiauJ2dxNXE6G4mridncTVxOhuJq4nZ3E1cTobiauJ2dxNXE6G4mrieV/z4S6t4x8riauJ0NxNXE8rz88riauJ0NxNXE8rz88riauJ0NxNXE8rPGTVnL3E1cTobiauJ2dxNXE6G4mridncTVxOhuJq4nZ3E1cTobiauJ2dxNXE6G4mrieaqqvgqqqqqqqqqqqqqqqqqqqqqqqqqvlcTVxOhuJq4nlb4y6t42XxuJq4nQ3E1cTyvPzyuJq4nQ3E1cTys8Zys8riauJ0NxNXE8wAAPAAAAAAAAAAAAAAAAAAAAAAAAAAPK4mridDcTVxOzuJq4nQ3E1cTs7iauJ0NxNXE7O4mridDcTVxOzuJq4nQ3E1cTzdrq14pfK4mridDcTVxPK+U5WeVxNXE6G4mrieV5+eVxNXE6G4mrieVnjJqzjZPG4mridDcTVxPMAADwAAAAAAAAAAAAAAAAAAAAAAAAADyuJq4nQ3E1cTs7iauJ0NxNXE7O4mridDcTVxOzuJq4nQ3E1cTs7iauJ0NxNXE7O4mridDcTVxOzuJq4nQ3E1cTs7iauJ0NxNXE7O4mridDcTVxOzuJq4nQ3E1cTs7iauJ0NxNXKqqqqqqqqqqqqqqqqqqqqqqqqqqqqqqqqqqqqquJq4nQ3E1e7mridDcTV7uauJ0NxP4PcTobieAAAAAAAAAAAAAAAAAAAAAAAAAAAAAAAAAAAAAAAAG7idDcT+D3E6G4n8HuJ0NxP4PcTob/D500v8Et6a5VVVVVVVVVVVVVVVVVVVVVVVVVVVVVVVVVVVVVVVVVVVW3E/+VLP4VJ0tn8Ik6gP4EH/AJuv/8QAGhEBAAIDAQAAAAAAAAAAAAAAEZDQAbDAoP/aAAgBAwEDPwDjQG6PM7DtiCfFgdDAaL5h7KhGbQ4//9k=;imageBorder=default;" vertex="1" parent="1">
          <mxGeometry x="471" y="398" width="80" height="80" as="geometry" />
        </mxCell>
        <mxCell id="iV92o5-6hD7ks9nK3CDA-70" style="edgeStyle=orthogonalEdgeStyle;rounded=0;orthogonalLoop=1;jettySize=auto;html=1;entryX=0;entryY=0.5;entryDx=0;entryDy=0;" edge="1" parent="1" source="iV92o5-6hD7ks9nK3CDA-54" target="iV92o5-6hD7ks9nK3CDA-59">
          <mxGeometry relative="1" as="geometry" />
        </mxCell>
        <mxCell id="iV92o5-6hD7ks9nK3CDA-54" value="" style="shape=image;verticalLabelPosition=bottom;labelBackgroundColor=default;verticalAlign=top;aspect=fixed;imageAspect=0;editableCssRules=.*;image=data:image/svg+xml,PHN2ZyB4bWxucz0iaHR0cDovL3d3dy53My5vcmcvMjAwMC9zdmciIGZpbGw9Im5vbmUiIHZpZXdCb3g9IjIgMyAyMCAxOCIgaGVpZ2h0PSI2MDAiIHdpZHRoPSI2NjYuNjY2NjY2NjY2NjY2NyI+JiN4YTs8cGF0aCBmaWxsPSIjMDAwMDAwIiBkPSJNMiA2QzIgNC4zNDMxNSAzLjM0MzE1IDMgNSAzSDE5QzIwLjY1NjkgMyAyMiA0LjM0MzE1IDIyIDZWMThDMjIgMTkuNjU2OSAyMC42NTY5IDIxIDE5IDIxSDVDMy4zNDMxNSAyMSAyIDE5LjY1NjkgMiAxOFY2Wk01IDVDNC40NDc3MiA1IDQgNS40NDc3MiA0IDZWN0gyMFY2QzIwIDUuNDQ3NzIgMTkuNTUyMyA1IDE5IDVINVpNNCAxOFY5SDIwVjE4QzIwIDE4LjU1MjMgMTkuNTUyMyAxOSAxOSAxOUg1QzQuNDQ3NzIgMTkgNCAxOC41NTIzIDQgMThaTTcuNzA3MTEgMTEuMjkyOUM3LjMxNjU4IDEwLjkwMjQgNi42ODM0MiAxMC45MDI0IDYuMjkyODkgMTEuMjkyOUM1LjkwMjM3IDExLjY4MzQgNS45MDIzNyAxMi4zMTY2IDYuMjkyODkgMTIuNzA3MUw3LjU4NTc5IDE0TDYuMjkyODkgMTUuMjkyOUM1LjkwMjM3IDE1LjY4MzQgNS45MDIzNyAxNi4zMTY2IDYuMjkyODkgMTYuNzA3MUM2LjY4MzQyIDE3LjA5NzYgNy4zMTY1OCAxNy4wOTc2IDcuNzA3MTEgMTYuNzA3MUw5LjcwNzExIDE0LjcwNzFDMTAuMDk3NiAxNC4zMTY2IDEwLjA5NzYgMTMuNjgzNCA5LjcwNzExIDEzLjI5MjlMNy43MDcxMSAxMS4yOTI5WiIgY2xpcC1ydWxlPSJldmVub2RkIiBmaWxsLXJ1bGU9ImV2ZW5vZGQiLz4mI3hhOzwvc3ZnPg==;" vertex="1" parent="1">
          <mxGeometry x="810" y="403.11" width="76.99" height="69.26" as="geometry" />
        </mxCell>
        <mxCell id="iV92o5-6hD7ks9nK3CDA-55" value="Final Summary" style="text;html=1;align=center;verticalAlign=middle;resizable=0;points=[];autosize=1;strokeColor=none;fillColor=none;" vertex="1" parent="1">
          <mxGeometry x="471" y="478" width="100" height="30" as="geometry" />
        </mxCell>
        <mxCell id="iV92o5-6hD7ks9nK3CDA-56" value="&lt;div style=&quot;text-align: justify;&quot;&gt;Question config (count, difficulty, types)&lt;/div&gt;&lt;div style=&quot;text-align: justify;&quot;&gt;&amp;nbsp; &amp;nbsp; - Extra instructions (if any)&lt;/div&gt;&lt;div style=&quot;text-align: justify;&quot;&gt;&amp;nbsp; &amp;nbsp; - Summary text&lt;/div&gt;" style="text;html=1;align=center;verticalAlign=middle;resizable=0;points=[];autosize=1;strokeColor=none;fillColor=none;" vertex="1" parent="1">
          <mxGeometry x="566" y="478" width="230" height="60" as="geometry" />
        </mxCell>
        <mxCell id="iV92o5-6hD7ks9nK3CDA-71" value="" style="edgeStyle=orthogonalEdgeStyle;rounded=0;orthogonalLoop=1;jettySize=auto;html=1;" edge="1" parent="1" source="iV92o5-6hD7ks9nK3CDA-57" target="iV92o5-6hD7ks9nK3CDA-54">
          <mxGeometry relative="1" as="geometry" />
        </mxCell>
        <mxCell id="iV92o5-6hD7ks9nK3CDA-57" value="Build Prompt Inputs" style="rounded=1;whiteSpace=wrap;html=1;fillColor=#f8cecc;strokeColor=#b85450;" vertex="1" parent="1">
          <mxGeometry x="600" y="407.74" width="120" height="60" as="geometry" />
        </mxCell>
        <mxCell id="iV92o5-6hD7ks9nK3CDA-58" value="&lt;div style=&quot;text-align: justify;&quot;&gt;Construct Final Prompt&lt;/div&gt;&lt;div style=&quot;text-align: justify;&quot;&gt;&amp;nbsp; &amp;nbsp; - System message (rules + schema)&lt;/div&gt;&lt;div style=&quot;text-align: justify;&quot;&gt;&amp;nbsp; &amp;nbsp; - User message (config + summary)&lt;/div&gt;" style="text;html=1;align=center;verticalAlign=middle;resizable=0;points=[];autosize=1;strokeColor=none;fillColor=none;" vertex="1" parent="1">
          <mxGeometry x="796" y="478" width="230" height="60" as="geometry" />
        </mxCell>
        <mxCell id="iV92o5-6hD7ks9nK3CDA-64" style="edgeStyle=orthogonalEdgeStyle;rounded=0;orthogonalLoop=1;jettySize=auto;html=1;exitX=0.5;exitY=0;exitDx=0;exitDy=0;entryX=0;entryY=0.5;entryDx=0;entryDy=0;" edge="1" parent="1" source="iV92o5-6hD7ks9nK3CDA-59" target="iV92o5-6hD7ks9nK3CDA-60">
          <mxGeometry relative="1" as="geometry" />
        </mxCell>
        <mxCell id="iV92o5-6hD7ks9nK3CDA-65" style="edgeStyle=orthogonalEdgeStyle;rounded=0;orthogonalLoop=1;jettySize=auto;html=1;exitX=0.5;exitY=1;exitDx=0;exitDy=0;entryX=0;entryY=0.5;entryDx=0;entryDy=0;" edge="1" parent="1" source="iV92o5-6hD7ks9nK3CDA-59" target="iV92o5-6hD7ks9nK3CDA-61">
          <mxGeometry relative="1" as="geometry" />
        </mxCell>
        <mxCell id="iV92o5-6hD7ks9nK3CDA-59" value="Select LLM" style="rhombus;whiteSpace=wrap;html=1;fillColor=#dae8fc;strokeColor=#6c8ebf;" vertex="1" parent="1">
          <mxGeometry x="1019" y="372.74" width="130" height="130" as="geometry" />
        </mxCell>
        <mxCell id="iV92o5-6hD7ks9nK3CDA-60" value="Groq:" style="whiteSpace=wrap;html=1;fillColor=#d5e8d4;strokeColor=#82b366;" vertex="1" parent="1">
          <mxGeometry x="1165" y="335" width="60" height="30" as="geometry" />
        </mxCell>
        <mxCell id="iV92o5-6hD7ks9nK3CDA-61" value="Gemini" style="whiteSpace=wrap;html=1;fillColor=#d5e8d4;strokeColor=#82b366;" vertex="1" parent="1">
          <mxGeometry x="1165" y="515" width="60" height="30" as="geometry" />
        </mxCell>
        <mxCell id="iV92o5-6hD7ks9nK3CDA-62" value="Load Llama3 model via LangChain&lt;div&gt;Use .with_structured_output(schema, method=&quot;json_mode&quot;)&lt;/div&gt;" style="text;html=1;align=center;verticalAlign=middle;resizable=0;points=[];autosize=1;strokeColor=none;fillColor=none;" vertex="1" parent="1">
          <mxGeometry x="1034" y="282" width="340" height="40" as="geometry" />
        </mxCell>
        <mxCell id="iV92o5-6hD7ks9nK3CDA-63" value="Load Gemini Flash via Google SDK&lt;div&gt;Return structured JSON&lt;/div&gt;" style="text;html=1;align=center;verticalAlign=middle;resizable=0;points=[];autosize=1;strokeColor=none;fillColor=none;" vertex="1" parent="1">
          <mxGeometry x="1088" y="555" width="210" height="40" as="geometry" />
        </mxCell>
        <mxCell id="iV92o5-6hD7ks9nK3CDA-66" value="" style="strokeWidth=2;html=1;shape=mxgraph.flowchart.annotation_2;align=left;labelPosition=right;pointerEvents=1;rotation=-180;" vertex="1" parent="1">
          <mxGeometry x="1226" y="351.26" width="130" height="180.74" as="geometry" />
        </mxCell>
        <mxCell id="iV92o5-6hD7ks9nK3CDA-67" value="" style="shape=image;verticalLabelPosition=bottom;labelBackgroundColor=default;verticalAlign=top;aspect=fixed;imageAspect=0;editableCssRules=.*;image=data:image/svg+xml,PHN2ZyB4bWxuczp4bGluaz0iaHR0cDovL3d3dy53My5vcmcvMTk5OS94bGluayIgeG1sbnM9Imh0dHA6Ly93d3cudzMub3JnLzIwMDAvc3ZnIiB4bWw6c3BhY2U9InByZXNlcnZlIiB2aWV3Qm94PSI2LjUgMCA0NSA1OCIgaWQ9IkNhcGFfMSIgdmVyc2lvbj0iMS4xIiB3aWR0aD0iNjIwLjY4OTY1NTE3MjQxMzgiIGhlaWdodD0iODAwIiBmaWxsPSIjMDAwMDAwIj4mI3hhOzxnPiYjeGE7CTxwYXRoIGQ9Ik01MC45NDksMTIuMTg3bC0xLjM2MS0xLjM2MWwtOS41MDQtOS41MDVjLTAuMDAxLTAuMDAxLTAuMDAxLTAuMDAxLTAuMDAyLTAuMDAxbC0wLjc3LTAuNzcxJiMxMDsmIzk7JiM5O0MzOC45NTcsMC4xOTUsMzguNDg2LDAsMzcuOTg1LDBIOC45NjNDNy43NzYsMCw2LjUsMC45MTYsNi41LDIuOTI2VjM5djE2LjUzN1Y1NmMwLDAuODM3LDAuODQxLDEuNjUyLDEuODM2LDEuOTA5JiMxMDsmIzk7JiM5O2MwLjA1MSwwLjAxNCwwLjEsMC4wMzMsMC4xNTIsMC4wNDNDOC42NDQsNTcuOTgzLDguODAzLDU4LDguOTYzLDU4aDQwLjA3NGMwLjE2LDAsMC4zMTktMC4wMTcsMC40NzUtMC4wNDgmIzEwOyYjOTsmIzk7YzAuMDUyLTAuMDEsMC4xMDEtMC4wMjksMC4xNTItMC4wNDNDNTAuNjU5LDU3LjY1Miw1MS41LDU2LjgzNyw1MS41LDU2di0wLjQ2M1YzOVYxMy45NzhDNTEuNSwxMy4yMTEsNTEuNDA3LDEyLjY0NCw1MC45NDksMTIuMTg3JiMxMDsmIzk7JiM5O3ogTTM5LjUsMy41NjVMNDcuOTM1LDEySDM5LjVWMy41NjV6IE04Ljk2Myw1NmMtMC4wNzEsMC0wLjEzNS0wLjAyNS0wLjE5OC0wLjA0OUM4LjYxLDU1Ljg3Nyw4LjUsNTUuNzIxLDguNSw1NS41MzdWNDFoNDF2MTQuNTM3JiMxMDsmIzk7JiM5O2MwLDAuMTg0LTAuMTEsMC4zNC0wLjI2NSwwLjQxNEM0OS4xNzIsNTUuOTc1LDQ5LjEwOCw1Niw0OS4wMzcsNTZIOC45NjN6IE04LjUsMzlWMi45MjZDOC41LDIuNzA5LDguNTMzLDIsOC45NjMsMmgyOC41OTUmIzEwOyYjOTsmIzk7QzM3LjUyNSwyLjEyNiwzNy41LDIuMjU2LDM3LjUsMi4zOTFWMTMuNzhjLTAuNTMyLTAuNDgtMS4yMjktMC43OC0yLTAuNzhjLTAuNTUzLDAtMSwwLjQ0OC0xLDFzMC40NDcsMSwxLDFjMC41NTIsMCwxLDAuNDQ5LDEsMXY0JiMxMDsmIzk7JiM5O2MwLDEuMiwwLjU0MiwyLjI2NiwxLjM4MiwzYy0wLjg0LDAuNzM0LTEuMzgyLDEuOC0xLjM4MiwzdjRjMCwwLjU1MS0wLjQ0OCwxLTEsMWMtMC41NTMsMC0xLDAuNDQ4LTEsMXMwLjQ0NywxLDEsMSYjMTA7JiM5OyYjOTtjMS42NTQsMCwzLTEuMzQ2LDMtM3YtNGMwLTEuMTAzLDAuODk3LTIsMi0yYzAuNTUzLDAsMS0wLjQ0OCwxLTFzLTAuNDQ3LTEtMS0xYy0xLjEwMywwLTItMC44OTctMi0ydi00JiMxMDsmIzk7JiM5O2MwLTAuNzcxLTAuMzAxLTEuNDY4LTAuNzgtMmgxMS4zODljMC4xMzUsMCwwLjI2NS0wLjAyNSwwLjM5MS0wLjA1OGMwLDAuMDE1LDAuMDAxLDAuMDIxLDAuMDAxLDAuMDM2VjM5SDguNXoiLz4mI3hhOwk8cGF0aCBkPSJNMTYuMzU0LDUxLjQzYy0wLjAxOSwwLjQ0Ni0wLjE3MSwwLjc2NC0wLjQ1OCwwLjk1cy0wLjY3MiwwLjI4LTEuMTU1LDAuMjhjLTAuMTkxLDAtMC4zOTYtMC4wMjItMC42MTUtMC4wNjgmIzEwOyYjOTsmIzk7cy0wLjQyOS0wLjA5OC0wLjYyOS0wLjE1N3MtMC4zODUtMC4xMjMtMC41NTQtMC4xOTFzLTAuMjk5LTAuMTM1LTAuMzktMC4xOThsLTAuNjk3LDEuMTA3YzAuMTgzLDAuMTM3LDAuNDA1LDAuMjYsMC42NywwLjM2OSYjMTA7JiM5OyYjOTtzMC41NCwwLjIwNywwLjgyNywwLjI5NHMwLjU2NSwwLjE1LDAuODM0LDAuMTkxczAuNTA0LDAuMDYyLDAuNzA0LDAuMDYyYzAuNDAxLDAsMC43OTEtMC4wMzksMS4xNjktMC4xMTYmIzEwOyYjOTsmIzk7YzAuMzc4LTAuMDc3LDAuNzEzLTAuMjE0LDEuMDA1LTAuNDFzMC41MjQtMC40NTYsMC42OTctMC43NzlzMC4yNi0wLjcyMywwLjI2LTEuMTk2di03Ljg0OGgtMS42NjhWNTEuNDN6Ii8+JiN4YTsJPHBhdGggZD0iTTI1LjA4Myw0OS4wNjRjLTAuMzE0LTAuMjI4LTAuNjU0LTAuNDIyLTEuMDE5LTAuNTgxcy0wLjcwMi0wLjMyMy0xLjAxMi0wLjQ5MnMtMC41NjktMC4zNjQtMC43NzktMC41ODgmIzEwOyYjOTsmIzk7cy0wLjMxNC0wLjUxOC0wLjMxNC0wLjg4MmMwLTAuMTQ2LDAuMDM2LTAuMjk5LDAuMTA5LTAuNDU4czAuMTczLTAuMzAzLDAuMzAxLTAuNDMxczAuMjczLTAuMjM0LDAuNDM4LTAuMzIxJiMxMDsmIzk7JiM5O3MwLjMzNy0wLjEzOSwwLjUyLTAuMTU3YzAuMzI4LTAuMDI3LDAuNTk3LTAuMDMyLDAuODA3LTAuMDE0czAuMzc4LDAuMDUsMC41MDYsMC4wOTZzMC4yMjYsMC4wOTEsMC4yOTQsMC4xMzcmIzEwOyYjOTsmIzk7czAuMTMsMC4wODIsMC4xODUsMC4xMDljMC4wMDktMC4wMDksMC4wMzYtMC4wNTUsMC4wODItMC4xMzdzMC4xMDEtMC4xODUsMC4xNjQtMC4zMDhzMC4xMzItMC4yNTUsMC4yMDUtMC4zOTYmIzEwOyYjOTsmIzk7czAuMTM3LTAuMjcxLDAuMTkxLTAuMzljLTAuMjY1LTAuMTczLTAuNjEtMC4yOTktMS4wMzktMC4zNzZzLTAuODUzLTAuMTE2LTEuMjcxLTAuMTE2Yy0wLjQxLDAtMC44LDAuMDYzLTEuMTY5LDAuMTkxJiMxMDsmIzk7JiM5O3MtMC42OTIsMC4zMTMtMC45NzEsMC41NTRzLTAuNDk5LDAuNTM1LTAuNjYzLDAuODgyUzIwLjQsNDYuMTMsMjAuNCw0Ni41NzZjMCwwLjQ5MiwwLjEwNCwwLjkwMiwwLjMxNCwxLjIzJiMxMDsmIzk7JiM5O3MwLjQ3NCwwLjYxMywwLjc5MywwLjg1NHMwLjY2MSwwLjQ1MSwxLjAyNSwwLjYyOXMwLjcwNCwwLjM1NSwxLjAxOSwwLjUzM3MwLjU3NiwwLjM3NiwwLjc4NiwwLjU5NXMwLjMxNCwwLjQ4MywwLjMxNCwwLjc5MyYjMTA7JiM5OyYjOTtjMCwwLjUxMS0wLjE0OCwwLjg5Ni0wLjQ0NCwxLjE1NXMtMC43MjMsMC4zOS0xLjI3OCwwLjM5Yy0wLjE4MywwLTAuMzc4LTAuMDE5LTAuNTg4LTAuMDU1cy0wLjQxOS0wLjA4NC0wLjYyOS0wLjE0NCYjMTA7JiM5OyYjOTtzLTAuNDEyLTAuMTIzLTAuNjA4LTAuMTkxcy0wLjM1Ny0wLjEzOS0wLjQ4NS0wLjIxMmwtMC4yODcsMS4xNzZjMC4xNTUsMC4xMzcsMC4zNCwwLjI1MywwLjU1NCwwLjM0OXMwLjQzOSwwLjE3MSwwLjY3NywwLjIyNiYjMTA7JiM5OyYjOTtjMC4yMzcsMC4wNTUsMC40NzIsMC4wOTQsMC43MDQsMC4xMTZzMC40NTgsMC4wMzQsMC42NzcsMC4wMzRjMC41MTEsMCwwLjk2Ni0wLjA3NywxLjM2Ny0wLjIzMnMwLjczOC0wLjM2MiwxLjAxMi0wLjYyMiYjMTA7JiM5OyYjOTtzMC40ODUtMC41NjEsMC42MzYtMC45MDJzMC4yMjYtMC42OTUsMC4yMjYtMS4wNmMwLTAuNTM4LTAuMTA0LTAuOTc4LTAuMzE0LTEuMzE5UzI1LjM5Nyw0OS4yOTIsMjUuMDgzLDQ5LjA2NHoiLz4mI3hhOwk8cGF0aCBkPSJNMzQuODcyLDQ1LjA3MmMtMC4zNzgtMC40MjktMC44Mi0wLjc1NC0xLjMyNi0wLjk3OHMtMS4wNi0wLjMzNS0xLjY2MS0wLjMzNXMtMS4xNTUsMC4xMTEtMS42NjEsMC4zMzUmIzEwOyYjOTsmIzk7cy0wLjk0OCwwLjU0OS0xLjMyNiwwLjk3OHMtMC42NzUsMC45NjQtMC44ODksMS42MDZzLTAuMzIxLDEuMzg4LTAuMzIxLDIuMjM1czAuMTA3LDEuNTk1LDAuMzIxLDIuMjQyczAuNTExLDEuMTg1LDAuODg5LDEuNjEzJiMxMDsmIzk7JiM5O3MwLjgyLDAuNzUyLDEuMzI2LDAuOTcxczEuMDYsMC4zMjgsMS42NjEsMC4zMjhzMS4xNTUtMC4xMDksMS42NjEtMC4zMjhzMC45NDgtMC41NDIsMS4zMjYtMC45NzFzMC42NzUtMC45NjYsMC44ODktMS42MTMmIzEwOyYjOTsmIzk7czAuMzIxLTEuMzk1LDAuMzIxLTIuMjQycy0wLjEwNy0xLjU5My0wLjMyMS0yLjIzNVMzNS4yNSw0NS41MDEsMzQuODcyLDQ1LjA3MnogTTM0LjE5NSw1MC42OTgmIzEwOyYjOTsmIzk7Yy0wLjEzNywwLjQ4Ny0wLjMyNiwwLjg4Mi0wLjU2NywxLjE4M3MtMC41MTUsMC41MTgtMC44MiwwLjY0OXMtMC42MjcsMC4xOTgtMC45NjQsMC4xOThjLTAuMzI4LDAtMC42NDEtMC4wNy0wLjkzNy0wLjIxMiYjMTA7JiM5OyYjOTtzLTAuNTYxLTAuMzY0LTAuNzkzLTAuNjdzLTAuNDE1LTAuNjk5LTAuNTQ3LTEuMTgzcy0wLjIwMy0xLjA2Ni0wLjIxMi0xLjc1YzAuMDA5LTAuNzAyLDAuMDgyLTEuMjk0LDAuMjE5LTEuNzc3JiMxMDsmIzk7JiM5O2MwLjEzNy0wLjQ4MywwLjMyNi0wLjg3NywwLjU2Ny0xLjE4M3MwLjUxNS0wLjUyMSwwLjgyLTAuNjQ5czAuNjI3LTAuMTkxLDAuOTY0LTAuMTkxYzAuMzI4LDAsMC42NDEsMC4wNjgsMC45MzcsMC4yMDUmIzEwOyYjOTsmIzk7czAuNTYxLDAuMzYsMC43OTMsMC42N3MwLjQxNSwwLjcwNCwwLjU0NywxLjE4M3MwLjIwMywxLjA2LDAuMjEyLDEuNzQzQzM0LjQwNSw0OS42MTYsMzQuMzMyLDUwLjIxMSwzNC4xOTUsNTAuNjk4eiIvPiYjeGE7CTxwb2x5Z29uIHBvaW50cz0iNDQuMDEyLDUwLjg2OSA0MC4wNjEsNDMuOTI0IDM4LjM5Myw0My45MjQgMzguMzkzLDU0IDQwLjA2MSw1NCA0MC4wNjEsNDcuMDU1IDQ0LjAxMiw1NCA0NS42OCw1NCA0NS42OCw0My45MjQgJiMxMDsmIzk7JiM5OzQ0LjAxMiw0My45MjQiLz4mI3hhOwk8cGF0aCBkPSJNMjAuNSwyMHYtNGMwLTAuNTUxLDAuNDQ4LTEsMS0xYzAuNTUzLDAsMS0wLjQ0OCwxLTFzLTAuNDQ3LTEtMS0xYy0xLjY1NCwwLTMsMS4zNDYtMywzdjRjMCwxLjEwMy0wLjg5NywyLTIsMiYjMTA7JiM5OyYjOTtjLTAuNTUzLDAtMSwwLjQ0OC0xLDFzMC40NDcsMSwxLDFjMS4xMDMsMCwyLDAuODk3LDIsMnY0YzAsMS42NTQsMS4zNDYsMywzLDNjMC41NTMsMCwxLTAuNDQ4LDEtMXMtMC40NDctMS0xLTEmIzEwOyYjOTsmIzk7Yy0wLjU1MiwwLTEtMC40NDktMS0xdi00YzAtMS4yLTAuNTQyLTIuMjY2LTEuMzgyLTNDMTkuOTU4LDIyLjI2NiwyMC41LDIxLjIsMjAuNSwyMHoiLz4mI3hhOwk8Y2lyY2xlIHI9IjEuNSIgY3k9IjE5LjUiIGN4PSIyOC41Ii8+JiN4YTsJPHBhdGggZD0iTTI4LjUsMjVjLTAuNTUzLDAtMSwwLjQ0OC0xLDF2M2MwLDAuNTUyLDAuNDQ3LDEsMSwxczEtMC40NDgsMS0xdi0zQzI5LjUsMjUuNDQ4LDI5LjA1MywyNSwyOC41LDI1eiIvPiYjeGE7PC9nPiYjeGE7PC9zdmc+;" vertex="1" parent="1">
          <mxGeometry x="1356" y="402.99" width="60" height="77.29" as="geometry" />
        </mxCell>
        <mxCell id="iV92o5-6hD7ks9nK3CDA-72" value="&lt;div&gt;summary: string&lt;/div&gt;&lt;div&gt;&amp;nbsp; &amp;nbsp; - questions: structured JSON list&lt;/div&gt;" style="text;html=1;align=center;verticalAlign=middle;resizable=0;points=[];autosize=1;strokeColor=none;fillColor=none;" vertex="1" parent="1">
          <mxGeometry x="1281" y="488" width="210" height="40" as="geometry" />
        </mxCell>
      </root>
    </mxGraphModel>
  </diagram>
</mxfile>
